<?xml version="1.0" encoding="UTF-8" standalone="no"?>
<svg
   version="1.1"
   width="850.39368pt"
   height="850.39368pt"
   id="svg28"
   viewBox="0 0 850.39368 850.39368"
   sodipodi:docname="LOGO SAMIE NỀN TRẮNG CHỮ ĐEN.cdr"
   xmlns:inkscape="http://www.inkscape.org/namespaces/inkscape"
   xmlns:sodipodi="http://sodipodi.sourceforge.net/DTD/sodipodi-0.dtd"
   xmlns="http://www.w3.org/2000/svg"
   xmlns:svg="http://www.w3.org/2000/svg">
  <defs
     id="defs32" />
  <sodipodi:namedview
     id="namedview30"
     pagecolor="#ffffff"
     bordercolor="#000000"
     borderopacity="0.25"
     inkscape:showpageshadow="2"
     inkscape:pageopacity="0.0"
     inkscape:pagecheckerboard="0"
     inkscape:deskcolor="#d1d1d1"
     inkscape:document-units="pt" />
  <path
     d="m 421.6017,152.9011 c 111.6224,0 202.1099,90.4875 202.1099,202.1099 0,111.6224 -90.4875,202.11 -202.1099,202.11 -111.6224,0 -202.11,-90.4876 -202.11,-202.11 0,-111.6224 90.4876,-202.1099 202.11,-202.1099 z"
     style="fill:none;stroke:#1b1918;stroke-width:4;stroke-linecap:round;stroke-linejoin:miter;stroke-dasharray:none"
     id="path2" />
  <path
     d="m 215.5133,688.0711 -6.2476,-19.127 -1.9542,-0.5125 V 667.15 h 7.6573 v 1.3136 l -2.7874,0.5445 4.3252,13.9048 0.3523,1.3136 h 0.1922 l 0.4167,-1.3776 4.1009,-11.3418 -0.8972,-2.531 -2.4029,-0.5125 V 667.15 h 8.202 v 1.3136 l -2.9157,0.5766 5.1262,13.8407 0.3846,1.2815 h 0.1922 l 0.3203,-1.2815 3.8126,-13.8728 -2.8193,-0.5445 V 667.15 h 6.9202 v 1.3136 l -1.9862,0.5125 -5.5749,19.095 h -1.9542 l -5.0621,-12.9756 -0.2243,-1.0253 h -0.1921 l -0.2245,1.0253 -4.7416,12.9756 z m 23.4201,-0.1601 v -1.3777 l 2.6592,-0.5448 v -16.9163 l -2.6592,-0.5445 V 667.15 h 14.6738 v 5.2543 h -1.5698 l -0.6729,-3.4923 h -3.8767 l -3.1396,0.1922 v 7.3369 h 5.0621 l 0.4804,-1.8901 h 1.3456 v 5.4785 h -1.3456 l -0.4804,-1.8904 h -5.0621 v 7.5932 c 0.4056,0.1068 0.9396,0.1921 1.6018,0.2562 0.6622,0.0644 1.3028,0.0964 1.9222,0.0964 h 3.7485 l 0.705,-3.4282 h 1.5698 v 5.2543 z m 18.326,0 v -1.3777 l 2.6592,-0.5448 v -16.8843 l -2.6592,-0.5765 V 667.15 h 9.4516 c 3.0327,0 5.4357,0.8328 7.2085,2.499 1.7728,1.666 2.6591,4.1222 2.6591,7.3687 0,2.3709 -0.4271,4.3682 -1.2815,5.9913 -0.8544,1.6234 -2.1144,2.8463 -3.7803,3.6686 -1.6662,0.8223 -3.7273,1.2334 -6.1835,1.2334 z m 8.5224,-1.666 c 1.3028,0 2.4349,-0.1709 3.3962,-0.5127 0.9609,-0.3416 1.7461,-0.8811 2.3547,-1.6178 0.6086,-0.737 1.0627,-1.6821 1.3618,-2.8355 0.2987,-1.1534 0.4484,-2.5418 0.4484,-4.1649 0,-1.3884 -0.1548,-2.59 -0.4646,-3.6046 -0.3098,-1.0145 -0.7741,-1.8581 -1.3938,-2.531 -0.6194,-0.6727 -1.4043,-1.1693 -2.3547,-1.4896 -0.9505,-0.3206 -2.0773,-0.4808 -3.3801,-0.4808 -0.6193,0 -1.1854,0.0162 -1.6979,0.0482 -0.5128,0.032 -0.972,0.0907 -1.3777,0.176 v 16.6921 c 0.3204,0.0856 0.7742,0.1605 1.3615,0.2245 0.5874,0.0641 1.1696,0.0961 1.7462,0.0961 z m 13.9688,1.666 v -1.3777 l 2.6592,-0.5448 v -16.8843 l -2.6592,-0.5765 V 667.15 h 9.4516 c 3.0328,0 5.4357,0.8328 7.2085,2.499 1.7728,1.666 2.6592,4.1222 2.6592,7.3687 0,2.3709 -0.4272,4.3682 -1.2816,5.9913 -0.8543,1.6234 -2.1143,2.8463 -3.7803,3.6686 -1.6662,0.8223 -3.7272,1.2334 -6.1835,1.2334 z m 8.5224,-1.666 c 1.3028,0 2.4349,-0.1709 3.3962,-0.5127 0.9609,-0.3416 1.7461,-0.8811 2.3547,-1.6178 0.6086,-0.737 1.0627,-1.6821 1.3618,-2.8355 0.2987,-1.1534 0.4484,-2.5418 0.4484,-4.1649 0,-1.3884 -0.1548,-2.59 -0.4646,-3.6046 -0.3098,-1.0145 -0.7741,-1.8581 -1.3938,-2.531 -0.6194,-0.6727 -1.4043,-1.1693 -2.3547,-1.4896 -0.9505,-0.3206 -2.0773,-0.4808 -3.3801,-0.4808 -0.6193,0 -1.1854,0.0162 -1.6979,0.0482 -0.5128,0.032 -0.972,0.0907 -1.3776,0.176 v 16.6921 c 0.3203,0.0856 0.7741,0.1605 1.3614,0.2245 0.5874,0.0641 1.1696,0.0961 1.7462,0.0961 z m 13.9688,1.666 v -1.4097 l 2.6272,-0.4805 v -16.9806 l -2.6272,-0.4805 V 667.15 h 8.0419 v 1.4097 l -2.6271,0.4805 v 16.9806 l 2.6271,0.4805 v 1.4097 z m 11.598,0 v -1.3456 l 2.1787,-0.5125 v -17.0448 l -2.0183,-0.4484 V 667.15 h 4.6775 l 10.4125,15.9231 0.4807,0.9612 h 0.1282 v -15.0262 l -2.1788,-0.5125 V 667.15 h 6.3437 v 1.3456 l -2.1467,0.5125 v 18.9029 h -2.6592 l -10.4765,-16.0195 -0.4164,-0.8648 h -0.1282 v 15.0262 l 2.2425,0.5125 v 1.3456 z m 32.4232,0.3523 c -3.033,0 -5.3611,-0.8277 -6.9845,-2.4829 -1.6234,-1.6554 -2.435,-4.32 -2.435,-7.9937 0,-1.559 0.2404,-3.0061 0.7208,-4.3412 0.4808,-1.3349 1.1642,-2.499 2.0506,-3.4923 0.8864,-0.993 1.965,-1.7728 3.2358,-2.3386 1.271,-0.5661 2.6966,-0.8492 4.2772,-0.8492 1.6446,0 2.9849,0.1176 4.0209,0.3526 1.0358,0.235 1.7462,0.4484 2.1305,0.6406 v 4.966 h -1.5378 l -0.9292,-3.5243 c -0.4484,-0.1494 -1.0357,-0.2775 -1.762,-0.3844 -0.7262,-0.1068 -1.4204,-0.1601 -2.0826,-0.1601 -2.499,0 -4.2772,0.6996 -5.3345,2.0985 -1.057,1.3991 -1.5857,3.6363 -1.5857,6.7121 0,1.9437 0.2188,3.5884 0.6568,4.934 0.4377,1.3456 1.1426,2.3601 2.1143,3.0436 0.972,0.6834 2.2802,1.0253 3.9249,1.0253 0.7047,0 1.2923,-0.0321 1.762,-0.0961 0.47,-0.0641 0.8918,-0.1656 1.2657,-0.3045 0.3736,-0.1389 0.7529,-0.3149 1.1372,-0.5286 v -5.9593 l -2.2748,-0.5766 v -1.3776 h 6.3117 v 1.6018 l -1.3136,0.2563 v 8.4263 h -1.1534 l -0.7047,-0.8652 h -0.4167 c -0.4057,0.2566 -0.993,0.5233 -1.762,0.8011 -0.7688,0.2778 -1.8797,0.4164 -3.3319,0.4164 z m 18.0054,-0.3523 v -1.3777 l 2.6592,-0.5448 v -16.9163 l -2.6592,-0.5445 V 667.15 h 7.8817 c 1.5804,0 2.9634,0.1709 4.1488,0.5125 1.1855,0.3419 2.1039,0.9026 2.7553,1.6821 0.6517,0.7795 0.9774,1.853 0.9774,3.2199 0,1.5378 -0.3206,2.8301 -0.9612,3.8766 -0.641,1.0466 -1.5378,1.8315 -2.6913,2.3548 -1.1534,0.5232 -2.4882,0.7849 -4.0047,0.7849 -0.1922,0 -0.3793,-0.005 -0.5607,-0.0159 -0.1817,-0.0108 -0.3685,-0.0266 -0.5607,-0.0482 l -0.1602,-1.2495 c 1.2816,-0.0212 2.3655,-0.1976 3.2519,-0.5284 0.8864,-0.3311 1.5645,-0.8597 2.0344,-1.5859 0.47,-0.7263 0.7047,-1.6875 0.7047,-2.8835 0,-1.538 -0.443,-2.6379 -1.3294,-3.3 -0.8864,-0.6622 -2.0772,-0.9933 -3.5722,-0.9933 -0.47,0 -0.9346,0.0162 -1.3938,0.0482 -0.4592,0.032 -0.8277,0.0694 -1.1053,0.112 v 16.7561 l 3.5561,0.5448 v 1.4738 z m 18.1018,0 v -1.3777 l 2.6592,-0.5448 v -16.9163 l -2.6592,-0.5445 V 667.15 h 8.3301 v 1.5058 l -2.9154,0.4805 v 16.7561 l 3.1397,0.2565 h 3.6204 l 0.7047,-3.4282 h 1.5701 v 5.1903 z m 14.6418,0 v -1.4097 l 1.9221,-0.3844 7.0487,-19.127 h 1.762 l 7.3369,19.095 2.0503,0.4164 v 1.4097 h -7.6572 v -1.4097 l 2.6594,-0.4164 -1.5701,-4.1652 h -7.9135 l -1.4096,4.1652 2.5951,0.4164 v 1.4097 z m 6.2796,-7.8174 h 6.5999 l -2.9155,-7.9135 -0.3846,-1.3136 h -0.1602 l -0.3523,1.3136 z m 15.3141,7.8174 v -1.3456 l 2.1787,-0.5125 v -17.0448 l -2.0182,-0.4484 V 667.15 h 4.6774 l 10.4125,15.9231 0.4808,0.9612 h 0.1281 v -15.0262 l -2.1787,-0.5125 V 667.15 h 6.3437 v 1.3456 l -2.1467,0.5125 v 18.9029 h -2.6592 l -10.4766,-16.0195 -0.4164,-0.8648 h -0.1281 v 15.0262 l 2.2425,0.5125 v 1.3456 z m 23.292,0 v -1.3456 l 2.1787,-0.5125 v -17.0448 l -2.0182,-0.4484 V 667.15 h 4.6774 l 10.4125,15.9231 0.4808,0.9612 h 0.1281 v -15.0262 l -2.1787,-0.5125 V 667.15 h 6.3437 v 1.3456 l -2.1467,0.5125 v 18.9029 h -2.6592 l -10.4766,-16.0195 -0.4164,-0.8648 h -0.1281 v 15.0262 l 2.2425,0.5125 v 1.3456 z m 23.292,0 v -1.3777 l 2.6592,-0.5448 v -16.9163 l -2.6592,-0.5445 V 667.15 h 14.6739 v 5.2543 h -1.5699 l -0.6729,-3.4923 h -3.8767 l -3.1396,0.1922 v 7.3369 h 5.0621 l 0.4805,-1.8901 h 1.3456 v 5.4785 h -1.3456 l -0.4805,-1.8904 h -5.0621 v 7.5932 c 0.4056,0.1068 0.9397,0.1921 1.6018,0.2562 0.6622,0.0644 1.3028,0.0964 1.9222,0.0964 h 3.7485 l 0.705,-3.4282 h 1.5698 v 5.2543 z m 18.326,0 v -1.3777 l 2.6592,-0.5448 v -16.9163 l -2.6592,-0.5445 V 667.15 h 9.0349 c 1.1749,0 2.2481,0.1814 3.2199,0.5446 0.972,0.3631 1.7515,0.9184 2.3388,1.6662 0.5874,0.7475 0.881,1.7192 0.881,2.9154 0,1.0037 -0.1281,1.8527 -0.3843,2.5469 -0.2563,0.6942 -0.6033,1.2711 -1.0412,1.7303 -0.438,0.4592 -0.9238,0.849 -1.4579,1.1693 -0.534,0.3203 -1.0998,0.6089 -1.6979,0.8651 l 4.4532,7.3366 2.2428,0.6089 v 1.3777 h -2.9475 c -0.4912,0 -0.8597,-0.0749 -1.1055,-0.2243 -0.2455,-0.1496 -0.4859,-0.4059 -0.7209,-0.769 l -4.4532,-7.7533 h -2.9474 v 6.8241 l 2.6591,0.5448 v 1.3777 z m 5.4148,-10.5086 h 2.0182 c 1.0041,0 1.8797,-0.1922 2.6272,-0.5769 0.7475,-0.3844 1.3351,-0.9184 1.7623,-1.6018 0.4272,-0.6835 0.6406,-1.4738 0.6406,-2.3709 0,-0.8757 -0.1443,-1.5753 -0.4326,-2.0985 -0.2882,-0.5233 -0.6568,-0.9131 -1.1052,-1.1693 -0.4484,-0.2566 -0.9292,-0.4218 -1.4417,-0.4967 -0.5128,-0.0748 -1.004,-0.1122 -1.4737,-0.1122 -0.3847,0 -0.8173,0.0162 -1.2977,0.0482 -0.4805,0.032 -0.9131,0.0694 -1.2974,0.112 z m 27.585,10.8289 c -0.8971,0 -1.7835,-0.0853 -2.6592,-0.2563 -0.8759,-0.1709 -1.6662,-0.47 -2.3709,-0.8971 -0.7049,-0.4272 -1.2656,-1.0092 -1.682,-1.7462 -0.4164,-0.7367 -0.6248,-1.6818 -0.6248,-2.8352 0,-0.8544 0.1497,-1.6019 0.4485,-2.2428 0.299,-0.6406 0.6675,-1.1908 1.1055,-1.65 0.4376,-0.4592 0.881,-0.8382 1.3294,-1.1373 0.4487,-0.299 0.8331,-0.5233 1.1534,-0.6729 -0.7687,-0.8544 -1.3776,-1.6659 -1.826,-2.435 -0.4488,-0.7687 -0.673,-1.6018 -0.673,-2.499 0,-0.9397 0.2242,-1.7887 0.673,-2.5469 0.4484,-0.7583 1.1052,-1.3723 1.9703,-1.8423 0.8652,-0.47 1.9383,-0.7049 3.2199,-0.7049 0.7262,0 1.3935,0.0535 2.0024,0.1604 0.6086,0.1066 1.148,0.2296 1.618,0.3682 0.4697,0.1389 0.8223,0.2617 1.0573,0.3685 v 4.7418 h -1.5701 l -0.6406,-3.268 c 0,0 -0.2242,-0.0854 -0.673,-0.2563 -0.4484,-0.1709 -1.1426,-0.2563 -2.0823,-0.2563 -1.175,0 -1.9865,0.2563 -2.435,0.7691 -0.4487,0.5125 -0.6729,1.2172 -0.6729,2.1143 0,0.47 0.0695,0.8811 0.2083,1.2337 0.1389,0.3523 0.3898,0.7367 0.7529,1.1534 0.3631,0.4164 0.8652,0.9663 1.5058,1.6498 l 6.9846,7.2408 c 0.299,-0.705 0.4484,-1.5273 0.4484,-2.467 0,-0.7475 -0.0428,-1.351 -0.1281,-1.8102 -0.0856,-0.4592 -0.1602,-0.7637 -0.2242,-0.913 l -2.6592,-0.5126 v -1.4419 h 4.3571 c 0.2137,0.6409 0.3685,1.3135 0.4646,2.0185 0.0961,0.705 0.144,1.5806 0.144,2.6272 0,0.6409 -0.0853,1.3028 -0.2562,1.9865 -0.171,0.6834 -0.4377,1.324 -0.8008,1.9222 l 1.762,1.794 2.467,0.5448 v 1.3777 h -2.7553 c -0.3419,0 -0.7104,-0.0695 -1.1055,-0.2084 -0.3952,-0.1386 -0.7634,-0.3682 -1.1052,-0.6888 l -0.8652,-0.8649 c -0.7047,0.6194 -1.5483,1.1211 -2.531,1.5058 -0.9825,0.3844 -2.0931,0.5766 -3.3319,0.5766 z m 0.4164,-1.9863 c 0.8331,0 1.6073,-0.1176 2.3227,-0.3526 0.7158,-0.2347 1.3405,-0.5766 1.8743,-1.025 l -6.9202,-7.0807 c -0.2563,0.1497 -0.5553,0.4006 -0.8972,0.7529 -0.3415,0.3524 -0.646,0.8116 -0.913,1.3777 -0.267,0.566 -0.4005,1.2761 -0.4005,2.1305 0,0.8971 0.1442,1.6608 0.4325,2.2909 0.2883,0.6302 0.7849,1.1053 1.4899,1.4256 0.7047,0.3206 1.7087,0.4807 3.0115,0.4807 z m 18.6143,1.666 v -1.3777 l 2.6592,-0.5448 v -16.8843 l -2.6592,-0.5765 V 667.15 h 9.4516 c 3.0328,0 5.4357,0.8328 7.2085,2.499 1.7728,1.666 2.6591,4.1222 2.6591,7.3687 0,2.3709 -0.4271,4.3682 -1.2815,5.9913 -0.8544,1.6234 -2.1144,2.8463 -3.7803,3.6686 -1.6662,0.8223 -3.7273,1.2334 -6.1835,1.2334 z m 8.5224,-1.666 c 1.3028,0 2.4349,-0.1709 3.3962,-0.5127 0.9609,-0.3416 1.7461,-0.8811 2.3547,-1.6178 0.6086,-0.737 1.0627,-1.6821 1.3618,-2.8355 0.2987,-1.1534 0.4484,-2.5418 0.4484,-4.1649 0,-1.3884 -0.1548,-2.59 -0.4646,-3.6046 -0.3098,-1.0145 -0.7741,-1.8581 -1.3938,-2.531 -0.6194,-0.6727 -1.4043,-1.1693 -2.3547,-1.4896 -0.9505,-0.3206 -2.0773,-0.4808 -3.3801,-0.4808 -0.6193,0 -1.1854,0.0162 -1.6979,0.0482 -0.5128,0.032 -0.972,0.0907 -1.3777,0.176 v 16.6921 c 0.3204,0.0856 0.7742,0.1605 1.3615,0.2245 0.5874,0.0641 1.1696,0.0961 1.7462,0.0961 z m 13.9688,1.666 v -1.3777 l 2.6592,-0.5448 v -16.9163 l -2.6592,-0.5445 V 667.15 h 14.6738 v 5.2543 h -1.5698 l -0.6729,-3.4923 h -3.8767 l -3.1396,0.1922 v 7.3369 h 5.0621 l 0.4804,-1.8901 h 1.3456 v 5.4785 h -1.3456 l -0.4804,-1.8904 h -5.0621 v 7.5932 c 0.4056,0.1068 0.9396,0.1921 1.6018,0.2562 0.6622,0.0644 1.3028,0.0964 1.9222,0.0964 h 3.7485 l 0.705,-3.4282 h 1.5698 v 5.2543 z m 27.4893,0.3523 c -3.2253,0 -5.607,-0.8969 -7.1447,-2.6912 -1.5378,-1.7941 -2.3069,-4.3892 -2.3069,-7.7854 0,-1.4524 0.2296,-2.8406 0.6888,-4.1649 0.4592,-1.3244 1.1268,-2.499 2.0024,-3.5243 0.8759,-1.0253 1.9437,-1.8369 3.204,-2.435 1.26,-0.5981 2.6912,-0.8971 4.2931,-0.8971 1.1747,0 2.3015,0.0802 3.38,0.2403 1.0786,0.1602 1.9812,0.3898 2.7074,0.6889 v 5.03 h -1.6019 l -0.6729,-3.5243 c -0.5125,-0.1494 -1.148,-0.2721 -1.9063,-0.3682 -0.7583,-0.0961 -1.5111,-0.1443 -2.2586,-0.1443 -1.4738,0 -2.702,0.3365 -3.6845,1.0091 -0.9825,0.673 -1.7195,1.6821 -2.2108,3.0277 -0.4912,1.3456 -0.7367,3.0439 -0.7367,5.0942 0,1.4737 0.1494,2.7552 0.4485,3.8446 0.299,1.0894 0.7262,1.9919 1.2815,2.7074 0.5553,0.7154 1.2441,1.2441 2.0665,1.5857 0.8223,0.3418 1.7674,0.5128 2.8355,0.5128 0.8543,0 1.5752,-0.0695 2.1625,-0.2084 0.5873,-0.1389 1.0573,-0.3044 1.4097,-0.4966 0.3523,-0.1922 0.614,-0.3416 0.7849,-0.4485 l 0.6409,-3.3001 h 1.5698 v 4.87 c -0.4059,0.1709 -0.9076,0.3685 -1.5057,0.5927 -0.5981,0.2242 -1.3352,0.4113 -2.2108,0.5607 -0.8756,0.1497 -1.9542,0.2242 -3.2357,0.2242 z m 19.7677,0.0641 c -3.14,0 -5.5214,-0.9238 -7.1448,-2.7712 -1.6234,-1.8476 -2.4349,-4.4053 -2.4349,-7.6734 0,-2.0718 0.3897,-3.9407 1.1696,-5.6066 0.7795,-1.6662 1.9275,-3.0011 3.444,-4.0048 1.5166,-1.004 3.4067,-1.506 5.6708,-1.506 1.9224,0 3.5617,0.4166 4.9181,1.2495 1.3561,0.8331 2.3975,2.0131 3.1235,3.5404 0.7262,1.5271 1.0893,3.3693 1.0893,5.5267 0,1.5378 -0.1868,2.9849 -0.5607,4.341 -0.3736,1.3564 -0.9558,2.5526 -1.7458,3.5884 -0.7903,1.0361 -1.8051,1.8476 -3.0439,2.435 -1.2387,0.5873 -2.734,0.881 -4.4852,0.881 z m 0.6406,-1.8261 c 1.4312,0 2.5792,-0.3365 3.4441,-1.0091 0.8651,-0.673 1.5006,-1.6662 1.9063,-2.9798 0.4059,-1.3136 0.6089,-2.9208 0.6089,-4.8218 0,-1.8796 -0.1551,-3.412 -0.4646,-4.5975 -0.3099,-1.1854 -0.7529,-2.0985 -1.3298,-2.7394 -0.5765,-0.6406 -1.2495,-1.0786 -2.0182,-1.3135 -0.7691,-0.235 -1.6127,-0.3524 -2.5311,-0.3524 -0.6834,0 -1.3456,0.0482 -1.9865,0.1443 -0.6406,0.0961 -1.2441,0.3042 -1.8102,0.6248 -0.5658,0.3203 -1.057,0.8115 -1.4737,1.4737 -0.4165,0.6622 -0.7475,1.5378 -0.9933,2.6271 -0.2455,1.0894 -0.3682,2.467 -0.3682,4.1329 0,2.136 0.2721,3.8501 0.8169,5.1424 0.5446,1.292 1.3349,2.2266 2.3709,2.8032 1.0358,0.5768 2.312,0.8651 3.8285,0.8651 z m 12.3667,1.4097 v -1.3777 l 2.6592,-0.5448 v -16.9163 l -2.6592,-0.5445 V 667.15 h 9.0349 c 1.1749,0 2.2481,0.1814 3.2198,0.5446 0.972,0.3631 1.7516,0.9184 2.3389,1.6662 0.5873,0.7475 0.881,1.7192 0.881,2.9154 0,1.0037 -0.1281,1.8527 -0.3844,2.5469 -0.2562,0.6942 -0.6032,1.2711 -1.0411,1.7303 -0.438,0.4592 -0.9238,0.849 -1.4579,1.1693 -0.534,0.3203 -1.0998,0.6089 -1.6979,0.8651 l 4.4532,7.3366 2.2428,0.6089 v 1.3777 h -2.9475 c -0.4912,0 -0.8598,-0.0749 -1.1055,-0.2243 -0.2455,-0.1496 -0.4859,-0.4059 -0.7209,-0.769 l -4.4532,-7.7533 h -2.9475 v 6.8241 l 2.6592,0.5448 v 1.3777 z m 5.4147,-10.5086 h 2.0183 c 1.004,0 1.8797,-0.1922 2.6272,-0.5769 0.7475,-0.3844 1.3351,-0.9184 1.7623,-1.6018 0.4271,-0.6835 0.6406,-1.4738 0.6406,-2.3709 0,-0.8757 -0.1443,-1.5753 -0.4326,-2.0985 -0.2883,-0.5233 -0.6568,-0.9131 -1.1052,-1.1693 -0.4484,-0.2566 -0.9292,-0.4218 -1.4417,-0.4967 -0.5128,-0.0748 -1.004,-0.1122 -1.4737,-0.1122 -0.3847,0 -0.8173,0.0162 -1.2977,0.0482 -0.4805,0.032 -0.9131,0.0694 -1.2975,0.112 z"
     style="fill:#1b1918;fill-rule:evenodd"
     id="path4" />
  <path
     d="m 301.0179,627.6602 c 0,-6.5497 -3.93,-9.4737 -12.6977,-12.8989 l -3.8299,-1.5114 c -10.2783,-4.0318 -17.3328,-9.8769 -17.3328,-20.1553 0,-11.5902 9.7751,-18.6447 22.5737,-18.6447 6.7524,0 12.0936,2.1164 16.4267,5.341 l -0.605,13.1018 h -6.0464 l -2.8224,-15.2173 6.4502,3.3256 v 5.0384 c -4.9372,-4.8372 -8.6668,-6.5513 -14.0081,-6.5513 -7.8605,0 -13.8059,3.9308 -13.8059,11.4892 0,6.3485 4.1311,10.0774 11.4885,12.8989 l 3.9306,1.5129 c 13.3021,5.1385 18.4421,10.9845 18.4421,20.4576 0,11.8915 -9.9772,19.1472 -23.784,19.1472 -7.5577,0 -14.9151,-2.4186 -19.551,-5.3404 l 0.605,-14.109 h 6.047 l 2.6199,15.5186 -6.5498,-2.82 v -4.8378 c 6.2467,4.535 9.6743,6.5495 16.5267,6.5495 9.5741,0 15.9226,-4.4331 15.9226,-12.2946 z"
     style="fill:#000000;fill-rule:evenodd;stroke:#000000;stroke-width:0.216;stroke-linecap:butt;stroke-linejoin:miter;stroke-dasharray:none"
     id="path6" />
  <path
     d="m 354.6114,639.7035 12.698,-1.5116 h 2.0154 l 12.4965,1.5116 v 4.03 h -27.2099 z m -19.8538,-22.6758 h 27.2096 l 1.6132,4.6368 H 333.1459 Z M 346.549,575.709 h 6.0463 l 23.1797,68.0245 h -9.3729 l -20.2563,-60.3659 h 2.3183 l -20.5591,60.3659 h -4.7363 z m -30.0316,63.9945 10.0781,-1.5116 h 2.0148 l 11.086,1.5116 v 4.03 h -23.1789 z"
     style="fill:#000000;fill-rule:evenodd;stroke:#000000;stroke-width:0.216;stroke-linecap:butt;stroke-linejoin:miter;stroke-dasharray:none"
     id="path8" />
  <path
     d="m 457.7259,575.9615 h 14.1081 v 4.0309 l -13.1009,1.5113 h -1.0072 z m -4.3331,36.2796 v -36.2796 h 9.17 C 462.26,586.1397 462.26,596.6207 462.26,607.202 v 5.0391 c 0,10.3803 0,20.8607 0.3028,31.2408 h -9.4729 c 0.3029,-10.1791 0.3029,-20.6586 0.3029,-31.2408 z m -8.7687,27.2099 12.0936,-1.5107 h 2.0154 l 13.1009,1.5107 v 4.0309 h -27.2099 z m -45.9539,-63.4895 h 8.969 l 24.6903,60.4659 h -3.4267 l 23.3802,-60.4659 h 5.341 l -26.3018,67.5204 h -4.939 z m -0.101,0 h 4.2321 l 0.9073,30.0322 v 37.4882 h -5.1394 z m -9.0699,63.4895 10.5822,-1.5107 h 2.0148 l 9.876,1.5107 v 4.0309 h -22.473 z m 0,-63.4895 h 13.302 v 5.5422 h -1.2085 l -12.0935,-1.5113 z"
     style="fill:#000000;fill-rule:evenodd;stroke:#000000;stroke-width:0.216;stroke-linecap:butt;stroke-linejoin:miter;stroke-dasharray:none"
     id="path10" />
  <path
     d="m 493.4972,607.4543 c 0,-10.3801 0,-20.8605 -0.3013,-31.2406 h 9.6743 c -0.3022,10.1782 -0.3022,20.6586 -0.3022,31.2406 v 5.0384 c 0,10.381 0,20.8613 0.3022,31.2414 h -9.6743 c 0.3013,-10.179 0.3013,-20.6585 0.3013,-31.2414 z m 5.5431,30.7376 13.1009,1.5113 v 4.0309 H 483.924 v -4.0309 l 13.1002,-1.5113 z M 483.924,580.2446 v -4.0309 h 28.2172 v 4.0309 l -13.1009,1.5114 h -2.0161 z"
     style="fill:#000000;fill-rule:evenodd;stroke:#000000;stroke-width:0.216;stroke-linecap:butt;stroke-linejoin:miter;stroke-dasharray:none"
     id="path12" />
  <path
     d="m 557.6822,607.9582 1.5114,-10.6817 h 4.5341 V 621.16 h -4.5341 l -1.5114,-11.1864 z m 19.1472,17.8377 -0.7053,17.938 H 538.131 v -5.0384 h 34.4656 l -4.5343,5.0384 3.123,-17.938 z M 560.9069,611.5875 H 538.1304 V 606.95 h 22.7765 z m 5.1393,-35.3742 4.535,5.0391 H 538.131 v -5.0391 h 35.977 l 0.7051,17.9387 h -5.6425 z m -32.4508,31.2408 c 0,-10.3795 0,-20.8605 -0.3013,-31.2408 h 9.675 c -0.3031,10.1784 -0.3031,20.6594 -0.3031,31.2408 v 3.8305 c 0,11.5895 0,22.069 0.3031,32.4493 h -9.675 c 0.3013,-10.1791 0.3013,-20.6588 0.3013,-31.2408 z m 4.5356,30.7382 v 5.5416 h -14.1088 v -4.0302 l 13.1009,-1.5114 z m -14.1088,-57.9472 v -4.0318 h 14.1088 v 5.5423 h -1.0079 z"
     style="fill:#000000;fill-rule:evenodd;stroke:#000000;stroke-width:0.216;stroke-linecap:butt;stroke-linejoin:miter;stroke-dasharray:none"
     id="path14" />
  <path
     d="m 329.109,190.3439 c -1.1856,0.4032 -2.4418,0.7568 -3.699,1.1169 l -0.9462,0.2694 c -0.3366,0.0954 -0.7209,0.2261 -1.0568,0.3583 -0.6809,0.278 -1.307,0.6004 -1.9074,0.94 -2.3802,1.3736 -4.4724,2.9289 -6.6505,4.344 -2.165,1.4222 -4.3699,2.7458 -6.6882,3.7937 -1.1459,0.5105 -2.37,1.0208 -3.5113,1.311 -1.1747,0.2944 -2.4106,0.4242 -3.6583,0.4267 -2.5032,-0.0118 -5.0358,-0.4766 -7.5085,-1.1553 -1.2382,-0.3397 -2.4623,-0.7459 -3.6699,-1.1974 -0.6035,-0.2288 -1.2032,-0.4675 -1.7965,-0.7202 l -0.7701,-0.3381 c 3.8823,-2.1251 7.5373,-4.6022 10.896,-7.4889 0.9078,-0.7881 1.7971,-1.6359 2.6464,-2.4617 0.8469,-0.8202 1.7297,-1.6178 2.6156,-2.4137 1.5757,-1.4135 3.1607,-2.8319 4.7158,-4.2876 0.4242,0.1307 1.3228,0.4085 1.4104,0.4296 l 0.2561,0.0525 0.4703,0.083 0.8955,0.126 c 0.5877,0.0728 1.1639,0.1307 1.7376,0.18 1.1309,0.1096 2.362,0.1362 3.2036,0.2622 0.9274,0.144 1.8541,0.4109 2.7332,0.8187 0.4437,0.1942 0.8695,0.4336 1.2828,0.6856 0.2075,0.1269 0.4085,0.2622 0.6019,0.4016 l 0.2818,0.2105 0.1307,0.105 0.0586,0.0483 0.0275,0.0236 0.007,0.006 0.002,7e-4 7e-4,9e-4 h 9e-4 c 0.0257,-0.0251 -0.0557,0.0563 0.057,-0.0564 l 1.1491,0.4415 c 2.4068,-0.1597 4.8638,0.1558 6.8275,1.2318 0.4846,0.2654 0.9305,0.584 1.2937,0.9323 0.1808,0.1722 0.3413,0.3552 0.4588,0.5252 0.0304,0.0406 0.0571,0.0836 0.0806,0.1251 -0.0948,0.0659 -0.213,0.1371 -0.3444,0.2044 -0.4672,0.2433 -1.0474,0.4625 -1.6336,0.6653 z m -41.5871,-5.2935 c 1.4191,-4.6131 4.1052,-8.7232 7.658,-11.8626 0.8819,-0.7921 1.8275,-1.5136 2.8028,-2.193 0.9993,-0.6793 2.0632,-1.3369 3.09,-2.0061 2.1031,-1.2704 4.2204,-2.514 6.4073,-3.5745 2.1743,-1.0825 4.3994,-2.0405 6.6529,-2.7505 1.1256,-0.3381 2.2564,-0.6558 3.3687,-0.8413 0.5564,-0.1081 1.1091,-0.174 1.6373,-0.2146 0.2685,-0.0235 0.5245,-0.0328 0.7688,-0.0306 0.1298,-0.006 0.2308,0.007 0.3428,0.0102 0.0313,9e-4 0.0486,0.004 0.0719,0.006 -0.1196,0.9243 -0.2629,1.8275 -0.5079,2.6579 -0.6168,2.226 -1.6562,4.334 -2.8607,6.3353 -2.471,3.9878 -5.6958,7.5037 -9.1108,10.7943 -1.7093,1.6507 -3.4773,3.2441 -5.2456,4.8558 -0.8828,0.8078 -1.7665,1.6185 -2.6292,2.4671 -0.8562,0.846 -1.6897,1.6538 -2.579,2.4397 -3.3302,2.9131 -7.0261,5.4639 -10.899,7.6014 -0.6738,-4.5505 -0.3193,-9.3382 1.0317,-13.6941 z m 22.9496,-5.7575 -0.002,0.002 c -0.0275,-0.01 -0.0455,-0.0165 0.002,-0.002 z m 12.8745,-10.6212 c 0.6035,0.3013 0.5549,0.4719 0.4375,0.8837 -0.1016,0.3554 -0.2551,0.8923 0.2434,1.3908 0.6927,0.6927 1.4277,0.4469 1.9662,0.2685 0.2059,-0.069 0.4023,-0.1347 0.58,-0.1502 0.0783,0.2106 0.0783,0.8029 0.0783,1.1701 0,0.9618 0,1.9567 0.7827,1.9567 0.2887,0 0.6435,-0.1276 1.0927,-0.2896 1.1693,-0.4204 2.0936,-0.6818 2.471,0.0735 1.3971,2.7935 -1.3401,6.1928 -7.7159,9.6484 -0.0759,0 -0.1502,0.003 -0.2263,0.004 l -0.3428,-0.2976 c -0.2458,-0.205 -0.4954,-0.3982 -0.7512,-0.5815 -0.5137,-0.3663 -1.0419,-0.7091 -1.6008,-1.0042 -1.1067,-0.6088 -2.3152,-1.0596 -3.5745,-1.3454 -1.3519,-0.2833 -2.3576,-0.3443 -3.4377,-0.5291 -0.5331,-0.0821 -1.062,-0.1731 -1.5763,-0.2716 l -0.2732,-0.0579 c 2.4444,-2.522 4.7274,-5.223 6.6255,-8.2286 0.6396,-1.0433 1.2382,-2.1195 1.7634,-3.2349 0.84,9e-4 2.4232,0.0759 3.458,0.5949 z m -88.1015,106.8207 c -0.1338,0.1165 -0.2623,0.2394 -0.3954,0.3568 1.1209,-1.747 2.1612,-3.5541 2.9963,-5.5336 0.4351,-1.0339 0.8178,-2.2034 1.0073,-3.407 0.1762,-1.1475 0.2583,-2.2285 0.3586,-3.325 l 0.5031,-6.473 c 0.3555,-4.2891 0.8478,-8.5487 1.5851,-12.7525 0.3647,-2.1 0.8242,-4.1897 1.3618,-6.2287 0.5824,-1.9405 1.3987,-3.9033 2.2863,-5.8391 3.6145,-7.755 7.9718,-15.2548 12.2971,-22.7279 3.9071,-6.7204 7.9466,-13.3718 12.0112,-20.0074 -0.6223,2.5297 -1.1475,5.0756 -1.577,7.6453 -0.5675,3.4305 -0.9574,6.9261 -0.905,10.4154 -0.0109,6.9223 -0.3849,13.8483 -1.3383,20.6994 -0.9518,6.8415 -2.4459,13.64 -4.9663,20.0628 -1.2695,3.2007 -2.77,6.3228 -4.6883,9.1743 -1.1663,1.747 -2.4758,3.3999 -3.9299,4.9075 -0.5918,0.4843 -1.1906,0.9618 -1.7916,1.437 -4.9068,3.843 -10.0868,7.423 -14.815,11.5957 z m 98.6547,-86.1966 c -0.1088,-0.6809 -0.3506,-1.0847 -0.5887,-1.4723 -0.2449,-0.3756 -0.5158,-0.6918 -0.8007,-0.9791 -0.5688,-0.5728 -1.1952,-1.0308 -1.8479,-1.4128 -1.865,-1.0723 -3.8954,-1.5709 -5.9148,-1.7375 3.3296,-1.9262 5.5729,-3.8336 6.6458,-5.6871 0.8893,-1.5349 0.9918,-3.0088 0.3053,-4.3817 -0.7184,-1.4361 -2.4192,-0.8256 -3.436,-0.4593 -0.284,0.1017 -0.5769,0.2066 -0.7506,0.2357 -0.0775,-0.2139 -0.0775,-0.8023 -0.0775,-1.1671 0,-0.962 0,-1.9568 -0.7827,-1.9568 -0.3242,0 -0.6199,0.0987 -0.9063,0.1941 -0.5496,0.1833 -0.8289,0.256 -1.1648,-0.079 -0.1558,-0.1557 -0.1471,-0.2638 -0.0446,-0.6223 0.1291,-0.4515 0.3452,-1.207 -0.8398,-1.7994 -1.0503,-0.5251 -2.5202,-0.6527 -3.4736,-0.6747 0.3717,-0.8611 0.7107,-1.7377 0.9714,-2.6464 0.7177,-2.3636 0.9642,-4.888 0.7215,-7.3691 l -0.7748,-0.2339 0.002,-0.01 c -0.0204,-0.002 -0.0353,-0.004 -0.0533,-0.006 l -0.002,-7e-4 v 7e-4 c -0.1839,-0.0227 -0.2769,-0.0242 -0.3827,-0.0307 -0.1227,-0.007 -0.2317,-0.009 -0.328,-0.007 -0.201,0.002 -0.4131,-9e-4 -0.5955,0.0148 -0.3827,0.0187 -0.7508,0.0533 -1.1044,0.1032 -0.7146,0.0932 -1.4033,0.2176 -2.0678,0.3812 -1.3448,0.303 -2.609,0.7335 -3.8581,1.1843 -2.4811,0.9314 -4.8105,2.0922 -7.0545,3.3608 -2.2579,1.2501 -4.3925,2.662 -6.5018,4.096 -1.0339,0.7536 -2.0632,1.4723 -3.0971,2.2526 -1.045,0.7998 -2.0554,1.6476 -2.9954,2.5719 -1.8832,1.8441 -3.5433,3.9308 -4.8418,6.2194 -1.2869,2.295 -2.2675,4.7471 -2.8812,7.2752 -0.6348,2.5218 -0.915,5.1094 -0.9345,7.6782 0.002,2.4499 0.2269,4.8567 0.7849,7.2729 -2.2987,2.1423 -3.9838,4.769 -5.4819,7.4232 -1.5389,2.7825 -2.8255,5.6761 -4.0324,8.5854 -2.4248,5.8187 -4.4099,11.771 -6.5427,17.6414 -2.1523,5.8544 -4.265,11.731 -7.0505,17.213 -1.4082,2.7505 -2.993,5.2919 -5.1314,7.4867 -0.4195,0.4484 -0.8602,0.8803 -1.3032,1.311 0.2551,-0.3561 0.5041,-0.7155 0.7466,-1.0794 1.956,-2.9094 3.4791,-6.0792 4.7644,-9.3205 2.5523,-6.5049 4.055,-13.3575 5.0131,-20.2436 0.9595,-6.8932 1.3354,-13.8555 1.3463,-20.8044 -0.0517,-3.4516 0.3319,-6.8799 0.8939,-10.2884 0.5691,-3.4041 1.3125,-6.7932 2.2229,-10.1156 l 0.5994,-2.1901 -1.3023,1.8675 h -9e-4 c -2.4874,3.5518 -4.9051,7.1461 -7.2908,10.7645 -2.3858,3.6176 -4.7651,7.2423 -7.0598,10.9217 -4.5883,7.3645 -9.1013,14.7689 -12.9585,22.6445 -0.9394,1.9873 -1.8253,4.0121 -2.5142,6.2139 -0.5932,2.1375 -1.0902,4.2749 -1.4949,6.4353 -0.8342,4.3117 -1.3157,8.6668 -1.7055,13.0021 l -0.5314,6.473 c -0.1009,1.0583 -0.1901,2.1368 -0.349,3.1292 -0.1582,0.933 -0.4368,1.8377 -0.8109,2.81 -1.4191,3.6708 -3.3484,7.3096 -5.0273,11.086 -2.6995,2.9469 -5.0892,6.1959 -6.9372,9.8011 -0.3561,0.7161 -0.688,1.4465 -1.0237,2.1743 -0.3013,0.7421 -0.6347,1.4754 -0.9103,2.2308 -0.2543,0.7591 -0.562,1.513 -0.7716,2.2831 l -0.6608,2.3081 c -0.771,3.1065 -1.4088,6.2719 -1.7008,9.4957 -0.3333,3.2208 -0.3499,6.4761 -0.1855,9.7517 0.1065,1.6359 0.2592,3.2748 0.4892,4.9233 1.1948,9.3954 6.9307,3.9317 4.7416,-3.3899 -0.1871,-0.7218 -0.3741,-1.4473 -0.5432,-2.1774 -0.6722,-2.9283 -1.0119,-5.9454 -1.1137,-8.9808 -0.0344,-3.0323 0.1519,-6.0894 0.6716,-9.1068 0.5455,-3.0156 1.2679,-5.9884 2.5499,-8.7787 1.25,-2.7904 2.8343,-5.4492 4.7238,-7.8927 1.8956,-2.4359 4.0511,-4.6838 6.3742,-6.747 4.6329,-4.16 9.8676,-7.589 14.9668,-11.2567 2.5391,-1.8535 5.0735,-3.7586 7.3629,-6.0088 1.1435,-1.1216 2.2415,-2.3161 3.1918,-3.6475 0.9518,-1.3148 1.7783,-2.6853 2.5437,-4.0848 1.5522,-2.7887 2.8326,-5.6894 4.0209,-8.6105 1.2021,-2.9171 2.2651,-5.8766 3.3083,-8.8337 2.0782,-5.9188 4.0757,-11.8406 6.2742,-17.6576 1.106,-2.9062 2.3325,-5.7543 3.703,-8.5141 1.3126,-2.5988 2.827,-5.1134 4.7761,-7.1917 l 0.009,0.005 0.4468,0.2276 0.8994,0.4353 c 0.6026,0.2849 1.2117,0.5534 1.8251,0.8123 1.229,0.5143 2.479,0.9809 3.7556,1.3838 2.5461,0.8165 5.2072,1.3714 7.9522,1.4568 1.3713,0.0328 2.766,-0.0712 4.1427,-0.3805 1.4097,-0.3264 2.6238,-0.8132 3.8847,-1.3337 2.4882,-1.0536 4.8245,-2.3857 7.074,-3.7859 2.2502,-1.3885 4.4183,-2.9085 6.6139,-4.1015 0.5471,-0.2926 1.0965,-0.5555 1.6358,-0.7592 0.2769,-0.1001 0.515,-0.1768 0.8101,-0.2527 l 0.9509,-0.2465 c 1.272,-0.3319 2.5493,-0.6561 3.8565,-1.0645 0.6565,-0.2121 1.3148,-0.4329 2.0217,-0.775 0.353,-0.1775 0.7239,-0.3772 1.1333,-0.7379 0.2003,-0.1824 0.4226,-0.4205 0.6041,-0.7757 0.0439,-0.0892 0.0839,-0.1886 0.1198,-0.2842 0.0384,-0.1214 0.069,-0.2536 0.0892,-0.3818 0.0251,-0.2264 0.0198,-0.436 -0.005,-0.606 z"
     style="fill:#000000;fill-rule:evenodd;stroke:#000000;stroke-width:0.216;stroke-linecap:butt;stroke-linejoin:miter;stroke-dasharray:none"
     id="path16" />
  <path
     d="m 610.8045,348.0306 c 0.0422,0.5251 0.1635,1.1326 0.3044,1.7376 0.2873,1.2179 0.6559,2.471 1.0184,3.7265 l 0.2738,0.9447 c 0.0987,0.3366 0.1919,0.7311 0.2569,1.0863 0.1276,0.724 0.1862,1.4262 0.2183,2.1149 0.0994,2.7465 -0.1065,5.345 -0.1486,7.9437 -0.0548,2.5883 -0.007,5.1602 0.3372,7.6806 0.1762,1.2421 0.3945,2.5509 0.7552,3.6717 0.3743,1.1513 0.9197,2.2675 1.582,3.3265 1.3383,2.1148 3.0775,4.0136 4.9663,5.7473 0.9453,0.8688 1.9395,1.6906 2.9639,2.474 0.5143,0.3907 1.0348,0.771 1.5639,1.1397 l 0.6958,0.4728 c -0.2613,-4.4185 -0.104,-8.8305 0.558,-13.2097 0.1855,-1.1881 0.4307,-2.3911 0.6803,-3.5495 0.2449,-1.1537 0.4508,-2.3254 0.6558,-3.4995 0.3601,-2.0851 0.7193,-4.1804 1.128,-6.2718 -0.3366,-0.2895 -1.0488,-0.9041 -1.1131,-0.9673 l -0.1809,-0.1879 -0.3199,-0.3555 -0.5824,-0.6918 c -0.3734,-0.4586 -0.7286,-0.9174 -1.0754,-1.3766 -0.6935,-0.8995 -1.3705,-1.9287 -1.924,-2.5753 -0.6144,-0.7091 -1.3328,-1.3525 -2.1453,-1.8801 -0.4007,-0.2731 -0.8289,-0.5063 -1.2626,-0.7239 -0.2174,-0.1072 -0.4391,-0.2059 -0.6596,-0.2958 l -0.3282,-0.1269 -0.1579,-0.0548 -0.0721,-0.0235 -0.0344,-0.0115 -0.009,-0.003 -0.002,-6e-4 -9e-4,-9e-4 h -7e-4 c 0.008,-0.0351 -0.0173,0.0776 0.018,-0.0781 l -0.984,-0.7397 c -1.1426,-2.1235 -2.7159,-4.038 -4.6703,-5.1298 -0.483,-0.2694 -0.9893,-0.4791 -1.477,-0.6013 -0.2418,-0.0617 -0.4821,-0.101 -0.6886,-0.1103 -0.0511,-0.004 -0.1019,-0.003 -0.1489,-10e-4 -0.005,0.1151 -0.004,0.2536 0.01,0.4007 z m 19.5668,11.6591 -9e-4,0.002 c 0.022,0.0179 0.0368,0.0304 9e-4,-0.002 z m -3.7438,30.6513 c 4.2141,-1.847 8.0822,-4.6914 11.055,-8.1485 3.1549,-3.6531 5.2112,-8.112 5.9829,-12.7894 0.2028,-1.1686 0.3124,-2.3529 0.3694,-3.5395 0.0455,-1.2085 0.0368,-2.4585 0.0588,-3.6834 -0.04,-2.4576 -0.1112,-4.9113 -0.3743,-7.3276 -0.2379,-2.4177 -0.6081,-4.8119 -1.2036,-7.0983 -0.3115,-1.1333 -0.6419,-2.2597 -1.0763,-3.3014 -0.2044,-0.5291 -0.4415,-1.0316 -0.688,-1.5004 -0.123,-0.2412 -0.2512,-0.4626 -0.3819,-0.6676 -0.0643,-0.1136 -0.1284,-0.192 -0.191,-0.2858 -0.0173,-0.0251 -0.0291,-0.0384 -0.043,-0.057 -0.7193,0.5924 -1.4089,1.1927 -1.982,1.8415 -1.5582,1.7048 -2.7926,3.7054 -3.8492,5.789 -2.0656,4.2117 -3.332,8.8117 -4.3064,13.4522 -0.4899,2.3246 -0.9017,4.6704 -1.3275,7.0239 -0.2152,1.1773 -0.4328,2.3567 -0.6935,3.5379 -0.2629,1.1748 -0.5041,2.3106 -0.6974,3.4814 -0.6997,4.369 -0.8985,8.8556 -0.652,13.273 z m 5.9048,-47.2015 c -0.5762,-0.3506 -0.6951,-0.2192 -0.9816,0.0994 -0.2474,0.2747 -0.6205,0.6896 -1.307,0.5322 -0.9549,-0.2198 -1.1382,-0.9728 -1.272,-1.524 -0.0517,-0.2105 -0.1003,-0.4124 -0.1815,-0.5713 -0.2192,0.0455 -0.7217,0.3608 -1.0325,0.5558 -0.8156,0.5103 -1.6576,1.0395 -2.0741,0.3756 -0.1535,-0.2434 -0.2331,-0.6128 -0.335,-1.0794 -0.2644,-1.2131 -0.5338,-2.1359 -1.3744,-2.0545 -3.1089,0.3007 -4.535,4.4254 -4.0771,11.663 0.0406,0.0634 0.0774,0.1284 0.1174,0.1926 l 0.4337,0.134 c 0.3044,0.0985 0.6011,0.2072 0.8922,0.327 0.583,0.2403 1.1546,0.5056 1.7017,0.8227 1.1027,0.6152 2.1273,1.3986 3.0382,2.3136 0.9581,0.9949 1.5436,1.8151 2.2731,2.6314 0.3539,0.4078 0.7106,0.8087 1.0683,1.1914 l 0.1941,0.201 c 0.8385,-3.4101 1.9138,-6.7789 3.4525,-9.9849 0.544,-1.0958 1.1382,-2.175 1.8042,-3.2113 -0.4461,-0.7116 -1.3518,-2.0124 -2.3402,-2.6143 z m -23.0803,2.0132 c 0.6348,-0.2693 1.1051,-0.2786 1.5606,-0.2833 0.4486,0.008 0.8595,0.0703 1.2547,0.158 0.7874,0.1783 1.5076,0.465 2.1783,0.8156 1.9003,1.0103 3.4008,2.4656 4.614,4.0888 -0.1363,-3.8439 0.2879,-6.7579 1.2883,-8.6511 0.8281,-1.5695 2.0233,-2.439 3.551,-2.587 1.5984,-0.1542 1.9842,1.6125 2.2145,2.6675 0.0641,0.2951 0.1307,0.5988 0.1988,0.7608 0.2223,-0.047 0.72,-0.3601 1.0292,-0.5542 0.8147,-0.5103 1.6585,-1.0395 2.0741,-0.3756 0.1721,0.2746 0.2458,0.5777 0.317,0.871 0.1369,0.5636 0.223,0.8384 0.6856,0.9447 0.2145,0.0495 0.3015,-0.0155 0.5511,-0.2926 0.314,-0.349 0.8391,-0.9339 1.9709,-0.245 1.0026,0.6122 1.8909,1.7901 2.4161,2.5852 0.5323,-0.7716 1.0949,-1.5246 1.7266,-2.2275 1.6209,-1.8644 3.6286,-3.4141 5.8608,-4.5263 l 0.6091,0.5322 0.007,-0.006 c 0.0133,0.0164 0.0219,0.0273 0.0335,0.0415 l 10e-4,0.002 v 6e-4 c 0.1167,0.1433 0.1675,0.2217 0.2294,0.3077 0.0713,0.1001 0.1307,0.1917 0.1802,0.2747 0.1047,0.1713 0.2199,0.349 0.3035,0.5119 0.187,0.3341 0.3539,0.6654 0.4985,0.9908 0.3016,0.6552 0.5614,1.3048 0.7759,1.9554 0.4577,1.2999 0.7639,2.5991 1.0457,3.8968 0.5274,2.5979 0.7825,5.1871 0.8985,7.7621 0.1416,2.5768 0.079,5.1362 -0.0166,7.6855 -0.0892,1.2757 -0.1518,2.5295 -0.2629,3.8203 -0.1229,1.3095 -0.3044,2.6156 -0.5886,3.904 -0.562,2.5752 -1.4479,5.0899 -2.6973,7.406 -1.2615,2.3081 -2.8177,4.4427 -4.6341,6.3046 -1.7996,1.8776 -3.8423,3.4893 -6.0089,4.87 -2.0749,1.2986 -4.2321,2.3857 -6.5724,3.1951 l -1.4064,0.009 c 0.0155,-0.0557 0.0382,-0.1105 0.053,-0.1659 l -0.008,-0.006 -0.4298,-0.2574 -0.8477,-0.5307 c -0.5604,-0.3601 -1.1122,-0.7326 -1.6576,-1.1146 -1.088,-0.7686 -2.1479,-1.5802 -3.1669,-2.4468 -2.0437,-1.7241 -3.9275,-3.6832 -5.4578,-5.9649 -0.7561,-1.1435 -1.4082,-2.3809 -1.8785,-3.7123 -0.4719,-1.3674 -0.7044,-2.6542 -0.933,-3.9987 -0.4297,-2.6675 -0.5415,-5.3555 -0.5502,-8.0057 -0.0171,-2.6438 0.1174,-5.2871 -0.0368,-7.7816 -0.0431,-0.619 -0.1119,-1.224 -0.2261,-1.7891 -0.0626,-0.2873 -0.1238,-0.53 -0.2161,-0.8211 l -0.2967,-0.9361 c -0.3944,-1.254 -0.7982,-2.5078 -1.1459,-3.833 -0.1697,-0.6682 -0.3317,-1.3445 -0.4171,-2.125 -0.0375,-0.3927 -0.0657,-0.8138 0.0226,-1.3517 0.0486,-0.2669 0.1316,-0.5815 0.3366,-0.9243 0.0526,-0.0845 0.1151,-0.1715 0.1777,-0.2529 0.0823,-0.0963 0.1777,-0.1917 0.2756,-0.2778 0.1777,-0.1409 0.3592,-0.2489 0.5158,-0.3177 z"
     style="fill:#000000;fill-rule:evenodd;stroke:#000000;stroke-width:0.216;stroke-linecap:butt;stroke-linejoin:miter;stroke-dasharray:none"
     id="path18" />
  <path
     d="m 626.7844,391.167 c -2.8404,6.3687 -6.2389,12.4581 -10.1587,18.2408 -0.9877,1.4402 -2.0061,2.8599 -3.076,4.2453 -1.0589,1.3886 -2.2009,2.7434 -3.2905,4.0732 -2.2,2.6667 -4.3362,5.3568 -6.2724,8.169 -3.9175,5.597 -6.8151,11.7969 -9.113,18.2003 -2.2786,6.4228 -3.9637,13.0584 -5.4813,19.7395 -0.3452,1.6805 -0.6935,3.3596 -1.0645,5.0336 -0.3539,1.6791 -0.6489,3.3735 -0.976,5.0585 -0.1659,0.8494 -0.3068,1.6776 -0.4939,2.5431 l -0.5855,2.6511 c -0.1668,0.889 -0.483,1.7454 -0.7202,2.6189 l -0.3842,1.3033 c -0.1369,0.4311 -0.3084,0.8522 -0.4617,1.2795 -2.3647,6.8746 -6.5467,13.0587 -11.6647,18.0984 -5.1682,5.0251 -11.3044,8.8783 -17.7938,11.6592 -6.5034,2.7638 -13.3217,4.6719 -20.3152,5.3332 l -0.0994,-0.7763 c 6.7016,-1.5107 13.2003,-3.9268 19.246,-7.0279 6.0321,-3.1245 11.6279,-7.0569 16.1941,-11.9229 2.2963,-2.4137 4.3282,-5.0571 6.0408,-7.8841 0.8735,-1.4049 1.6077,-2.8843 2.3545,-4.3557 l 0.9813,-2.2737 c 0.3328,-0.7539 0.5635,-1.5522 0.8517,-2.3247 0.1329,-0.3905 0.2849,-0.7741 0.403,-1.1702 l 0.3297,-1.1967 c 0.2019,-0.8014 0.4827,-1.5811 0.619,-2.4006 l 0.4963,-2.4342 0.4892,-2.561 c 0.3364,-1.7148 0.6401,-3.4352 1.0042,-5.1462 0.3685,-1.7117 0.7599,-3.4172 1.1544,-5.1227 1.6404,-6.8111 3.7351,-13.5464 6.4556,-20.0569 2.7685,-6.4861 6.2585,-12.7197 10.5596,-18.301 2.1415,-2.7926 4.4589,-5.4218 6.8038,-7.9852 2.3529,-2.5475 4.5312,-5.1602 6.5709,-7.9436 4.0584,-5.55 7.6555,-11.4923 10.6816,-17.6804 z"
     style="fill:#000000;fill-rule:evenodd;stroke:#000000;stroke-width:0.216;stroke-linecap:butt;stroke-linejoin:miter;stroke-dasharray:none"
     id="path20" />
  <path
     d="m 583.5514,475.9434 c 0.3155,-0.1442 0.7663,-0.3929 1.1475,-0.6161 0.3982,-0.2332 0.7896,-0.4843 1.1788,-0.7413 0.7747,-0.522 1.5182,-1.0964 2.2384,-1.6975 1.4308,-1.2147 2.7208,-2.5923 3.8312,-4.0974 0.5598,-0.75 1.0623,-1.5396 1.5216,-2.3529 0.2185,-0.418 0.4446,-0.8092 0.6591,-1.2492 l 0.6388,-1.3369 c 0.8398,-1.7907 1.6318,-3.6278 2.474,-5.4764 1.657,-3.7045 3.7046,-7.4131 6.3226,-10.619 1.3002,-1.6062 2.6715,-3.1479 4.139,-4.5734 1.4472,-1.4337 2.8936,-2.8044 4.3353,-4.2046 5.7577,-5.5767 11.4055,-11.2592 16.6043,-17.3328 2.5844,-3.0456 5.0664,-6.1795 7.2893,-9.4864 2.1752,-3.3178 4.1662,-6.8322 5.136,-10.655 l 0.002,-0.006 0.0681,-0.2285 0.0344,0.0384 c 1.0332,1.167 0.2833,0.3263 0.512,0.5877 l -0.0117,0.01 -0.0291,0.0242 -0.0601,0.0517 -0.1214,0.1041 -0.2443,0.209 -0.4883,0.418 -0.9775,0.8357 -1.9631,1.664 -3.951,3.2977 c -2.6487,2.1814 -5.3202,4.3362 -8.0525,6.4197 -2.7192,2.1155 -5.6151,3.9752 -8.325,6.0417 -2.7252,2.0585 -5.37,4.2257 -7.884,6.5362 -0.6355,0.5707 -1.2374,1.1764 -1.8573,1.7628 -0.6223,0.5846 -1.2305,1.1834 -1.8135,1.8064 l -1.7736,1.8455 -1.6938,1.9185 c -0.5762,0.6292 -1.1153,1.2899 -1.6423,1.9607 l -1.599,1.9974 -1.4918,2.0765 c -0.5032,0.6887 -0.9986,1.3822 -1.4386,2.1133 -3.7132,5.7098 -6.6021,11.9793 -8.2215,18.5978 l -0.7608,-0.1832 c 1.6429,-6.7155 4.5718,-13.068 8.3271,-18.8428 0.4456,-0.7395 0.9465,-1.4402 1.4544,-2.1359 l 1.5076,-2.1 1.6154,-2.017 c 0.5323,-0.6772 1.0769,-1.3439 1.6585,-1.9795 l 1.7095,-1.9365 1.7884,-1.8619 c 0.5893,-0.6286 1.2023,-1.2327 1.8291,-1.8222 0.6255,-0.5902 1.232,-1.2021 1.8724,-1.7767 2.535,-2.3294 5.1994,-4.5122 7.9435,-6.5857 2.7443,-2.0905 5.6268,-3.94 8.3209,-6.0377 2.7199,-2.074 5.3859,-4.2242 8.029,-6.4018 l 3.9448,-3.2919 1.9591,-1.6609 0.9769,-0.8344 0.4874,-0.418 0.2443,-0.2097 0.1238,-0.1049 0.0617,-0.0524 0.0321,-0.0275 0.0196,-0.0164 c 0.2396,0.2545 -0.5001,-0.5979 0.5431,0.5644 l 0.1025,-0.1894 -0.002,0.005 c -0.8908,4.0229 -2.8233,7.668 -4.9295,11.1136 -2.1556,3.4296 -4.5693,6.678 -7.0858,9.8345 -5.0594,6.2937 -10.5726,12.1921 -16.1768,17.9653 -1.3956,1.4417 -2.8208,2.8796 -4.1835,4.3158 -1.3714,1.416 -2.6267,2.922 -3.8064,4.4733 -2.3722,3.1041 -4.1396,6.544 -5.6519,10.2119 -0.767,1.8298 -1.5082,3.7061 -2.3152,5.5773 l -0.6174,1.4011 c -0.2106,0.4688 -0.4682,0.958 -0.7014,1.4371 -0.4985,0.9493 -1.0487,1.8745 -1.6624,2.7542 -1.2203,1.7643 -2.6456,3.3806 -4.2328,4.8152 -0.7985,0.7124 -1.6265,1.3918 -2.4985,2.0204 -0.4399,0.3099 -0.8837,0.615 -1.3438,0.9038 -0.4775,0.2951 -0.8948,0.5534 -1.4825,0.8485 z"
     style="fill:#000000;fill-rule:evenodd;stroke:#000000;stroke-width:0.216;stroke-linecap:butt;stroke-linejoin:miter;stroke-dasharray:none"
     id="path22" />
  <path
     d="m 584.7388,470.3244 -0.7827,-0.0109 c 0.004,-0.2489 0.2982,-25.0839 -3.4807,-41.0034 -3.9353,-16.572 3.5949,-54.6192 11.2968,-65.9973 l 0.2654,-0.392 0.3357,0.335 c 0.2105,0.2112 0.2387,0.2387 -0.7053,13.6134 -0.2911,4.1116 -0.594,8.403 -0.7959,11.635 -0.4282,6.8508 1.0745,21.6055 2.1712,32.3803 0.2731,2.6814 0.519,5.0945 0.6998,7.0427 0.893,9.6435 -0.8462,17.134 -0.8642,17.2076 l -0.7608,-0.1799 c 0.0171,-0.0737 1.7259,-7.4468 0.8454,-16.9558 -0.1809,-1.9465 -0.4258,-4.3573 -0.6989,-7.0357 -1.0998,-10.8005 -2.6056,-25.5935 -2.1737,-32.5087 0.2028,-3.2324 0.5048,-7.5271 0.7952,-11.641 0.335,-4.7402 0.6787,-9.6038 0.7961,-11.8886 -7.3589,12.5076 -14.2178,48.3138 -10.446,64.2035 3.8024,16.0149 3.5057,40.9462 3.5026,41.1958 z"
     style="fill:#000000;fill-rule:evenodd;stroke:#000000;stroke-width:0.216;stroke-linecap:butt;stroke-linejoin:miter;stroke-dasharray:none"
     id="path24" />
  <path
     d="m 409.6875,310.4382 c 0,0 -22.3148,-23.7512 -23.5107,-43.8518 -1.1968,-20.1006 5.9822,-37.3308 28.2367,-47.3808 22.2544,-10.0497 46.184,5.5041 52.6452,16.0329 6.4611,10.5289 11.0078,31.8269 2.8717,52.4065 -8.1361,20.5796 -13.0414,32.3044 -29.1939,49.8932 -0.5542,0.6035 -1.1006,1.1946 -1.6413,1.7792 z m 34.997,111.9902 c 18.6657,22.9731 13.2814,39.8426 12.7429,44.6891 -0.5384,4.8456 -6.1018,28.3565 -30.5103,34.1 -24.4086,5.7426 -38.0486,-5.0258 -45.5861,-15.4358 -7.5382,-10.4083 -10.0506,-31.5867 -3.9486,-55.8151 6.1018,-24.2284 26.7417,-50.0734 26.7417,-50.0734 0,0 21.8953,19.5621 40.5604,42.5352 z m 111.0941,42.1767 V 241.6997 L 449.71,349.7421 l -8.9204,-8.7607 c 4.002,-4.0402 7.3403,-7.4583 8.9204,-9.1867 5.7428,-6.2811 13.7835,-16.1524 22.3266,-31.7071 8.5425,-15.5539 13.3287,-38.0479 9.1411,-59.7045 -4.1882,-21.6565 -29.1947,-47.7391 -60.303,-45.5861 -31.1085,2.1542 -49.7736,19.1441 -55.7565,39.7237 -5.9822,20.5796 -6.4604,39.7237 12.4441,61.4991 10.665,12.2853 33.4386,35.8792 51.2653,54.1136 -6.5951,6.765 -11.3734,11.3086 -13.6025,13.3858 L 291.6391,241.6997 v 222.7707 l -3.8135,2.1978 v 1.7947 h 41.6373 v -1.7492 l -2.8716,-2.5133 V 301.0449 c 0,0 75.3787,76.9341 75.2589,76.8149 -5.8624,7.7769 -34.6977,31.1086 -36.4926,84.2328 -1.7947,53.1234 77.532,85.0693 110.555,33.7399 33.0237,-51.3289 -15.7934,-88.0609 -15.7934,-88.0609 l -43.4038,-42.7841 c 2.5718,-2.5444 7.8527,-7.7745 13.5141,-13.4208 13.0976,13.3848 23.1899,23.5413 23.1899,23.5413 l 72.3873,-73.105 v 163.1397 l -3.2311,1.5255 v 1.7947 h 35.4461 v -2.3325 z"
     style="fill:#000000;fill-rule:evenodd;stroke:#000000;stroke-width:0.216;stroke-linecap:butt;stroke-linejoin:miter;stroke-dasharray:none"
     id="path26" />
</svg>
