<?xml version="1.0" encoding="UTF-8" standalone="no"?>
<svg
   version="1.1"
   width="850.39368pt"
   height="850.39368pt"
   id="svg30"
   viewBox="0 0 850.39368 850.39368"
   sodipodi:docname="LOGO SAMIE NỀN MÀU CHỮ TRẮNG NGANG.cdr"
   xmlns:inkscape="http://www.inkscape.org/namespaces/inkscape"
   xmlns:sodipodi="http://sodipodi.sourceforge.net/DTD/sodipodi-0.dtd"
   xmlns="http://www.w3.org/2000/svg"
   xmlns:svg="http://www.w3.org/2000/svg">
  <defs
     id="defs34" />
  <sodipodi:namedview
     id="namedview32"
     pagecolor="#ffffff"
     bordercolor="#000000"
     borderopacity="0.25"
     inkscape:showpageshadow="2"
     inkscape:pageopacity="0.0"
     inkscape:pagecheckerboard="0"
     inkscape:deskcolor="#d1d1d1"
     inkscape:document-units="pt" />
  <path
     d="M 1.6393,1.6758 V 846.1757 H 847.6396 V 1.6758 Z"
     style="fill:#003c20;fill-rule:evenodd;stroke:#1b1918;stroke-width:0.5;stroke-linecap:butt;stroke-linejoin:miter;stroke-dasharray:none"
     id="path2" />
  <path
     d="m 319.8555,495.1757 -6.7258,-20.5914 -2.1039,-0.5519 v -1.3796 h 8.2435 v 1.4142 l -3.0008,0.5862 4.6562,14.9695 0.3796,1.4142 h 0.2069 l 0.4484,-1.4831 4.415,-12.2102 -0.9658,-2.7247 -2.5869,-0.5519 v -1.4142 h 8.8299 v 1.4142 l -3.1388,0.6208 5.5185,14.9003 0.4142,1.3799 h 0.2069 l 0.3447,-1.3799 4.1046,-14.9349 -3.0351,-0.5862 v -1.4142 h 7.45 v 1.4142 l -2.1384,0.5519 -6.0015,20.5568 h -2.1039 l -5.4499,-13.9691 -0.2415,-1.1035 h -0.207 l -0.2412,1.1035 -5.1049,13.9691 z m 25.2133,-0.1723 v -1.4831 l 2.863,-0.5865 v -18.2114 l -2.863,-0.5865 v -1.4831 h 15.7972 v 5.6565 h -1.69 l -0.7243,-3.7596 h -4.1734 l -3.3803,0.207 v 7.8987 h 5.4496 l 0.5176,-2.035 h 1.4485 v 5.8981 h -1.4485 l -0.5176,-2.035 h -5.4496 v 8.1745 c 0.4368,0.1148 1.0116,0.2069 1.7246,0.2758 0.7129,0.0692 1.4025,0.1035 2.0695,0.1035 h 4.0354 l 0.7589,-3.6904 h 1.69 v 5.6565 z m 19.7291,0 v -1.4831 l 2.863,-0.5865 v -18.1771 l -2.863,-0.6208 v -1.4831 h 10.1753 c 3.2652,0 5.8521,0.8969 7.7604,2.6903 1.9085,1.7935 2.863,4.438 2.863,7.9331 0,2.5523 -0.4601,4.7024 -1.3797,6.4499 -0.9198,1.7476 -2.2765,3.064 -4.0699,3.9493 -1.7938,0.8852 -4.0128,1.328 -6.6572,1.328 z m 9.1749,-1.7935 c 1.4026,0 2.6215,-0.1839 3.6561,-0.5519 1.0347,-0.3679 1.8797,-0.9485 2.5351,-1.7419 0.6553,-0.7934 1.144,-1.8107 1.466,-3.0526 0.3218,-1.2416 0.4828,-2.7363 0.4828,-4.4838 0,-1.4948 -0.1667,-2.7882 -0.5,-3.8804 -0.3334,-1.0922 -0.8337,-2.0004 -1.5004,-2.7247 -0.667,-0.7245 -1.512,-1.2591 -2.5353,-1.6038 -1.0231,-0.345 -2.236,-0.5176 -3.6389,-0.5176 -0.6667,0 -1.2761,0.0173 -1.828,0.0519 -0.5519,0.0346 -1.0463,0.0978 -1.4831,0.1896 v 17.9702 c 0.345,0.0919 0.8337,0.1724 1.4658,0.2416 0.6324,0.0688 1.2591,0.1034 1.8799,0.1034 z m 15.0384,1.7935 v -1.4831 l 2.863,-0.5865 v -18.1771 l -2.863,-0.6208 v -1.4831 h 10.1752 c 3.2653,0 5.8522,0.8969 7.7604,2.6903 1.9086,1.7935 2.863,4.438 2.863,7.9331 0,2.5523 -0.46,4.7024 -1.3796,6.4499 -0.9198,1.7476 -2.2765,3.064 -4.07,3.9493 -1.7937,0.8852 -4.0127,1.328 -6.6571,1.328 z m 9.1749,-1.7935 c 1.4026,0 2.6215,-0.1839 3.6561,-0.5519 1.0347,-0.3679 1.8797,-0.9485 2.535,-1.7419 0.6554,-0.7934 1.1441,-1.8107 1.4661,-3.0526 0.3217,-1.2416 0.4827,-2.7363 0.4827,-4.4838 0,-1.4948 -0.1666,-2.7882 -0.5,-3.8804 -0.3333,-1.0922 -0.8337,-2.0004 -1.5004,-2.7247 -0.667,-0.7245 -1.512,-1.2591 -2.5353,-1.6038 -1.023,-0.345 -2.2359,-0.5176 -3.6388,-0.5176 -0.6667,0 -1.2762,0.0173 -1.8281,0.0519 -0.5519,0.0346 -1.0462,0.0978 -1.4831,0.1896 v 17.9702 c 0.345,0.0919 0.8337,0.1724 1.4658,0.2416 0.6325,0.0688 1.2592,0.1034 1.88,0.1034 z m 15.0383,1.7935 v -1.5177 l 2.8285,-0.5173 v -18.2806 l -2.8285,-0.5173 v -1.5177 h 8.6576 v 1.5177 l -2.8284,0.5173 v 18.2806 l 2.8284,0.5173 v 1.5177 z m 12.4861,0 v -1.4488 l 2.3457,-0.5516 v -18.3498 l -2.1731,-0.4827 v -1.5177 h 5.0358 l 11.2099,17.1422 0.5173,1.035 h 0.1377 v -16.1768 l -2.3453,-0.5516 v -1.4488 h 6.8295 v 1.4488 l -2.3111,0.5516 v 20.3502 h -2.8627 l -11.2788,-17.246 -0.4484,-0.9312 h -0.1381 v 16.1768 l 2.4146,0.5516 v 1.4488 z m 34.9058,0.3793 c -3.2652,0 -5.7716,-0.891 -7.5192,-2.6731 -1.7475,-1.7819 -2.6214,-4.6505 -2.6214,-8.6057 0,-1.6784 0.2588,-3.2363 0.7761,-4.6735 0.5173,-1.4371 1.2532,-2.6903 2.2073,-3.7596 0.9544,-1.0692 2.1155,-1.9085 3.4838,-2.518 1.3683,-0.6091 2.903,-0.9139 4.6046,-0.9139 1.7705,0 3.2136,0.1265 4.3288,0.3793 1.1151,0.2531 1.8796,0.483 2.2938,0.69 v 5.3461 h -1.6557 l -1.0004,-3.7942 c -0.4827,-0.1607 -1.1151,-0.2987 -1.8969,-0.4138 -0.7818,-0.1148 -1.5293,-0.1724 -2.242,-0.1724 -2.6903,0 -4.6045,0.7532 -5.7429,2.2592 -1.1382,1.5061 -1.7073,3.9147 -1.7073,7.2261 0,2.0925 0.2358,3.8631 0.7072,5.3116 0.4714,1.4488 1.2299,2.5409 2.2762,3.2768 1.0463,0.7359 2.4548,1.1035 4.2253,1.1035 0.7589,0 1.3913,-0.0342 1.897,-0.1034 0.506,-0.0689 0.9601,-0.178 1.3626,-0.3277 0.4022,-0.1494 0.8104,-0.339 1.2243,-0.5689 v -6.4157 l -2.4489,-0.6208 v -1.483 h 6.795 v 1.7246 l -1.4142,0.2758 v 9.0714 h -1.2416 l -0.7589,-0.9312 h -0.4484 c -0.4368,0.2758 -1.0692,0.5633 -1.8972,0.8623 -0.8277,0.2988 -2.0234,0.4482 -3.587,0.4482 z m 19.3842,-0.3793 v -1.4831 l 2.863,-0.5865 v -18.2114 l -2.863,-0.5865 v -1.4831 h 8.4849 c 1.7017,0 3.1907,0.184 4.4669,0.5519 1.2761,0.3679 2.2648,0.9714 2.9661,1.8108 0.7013,0.8393 1.052,1.9947 1.052,3.4665 0,1.6554 -0.3447,3.0466 -1.0347,4.1734 -0.6899,1.1268 -1.6557,1.9718 -2.8973,2.535 -1.2415,0.5636 -2.6787,0.845 -4.3115,0.845 -0.2069,0 -0.4082,-0.006 -0.6035,-0.017 -0.1956,-0.0116 -0.3968,-0.0289 -0.6037,-0.0518 l -0.1724,-1.3451 c 1.3796,-0.0229 2.5467,-0.2129 3.5008,-0.5692 0.9544,-0.3563 1.6843,-0.9255 2.1903,-1.7073 0.506,-0.7818 0.7589,-1.8167 0.7589,-3.1042 0,-1.6557 -0.4771,-2.84 -1.4315,-3.5527 -0.9542,-0.7129 -2.2363,-1.0692 -3.8458,-1.0692 -0.506,0 -1.006,0.0173 -1.5004,0.0516 -0.4943,0.0346 -0.8909,0.0748 -1.19,0.1207 v 18.0392 l 3.8285,0.5865 v 1.5865 z m 19.4879,0 v -1.4831 l 2.863,-0.5865 v -18.2114 l -2.863,-0.5865 v -1.4831 h 8.9679 v 1.6211 l -3.1388,0.5173 v 18.0392 l 3.3804,0.2761 h 3.8973 l 0.7588,-3.6908 h 1.6903 v 5.5877 z m 15.7629,0 v -1.5177 l 2.0693,-0.4138 7.5883,-20.5915 h 1.897 l 7.8984,20.5569 2.2076,0.4484 v 1.5177 h -8.2434 v -1.5177 l 2.8627,-0.4484 -1.69,-4.4839 h -8.5195 l -1.5177,4.4839 2.7938,0.4484 v 1.5177 z m 6.7603,-8.4161 h 7.1051 l -3.1386,-8.5192 -0.4138,-1.4142 h -0.1726 l -0.3793,1.4142 z m 16.4869,8.4161 v -1.4488 l 2.3457,-0.5516 v -18.3498 l -2.1731,-0.4827 v -1.5177 h 5.0358 l 11.2099,17.1422 0.5173,1.035 h 0.1377 v -16.1768 l -2.3453,-0.5516 v -1.4488 h 6.8295 v 1.4488 l -2.3111,0.5516 v 20.3502 h -2.8627 l -11.2788,-17.246 -0.4484,-0.9312 h -0.1381 v 16.1768 l 2.4146,0.5516 v 1.4488 z m 25.0755,0 v -1.4488 l 2.3457,-0.5516 v -18.3498 l -2.173,-0.4827 v -1.5177 h 5.0357 l 11.2099,17.1422 0.5173,1.035 h 0.1378 v -16.1768 l -2.3454,-0.5516 v -1.4488 h 6.8295 v 1.4488 l -2.3111,0.5516 v 20.3502 h -2.8627 l -11.2787,-17.246 -0.4485,-0.9312 h -0.138 v 16.1768 l 2.4145,0.5516 v 1.4488 z m 25.0756,0 v -1.4831 l 2.863,-0.5865 v -18.2114 l -2.863,-0.5865 v -1.4831 h 15.7972 v 5.6565 h -1.69 l -0.7243,-3.7596 h -4.1734 l -3.3803,0.207 v 7.8987 h 5.4496 l 0.5176,-2.035 h 1.4485 v 5.8981 h -1.4485 l -0.5176,-2.035 h -5.4496 v 8.1745 c 0.4368,0.1148 1.0117,0.2069 1.7246,0.2758 0.7129,0.0692 1.4026,0.1035 2.0695,0.1035 h 4.0354 l 0.7589,-3.6904 h 1.69 v 5.6565 z m 19.7291,0 v -1.4831 l 2.863,-0.5865 v -18.2114 l -2.863,-0.5865 v -1.4831 h 9.7268 c 1.2646,0 2.4203,0.1956 3.4665,0.5865 1.046,0.3909 1.8854,0.9887 2.5178,1.7935 0.6324,0.8047 0.9484,1.851 0.9484,3.1388 0,1.0805 -0.1377,1.9947 -0.4138,2.7419 -0.2758,0.7475 -0.6494,1.3683 -1.1208,1.8627 -0.4714,0.4943 -0.9947,0.9138 -1.5696,1.2588 -0.5749,0.345 -1.184,0.6554 -1.828,0.9312 l 4.7945,7.8987 2.4142,0.6554 v 1.4831 h -3.1731 c -0.5289,0 -0.9255,-0.0805 -1.1899,-0.2415 -0.2645,-0.161 -0.5233,-0.4368 -0.7762,-0.8277 l -4.7942,-8.3469 h -3.1734 v 7.3465 l 2.8627,0.5865 v 1.4831 z m 5.8292,-11.3134 h 2.173 c 1.0806,0 2.0234,-0.2069 2.8285,-0.6207 0.8047,-0.4139 1.4371,-0.9888 1.8969,-1.7246 0.4598,-0.7359 0.6897,-1.5866 0.6897,-2.5524 0,-0.9428 -0.1551,-1.6959 -0.4655,-2.2592 -0.3104,-0.5635 -0.7072,-0.983 -1.19,-1.2588 -0.483,-0.2761 -1.0003,-0.4541 -1.5522,-0.5346 -0.5519,-0.0806 -1.0806,-0.1208 -1.5866,-0.1208 -0.4138,0 -0.8796,0.0173 -1.3969,0.0516 -0.5173,0.0346 -0.983,0.0748 -1.3969,0.1207 z m 29.6972,11.6584 c -0.9658,0 -1.9199,-0.0921 -2.8627,-0.2761 -0.9428,-0.184 -1.7935,-0.5057 -2.5524,-0.9658 -0.7588,-0.4598 -1.3626,-1.0865 -1.8107,-1.8796 -0.4485,-0.7935 -0.6727,-1.8108 -0.6727,-3.0527 0,-0.9198 0.161,-1.7246 0.4828,-2.4142 0.322,-0.69 0.7185,-1.2821 1.1899,-1.7765 0.4714,-0.4944 0.9485,-0.9026 1.4315,-1.2243 0.4828,-0.322 0.8969,-0.5635 1.2416,-0.7245 -0.8277,-0.9196 -1.4831,-1.7935 -1.9658,-2.6212 -0.483,-0.828 -0.7246,-1.7246 -0.7246,-2.6904 0,-1.0117 0.2416,-1.9258 0.7246,-2.7422 0.4827,-0.8161 1.19,-1.4774 2.1211,-1.9831 0.9312,-0.506 2.0869,-0.7589 3.4665,-0.7589 0.7818,0 1.5004,0.0576 2.1558,0.1724 0.6554,0.1151 1.2359,0.2472 1.7416,0.3968 0.506,0.1494 0.8855,0.2815 1.1384,0.3966 v 5.1046 h -1.69 l -0.69,-3.5181 c 0,0 -0.2415,-0.0918 -0.7242,-0.2758 -0.4831,-0.1839 -1.2303,-0.2761 -2.242,-0.2761 -1.2648,0 -2.1384,0.2761 -2.6214,0.828 -0.4828,0.5517 -0.7243,1.3105 -0.7243,2.2763 0,0.5059 0.0746,0.9487 0.2242,1.328 0.1494,0.3793 0.4196,0.7934 0.8105,1.2416 0.3909,0.4484 0.9311,1.0406 1.6211,1.7764 l 7.5192,7.795 c 0.322,-0.7588 0.483,-1.6441 0.483,-2.6557 0,-0.8048 -0.0462,-1.4545 -0.1381,-1.9489 -0.0921,-0.4943 -0.1726,-0.822 -0.2415,-0.983 l -2.8627,-0.5519 v -1.552 h 4.6908 c 0.2299,0.69 0.3966,1.4142 0.5,2.173 0.1035,0.7589 0.1554,1.7017 0.1554,2.8282 0,0.6899 -0.0919,1.4028 -0.2758,2.1384 -0.184,0.7359 -0.4714,1.4259 -0.8623,2.0696 l 1.8969,1.9315 2.6558,0.5865 v 1.4831 h -2.9662 c -0.3679,0 -0.7645,-0.0748 -1.19,-0.2242 -0.4255,-0.1494 -0.822,-0.3966 -1.19,-0.7416 l -0.9311,-0.9311 c -0.7589,0.6667 -1.6674,1.2069 -2.725,1.6211 -1.0579,0.4138 -2.2535,0.6208 -3.5872,0.6208 z m 0.4484,-2.1385 c 0.8969,0 1.7303,-0.1264 2.5007,-0.3795 0.7702,-0.2529 1.4429,-0.6208 2.0177,-1.1038 l -7.4503,-7.6227 c -0.2758,0.161 -0.5978,0.4312 -0.9657,0.8107 -0.3677,0.3793 -0.6954,0.8737 -0.9828,1.4831 -0.2874,0.6094 -0.4311,1.374 -0.4311,2.2938 0,0.9658 0.155,1.7878 0.4654,2.4661 0.3104,0.6784 0.845,1.19 1.6038,1.535 0.7589,0.3447 1.8397,0.5173 3.2423,0.5173 z m 20.0395,1.7935 v -1.4831 l 2.863,-0.5865 v -18.1771 l -2.863,-0.6208 v -1.4831 h 10.1753 c 3.2652,0 5.8521,0.8969 7.7604,2.6903 1.9086,1.7935 2.863,4.438 2.863,7.9331 0,2.5523 -0.4601,4.7024 -1.3796,6.4499 -0.9199,1.7476 -2.2765,3.064 -4.07,3.9493 -1.7938,0.8852 -4.0127,1.328 -6.6572,1.328 z m 9.1749,-1.7935 c 1.4026,0 2.6215,-0.1839 3.6562,-0.5519 1.0346,-0.3679 1.8796,-0.9485 2.535,-1.7419 0.6554,-0.7934 1.144,-1.8107 1.4661,-3.0526 0.3217,-1.2416 0.4827,-2.7363 0.4827,-4.4838 0,-1.4948 -0.1667,-2.7882 -0.5,-3.8804 -0.3334,-1.0922 -0.8337,-2.0004 -1.5004,-2.7247 -0.667,-0.7245 -1.512,-1.2591 -2.5353,-1.6038 -1.023,-0.345 -2.236,-0.5176 -3.6388,-0.5176 -0.6668,0 -1.2762,0.0173 -1.8281,0.0519 -0.5519,0.0346 -1.0463,0.0978 -1.4831,0.1896 v 17.9702 c 0.345,0.0919 0.8337,0.1724 1.4658,0.2416 0.6324,0.0688 1.2591,0.1034 1.8799,0.1034 z m 15.0384,1.7935 v -1.4831 l 2.863,-0.5865 v -18.2114 l -2.863,-0.5865 v -1.4831 h 15.7972 v 5.6565 h -1.69 l -0.7243,-3.7596 h -4.1734 l -3.3803,0.207 v 7.8987 h 5.4496 l 0.5176,-2.035 h 1.4485 v 5.8981 h -1.4485 l -0.5176,-2.035 h -5.4496 v 8.1745 c 0.4368,0.1148 1.0116,0.2069 1.7246,0.2758 0.7129,0.0692 1.4025,0.1035 2.0695,0.1035 h 4.0354 l 0.7589,-3.6904 h 1.69 v 5.6565 z m 29.594,0.3793 c -3.4722,0 -6.0361,-0.9658 -7.6918,-2.8973 -1.6555,-1.9315 -2.4835,-4.7254 -2.4835,-8.3815 0,-1.5636 0.2472,-3.058 0.7416,-4.4838 0.4943,-1.4256 1.2129,-2.6904 2.1557,-3.7942 0.9428,-1.1035 2.0926,-1.9775 3.4492,-2.6212 1.3567,-0.6438 2.8973,-0.9658 4.6219,-0.9658 1.2648,0 2.4778,0.0862 3.6389,0.2585 1.1613,0.1727 2.1327,0.4199 2.9145,0.7419 v 5.415 h -1.7246 l -0.7242,-3.7942 c -0.5519,-0.1607 -1.2359,-0.2931 -2.0523,-0.3965 -0.8164,-0.1035 -1.6268,-0.1551 -2.4316,-0.1551 -1.5868,0 -2.9089,0.362 -3.9665,1.0862 -1.0579,0.7246 -1.8513,1.8111 -2.3799,3.2596 -0.529,1.4488 -0.7935,3.2768 -0.7935,5.4842 0,1.5865 0.161,2.9664 0.4831,4.1391 0.3217,1.1727 0.7818,2.1442 1.3796,2.9143 0.5978,0.7705 1.3394,1.3397 2.2246,1.7076 0.8853,0.3677 1.9029,0.5516 3.0526,0.5516 0.9196,0 1.6957,-0.0745 2.3281,-0.2239 0.6324,-0.1497 1.1381,-0.3277 1.5177,-0.5346 0.3793,-0.2072 0.661,-0.3679 0.845,-0.483 l 0.69,-3.5527 h 1.69 v 5.2427 c -0.4368,0.184 -0.9774,0.3968 -1.6212,0.6381 -0.6437,0.2415 -1.4371,0.4427 -2.3799,0.6037 -0.9428,0.1611 -2.1039,0.2413 -3.4835,0.2413 z m 21.2811,0.0691 c -3.38,0 -5.944,-0.9946 -7.6915,-2.9834 -1.7476,-1.9891 -2.6215,-4.7427 -2.6215,-8.261 0,-2.2303 0.4198,-4.2424 1.2591,-6.0358 0.8391,-1.7938 2.0753,-3.231 3.7077,-4.3115 1.6325,-1.0809 3.6678,-1.6212 6.105,-1.6212 2.0696,0 3.8344,0.4485 5.2946,1.3451 1.4601,0.8969 2.5812,2.1673 3.363,3.8114 0.7818,1.6441 1.1727,3.6272 1.1727,5.9497 0,1.6557 -0.2013,3.2136 -0.6038,4.6737 -0.4022,1.4602 -1.029,2.7479 -1.8796,3.8631 -0.851,1.1151 -1.9432,1.9891 -3.2769,2.6215 -1.3337,0.6321 -2.9432,0.9484 -4.8288,0.9484 z m 0.6899,-1.9661 c 1.5407,0 2.7766,-0.3622 3.7078,-1.0865 0.9314,-0.7242 1.6154,-1.7935 2.0522,-3.2077 0.4369,-1.4142 0.6554,-3.1444 0.6554,-5.1911 0,-2.0233 -0.1667,-3.6731 -0.5,-4.9495 -0.3334,-1.2762 -0.8107,-2.2592 -1.4315,-2.9489 -0.6208,-0.69 -1.3451,-1.1614 -2.1731,-1.4142 -0.8277,-0.2529 -1.7359,-0.3793 -2.7246,-0.3793 -0.7359,0 -1.4488,0.0516 -2.1385,0.1551 -0.6899,0.1034 -1.3396,0.3276 -1.9488,0.6726 -0.6094,0.345 -1.1384,0.8737 -1.5868,1.5866 -0.4482,0.7129 -0.8048,1.6557 -1.0693,2.8284 -0.2641,1.1727 -0.3965,2.6558 -0.3965,4.4492 0,2.2995 0.2931,4.1449 0.8796,5.5361 0.5862,1.3912 1.4371,2.3973 2.5523,3.0181 1.1151,0.6207 2.4891,0.9311 4.1218,0.9311 z m 13.3138,1.5177 v -1.4831 l 2.863,-0.5865 v -18.2114 l -2.863,-0.5865 v -1.4831 h 9.7268 c 1.2645,0 2.4202,0.1956 3.4665,0.5865 1.046,0.3909 1.8853,0.9887 2.5177,1.7935 0.6324,0.8047 0.9485,1.851 0.9485,3.1388 0,1.0805 -0.1378,1.9947 -0.4139,2.7419 -0.2758,0.7475 -0.6494,1.3683 -1.1208,1.8627 -0.4714,0.4943 -0.9947,0.9138 -1.5695,1.2588 -0.5749,0.345 -1.1841,0.6554 -1.8281,0.9312 l 4.7945,7.8987 2.4143,0.6554 v 1.4831 h -3.1731 c -0.5289,0 -0.9255,-0.0805 -1.19,-0.2415 -0.2645,-0.161 -0.5233,-0.4368 -0.7761,-0.8277 l -4.7942,-8.3469 h -3.1734 v 7.3465 l 2.8627,0.5865 v 1.4831 z m 5.8292,-11.3134 h 2.173 c 1.0806,0 2.0234,-0.2069 2.8284,-0.6207 0.8048,-0.4139 1.4372,-0.9888 1.897,-1.7246 0.4597,-0.7359 0.6896,-1.5866 0.6896,-2.5524 0,-0.9428 -0.155,-1.6959 -0.4654,-2.2592 -0.3104,-0.5635 -0.7073,-0.983 -1.19,-1.2588 -0.483,-0.2761 -1.0003,-0.4541 -1.5523,-0.5346 -0.5519,-0.0806 -1.0805,-0.1208 -1.5865,-0.1208 -0.4139,0 -0.8796,0.0173 -1.3969,0.0516 -0.5173,0.0346 -0.9831,0.0748 -1.3969,0.1207 z"
     style="fill:#ffffff;fill-rule:evenodd"
     id="path4" />
  <path
     d="m 359.7091,434.1692 c 0,-8.2941 -4.9765,-11.9968 -16.0793,-16.3341 l -4.8498,-1.9139 c -13.0155,-5.1055 -21.9487,-12.5072 -21.9487,-25.523 0,-14.6767 12.3783,-23.6099 28.5854,-23.6099 8.5506,0 15.3142,2.68 20.8013,6.7634 l -0.7662,16.5909 h -7.6565 l -3.5741,-19.2698 8.1679,4.2112 v 6.3802 c -6.252,-6.1254 -10.9749,-8.296 -17.7386,-8.296 -9.9539,0 -17.4826,4.9776 -17.4826,14.5489 0,8.0392 5.2314,12.7612 14.5481,16.3341 l 4.9774,1.9158 c 16.8446,6.5069 23.3534,13.9098 23.3534,25.9057 0,15.0583 -12.6342,24.2463 -30.118,24.2463 -9.5704,0 -18.8871,-3.0627 -24.7577,-6.7626 l 0.7662,-17.8664 h 7.6574 l 3.3175,19.6513 -8.294,-3.5709 v -6.1262 c 7.9102,5.7427 12.2507,8.2938 20.928,8.2938 12.1237,0 20.1629,-5.6138 20.1629,-15.5688 z"
     style="fill:#ffffff;fill-rule:evenodd"
     id="path6" />
  <path
     d="m 427.5752,449.4197 16.0796,-1.9142 h 2.5522 l 15.8244,1.9142 v 5.1032 H 427.5752 Z M 402.4341,420.705 H 436.89 l 2.0428,5.8717 h -38.5396 z m 14.9316,-52.3223 h 7.6565 l 29.3527,86.1402 H 442.506 l -25.6508,-76.442 h 2.9357 l -26.0344,76.442 h -5.9975 z m -38.0294,81.037 12.762,-1.9142 h 2.5514 l 14.0384,1.9142 v 5.1032 h -29.3518 z"
     style="fill:#ffffff;fill-rule:evenodd"
     id="path8" />
  <path
     d="m 558.1503,368.7024 h 17.8653 v 5.1044 l -16.5897,1.9138 h -1.2756 z m -5.487,45.9413 v -45.9413 h 11.6121 c -0.3835,12.8888 -0.3835,26.161 -0.3835,39.5603 v 6.381 c 0,13.1447 0,26.4162 0.3835,39.5606 h -11.9956 c 0.3835,-12.8899 0.3835,-26.1602 0.3835,-39.5606 z m -11.1039,34.4562 15.3143,-1.913 h 2.5522 l 16.5897,1.913 v 5.1044 h -34.4562 z m -58.192,-80.3975 h 11.3575 l 31.2657,76.5687 h -4.3393 l 29.6067,-76.5687 h 6.7634 l -33.3063,85.5019 h -6.2543 z m -0.1279,0 h 5.3592 l 1.1489,38.0302 v 47.4717 h -6.5081 z m -11.4854,80.3975 13.4004,-1.913 h 2.5514 l 12.5061,1.913 v 5.1044 h -28.4579 z m 0,-80.3975 h 16.8446 v 7.0182 h -1.5303 l -15.3143,-1.9138 z"
     style="fill:#ffffff;fill-rule:evenodd"
     id="path10" />
  <path
     d="m 603.448,408.5821 c 0,-13.1444 0,-26.4158 -0.3816,-39.5603 h 12.2508 c -0.3827,12.8888 -0.3827,26.1602 -0.3827,39.5603 v 6.3802 c 0,13.1456 0,26.417 0.3827,39.5614 h -12.2508 c 0.3816,-12.8898 0.3816,-26.1601 0.3816,-39.5614 z m 7.0193,38.9234 16.5898,1.9139 v 5.1043 h -35.7317 v -5.1043 l 16.5889,-1.9139 z m -19.1419,-73.3793 v -5.1044 h 35.7317 v 5.1044 l -16.5898,1.9139 h -2.553 z"
     style="fill:#ffffff;fill-rule:evenodd"
     id="path12" />
  <path
     d="m 684.7263,409.2202 1.9139,-13.5263 h 5.7415 v 30.2439 h -5.7415 l -1.9139,-14.1654 z m 24.2463,22.5881 -0.8931,22.7152 h -48.1112 v -6.3802 h 43.6443 l -5.7419,6.3802 3.9547,-22.7152 z M 688.8097,413.816 h -28.8422 v -5.8725 h 28.8422 z m 6.508,-44.7947 5.7427,6.381 h -41.0921 v -6.381 h 45.5582 l 0.8928,22.716 h -7.1452 z m -41.0929,39.5606 c 0,-13.1436 0,-26.4159 -0.3815,-39.5606 h 12.2515 c -0.3837,12.889 -0.3837,26.1613 -0.3837,39.5606 v 4.8506 c 0,14.6759 0,27.9462 0.3837,41.091 h -12.2515 c 0.3815,-12.8899 0.3815,-26.1605 0.3815,-39.5606 z m 5.7435,38.9242 v 7.0174 h -17.8661 v -5.1036 l 16.5898,-1.9138 z m -17.8661,-73.3793 v -5.1055 h 17.8661 v 7.0182 h -1.2763 z"
     style="fill:#ffffff;fill-rule:evenodd"
     id="path14" />
  <path
     d="m 195.2214,325.7946 c 51.3654,0 93.0052,41.6398 93.0052,93.0051 0,51.3654 -41.6398,93.0052 -93.0052,93.0052 -51.3654,0 -93.0052,-41.6398 -93.0052,-93.0052 0,-51.3653 41.6398,-93.0051 93.0052,-93.0051 z"
     style="fill:none;stroke:#ffffff;stroke-width:2.0001;stroke-linecap:round;stroke-linejoin:miter;stroke-dasharray:none"
     id="path16" />
  <path
     d="m 152.4288,342.1538 c -0.5456,0.1855 -1.1237,0.3483 -1.7022,0.514 l -0.4354,0.1239 c -0.1549,0.0439 -0.3317,0.1041 -0.4863,0.1649 -0.3133,0.128 -0.6015,0.2763 -0.8777,0.4326 -1.0953,0.6321 -2.0581,1.3478 -3.0604,1.999 -0.9963,0.6544 -2.0109,1.2635 -3.0777,1.7457 -0.5273,0.235 -1.0906,0.4698 -1.6158,0.6033 -0.5406,0.1355 -1.1093,0.1952 -1.6835,0.1964 -1.1518,-0.006 -2.3173,-0.2193 -3.4552,-0.5317 -0.5698,-0.1563 -1.133,-0.3432 -1.6887,-0.551 -0.2777,-0.1052 -0.5537,-0.2151 -0.8267,-0.3314 l -0.3544,-0.1556 c 1.7865,-0.9779 3.4684,-2.1178 5.014,-3.4462 0.4178,-0.3626 0.827,-0.7527 1.2178,-1.1327 0.3897,-0.3775 0.796,-0.7445 1.2036,-1.1108 0.7251,-0.6504 1.4545,-1.3031 2.1701,-1.973 0.1952,0.0602 0.6087,0.188 0.649,0.1977 l 0.1179,0.0242 0.2164,0.0382 0.4121,0.058 c 0.2704,0.0334 0.5356,0.0601 0.7996,0.0828 0.5204,0.0504 1.0869,0.0626 1.4742,0.1206 0.4267,0.0663 0.8532,0.1891 1.2577,0.3768 0.2042,0.0893 0.4001,0.1995 0.5903,0.3155 0.0955,0.0583 0.188,0.1206 0.277,0.1847 l 0.1297,0.0969 0.0601,0.0483 0.027,0.0223 0.0126,0.0108 0.003,0.003 7e-4,3e-4 3e-4,4e-4 h 4e-4 c 0.0119,-0.0116 -0.0256,0.0259 0.0263,-0.026 l 0.5287,0.2032 c 1.1076,-0.0735 2.2382,0.0717 3.1419,0.5669 0.2229,0.1221 0.4282,0.2687 0.5953,0.429 0.0832,0.0792 0.157,0.1634 0.2111,0.2416 0.014,0.0187 0.0263,0.0385 0.0371,0.0576 -0.0436,0.0303 -0.098,0.0631 -0.1585,0.094 -0.215,0.112 -0.482,0.2129 -0.7517,0.3062 z m -19.1372,-2.4359 c 0.653,-2.1228 1.8891,-4.0142 3.524,-5.4588 0.4058,-0.3645 0.841,-0.6965 1.2898,-1.0092 0.4598,-0.3126 0.9494,-0.6152 1.4219,-0.9231 0.9678,-0.5846 1.9421,-1.1569 2.9484,-1.6449 1.0006,-0.4981 2.0245,-0.939 3.0615,-1.2657 0.518,-0.1556 1.0384,-0.3018 1.5502,-0.3872 0.256,-0.0497 0.5104,-0.08 0.7535,-0.0987 0.1235,-0.0108 0.2413,-0.0151 0.3537,-0.0141 0.0597,-0.003 0.1062,0.003 0.1578,0.005 0.0144,4e-4 0.0223,0.002 0.033,0.003 -0.055,0.4253 -0.1209,0.841 -0.2337,1.2231 -0.2838,1.0243 -0.7621,1.9944 -1.3164,2.9153 -1.1371,1.8351 -2.621,3.453 -4.1925,4.9672 -0.7866,0.7596 -1.6002,1.4929 -2.4139,2.2345 -0.4062,0.3717 -0.8129,0.7448 -1.2099,1.1353 -0.3939,0.3893 -0.7775,0.7611 -1.1867,1.1227 -1.5325,1.3405 -3.2332,2.5143 -5.0154,3.4979 -0.3101,-2.094 -0.147,-4.2971 0.4747,-6.3016 z m 10.5607,-2.6494 -7e-4,0.001 c -0.0126,-0.004 -0.0209,-0.007 7e-4,-0.001 z m 5.9245,-4.8876 c 0.2777,0.1386 0.2554,0.2171 0.2014,0.4066 -0.0468,0.1636 -0.1175,0.4107 0.112,0.6401 0.3187,0.3187 0.6569,0.2056 0.9047,0.1235 0.0948,-0.0317 0.1851,-0.0619 0.2669,-0.0691 0.0361,0.0969 0.0361,0.3695 0.0361,0.5385 0,0.4426 0,0.9004 0.3602,0.9004 0.1328,0 0.296,-0.0587 0.5028,-0.1333 0.538,-0.1935 0.9634,-0.3137 1.137,0.0338 0.6429,1.2855 -0.6166,2.8498 -3.5506,4.4399 -0.0349,0 -0.0691,10e-4 -0.1041,0.002 l -0.1578,-0.137 c -0.1131,-0.0943 -0.228,-0.1832 -0.3457,-0.2676 -0.2363,-0.1685 -0.4794,-0.3263 -0.7366,-0.462 -0.5093,-0.2802 -1.0654,-0.4877 -1.6449,-0.6192 -0.6221,-0.1303 -1.0849,-0.1584 -1.5819,-0.2435 -0.2453,-0.0377 -0.4887,-0.0796 -0.7254,-0.1249 l -0.1257,-0.0267 c 1.1248,-1.1605 2.1754,-2.4034 3.0489,-3.7866 0.2943,-0.48 0.5698,-0.9753 0.8114,-1.4885 0.3866,4e-4 1.1151,0.0349 1.5913,0.2737 z m -40.5417,49.1558 c -0.0616,0.0536 -0.1207,0.1101 -0.182,0.1641 0.5158,-0.8039 0.9946,-1.6354 1.3789,-2.5464 0.2002,-0.4757 0.3763,-1.0139 0.4635,-1.5678 0.081,-0.528 0.1188,-1.0254 0.165,-1.53 l 0.2315,-2.9787 c 0.1636,-1.9737 0.3901,-3.9339 0.7294,-5.8683 0.1678,-0.9664 0.3793,-1.928 0.6267,-2.8663 0.268,-0.8929 0.6436,-1.7962 1.0521,-2.687 1.6632,-3.5686 3.6683,-7.0198 5.6587,-10.4587 1.7979,-3.0925 3.6568,-6.1533 5.5272,-9.2068 -0.2863,1.1641 -0.528,2.3357 -0.7257,3.5181 -0.2611,1.5787 -0.4405,3.1872 -0.4164,4.7929 -0.005,3.1854 -0.1771,6.3726 -0.6159,9.5252 -0.438,3.1483 -1.1255,6.2768 -2.2853,9.2324 -0.5842,1.4728 -1.2747,2.9095 -2.1574,4.2217 -0.5367,0.8039 -1.1393,1.5645 -1.8085,2.2583 -0.2723,0.2229 -0.5478,0.4426 -0.8244,0.6613 -2.258,1.7684 -4.6416,3.4158 -6.8174,5.336 z m 45.398,-39.6652 c -0.0501,-0.3133 -0.1613,-0.4991 -0.2709,-0.6775 -0.1127,-0.1728 -0.2374,-0.3183 -0.3685,-0.4505 -0.2617,-0.2637 -0.55,-0.4744 -0.8503,-0.6502 -0.8583,-0.4934 -1.7926,-0.7228 -2.7218,-0.7995 1.5321,-0.8864 2.5644,-1.7642 3.0582,-2.6171 0.4092,-0.7063 0.4564,-1.3845 0.1405,-2.0163 -0.3306,-0.6609 -1.1133,-0.3799 -1.5812,-0.2113 -0.1307,0.0467 -0.2655,0.095 -0.3454,0.1084 -0.0356,-0.0984 -0.0356,-0.3692 -0.0356,-0.537 0,-0.4427 0,-0.9005 -0.3602,-0.9005 -0.1492,0 -0.2853,0.0454 -0.4171,0.0893 -0.2529,0.0843 -0.3814,0.1178 -0.536,-0.0363 -0.0717,-0.0717 -0.0677,-0.1214 -0.0205,-0.2864 0.0594,-0.2078 0.1588,-0.5554 -0.3865,-0.828 -0.4833,-0.2417 -1.1597,-0.3004 -1.5984,-0.3105 0.171,-0.3962 0.327,-0.7996 0.447,-1.2178 0.3303,-1.0877 0.4437,-2.2493 0.332,-3.3911 l -0.3565,-0.1076 7e-4,-0.004 c -0.009,-0.001 -0.0162,-0.002 -0.0245,-0.003 l -0.001,-3e-4 v 3e-4 c -0.0847,-0.0105 -0.1275,-0.0112 -0.1762,-0.0141 -0.0564,-0.003 -0.1065,-0.004 -0.1509,-0.003 -0.0925,10e-4 -0.1901,-4e-4 -0.274,0.007 -0.1761,0.009 -0.3455,0.0246 -0.5082,0.0475 -0.3289,0.0429 -0.6458,0.1002 -0.9516,0.1754 -0.6188,0.1395 -1.2005,0.3376 -1.7753,0.545 -1.1418,0.4286 -2.2137,0.9628 -3.2463,1.5466 -1.0391,0.5752 -2.0213,1.2249 -2.992,1.8848 -0.4757,0.3468 -0.9494,0.6775 -1.4251,1.0366 -0.4809,0.3681 -0.9459,0.7582 -1.3785,1.1835 -0.8666,0.8486 -1.6305,1.8089 -2.228,2.862 -0.5922,1.0561 -1.0435,2.1845 -1.3259,3.3479 -0.2921,1.1604 -0.421,2.3512 -0.43,3.5332 0.001,1.1274 0.1044,2.2349 0.3612,3.3468 -1.0578,0.9858 -1.8332,2.1946 -2.5226,3.4159 -0.7081,1.2804 -1.3002,2.612 -1.8556,3.9508 -1.1158,2.6776 -2.0293,5.4167 -3.0107,8.118 -0.9905,2.6941 -1.9627,5.3983 -3.2445,7.9209 -0.648,1.2657 -1.3773,2.4353 -2.3613,3.4452 -0.1931,0.2063 -0.3958,0.4051 -0.5997,0.6033 0.1174,-0.1639 0.232,-0.3293 0.3435,-0.4967 0.9001,-1.3388 1.601,-2.7975 2.1925,-4.289 1.1745,-2.9934 1.866,-6.1468 2.3069,-9.3155 0.4415,-3.1721 0.6145,-6.3759 0.6195,-9.5736 -0.0238,-1.5883 0.1527,-3.1659 0.4113,-4.7344 0.2619,-1.5665 0.604,-3.126 1.0229,-4.655 l 0.2759,-1.0078 -0.5993,0.8594 h -4e-4 c -1.1446,1.6345 -2.2572,3.2884 -3.355,4.9535 -1.0979,1.6647 -2.1928,3.3327 -3.2487,5.0259 -2.1114,3.3889 -4.1882,6.7962 -5.9631,10.4203 -0.4323,0.9145 -0.84,1.8462 -1.157,2.8595 -0.273,0.9836 -0.5017,1.9672 -0.6879,2.9613 -0.3839,1.9841 -0.6055,3.9882 -0.7849,5.9832 l -0.2445,2.9787 c -0.0464,0.487 -0.0875,0.9833 -0.1606,1.4399 -0.0728,0.4294 -0.201,0.8457 -0.3731,1.2931 -0.653,1.6892 -1.5409,3.3637 -2.3135,5.1015 -1.2422,1.356 -2.3419,2.8512 -3.1922,4.5101 -0.1639,0.3296 -0.3166,0.6657 -0.4711,1.0006 -0.1387,0.3415 -0.2921,0.6789 -0.4189,1.0266 -0.117,0.3492 -0.2586,0.6962 -0.3551,1.0505 l -0.304,1.0622 c -0.3548,1.4295 -0.6484,2.8861 -0.7827,4.3696 -0.1534,1.4822 -0.161,2.9801 -0.0854,4.4875 0.049,0.7528 0.1193,1.5069 0.2251,2.2655 0.5498,4.3235 3.1894,1.8093 2.182,-1.5599 -0.0861,-0.3321 -0.1722,-0.666 -0.25,-1.002 -0.3093,-1.3475 -0.4656,-2.7359 -0.5125,-4.1327 -0.0158,-1.3953 0.0699,-2.8021 0.3091,-4.1907 0.251,-1.3877 0.5834,-2.7557 1.1734,-4.0396 0.5752,-1.2841 1.3042,-2.5076 2.1737,-3.632 0.8723,-1.121 1.8642,-2.1554 2.9333,-3.1048 2.1318,-1.9143 4.5407,-3.4922 6.8872,-5.18 1.1684,-0.8529 2.3347,-1.7296 3.3882,-2.7651 0.5262,-0.5161 1.0315,-1.0658 1.4688,-1.6785 0.438,-0.605 0.8183,-1.2357 1.1705,-1.8797 0.7143,-1.2833 1.3035,-2.6181 1.8503,-3.9623 0.5532,-1.3424 1.0423,-2.7042 1.5224,-4.065 0.9564,-2.7236 1.8755,-5.4487 2.8872,-8.1255 0.509,-1.3374 1.0734,-2.648 1.704,-3.918 0.604,-1.1958 1.3009,-2.353 2.1979,-3.3093 l 0.004,0.002 0.2057,0.1048 0.4139,0.2003 c 0.2773,0.1311 0.5575,0.2546 0.8398,0.3737 0.5655,0.2367 1.1408,0.4514 1.7282,0.6368 1.1717,0.3757 2.3962,0.6311 3.6594,0.6704 0.6311,0.0151 1.2728,-0.0328 1.9063,-0.1751 0.6488,-0.1502 1.2074,-0.3742 1.7877,-0.6137 1.145,-0.4849 2.2201,-1.0979 3.2552,-1.7422 1.0355,-0.6389 2.0332,-1.3384 3.0435,-1.8874 0.2518,-0.1346 0.5046,-0.2556 0.7528,-0.3493 0.1274,-0.0461 0.237,-0.0814 0.3728,-0.1163 l 0.4376,-0.1135 c 0.5853,-0.1527 1.173,-0.3019 1.7746,-0.4898 0.3021,-0.0976 0.605,-0.1992 0.9303,-0.3566 0.1625,-0.0817 0.3332,-0.1736 0.5215,-0.3396 0.0922,-0.0839 0.1945,-0.1935 0.278,-0.3569 0.0203,-0.0411 0.0386,-0.0868 0.0552,-0.1308 0.0176,-0.0559 0.0317,-0.1167 0.041,-0.1757 0.0115,-0.1042 0.009,-0.2007 -0.002,-0.2789 z"
     style="fill:#ffffff;fill-rule:evenodd"
     id="path18" />
  <path
     d="m 282.0568,414.7166 c 0.0194,0.2417 0.0753,0.5212 0.1401,0.7996 0.1322,0.5605 0.3018,1.1371 0.4686,1.7149 l 0.126,0.4347 c 0.0455,0.1549 0.0883,0.3364 0.1182,0.4999 0.0588,0.3331 0.0857,0.6562 0.1005,0.9732 0.0457,1.2638 -0.049,2.4596 -0.0684,3.6554 -0.0252,1.1911 -0.003,2.3746 0.1552,3.5344 0.0811,0.5716 0.1815,1.1739 0.3475,1.6896 0.1723,0.5298 0.4232,1.0435 0.728,1.5308 0.6158,0.9732 1.4162,1.8469 2.2853,2.6447 0.4351,0.3998 0.8926,0.778 1.3639,1.1385 0.2367,0.1798 0.4762,0.3548 0.7197,0.5245 l 0.3202,0.2175 c -0.1203,-2.0332 -0.0479,-4.0635 0.2568,-6.0787 0.0853,-0.5468 0.1981,-1.1003 0.313,-1.6334 0.1127,-0.5309 0.2075,-1.0701 0.3018,-1.6104 0.1657,-0.9595 0.331,-1.9237 0.5191,-2.886 -0.1549,-0.1333 -0.4826,-0.4161 -0.5123,-0.4452 l -0.0832,-0.0865 -0.1472,-0.1635 -0.268,-0.3184 c -0.1718,-0.211 -0.3353,-0.4221 -0.4949,-0.6335 -0.3191,-0.4139 -0.6306,-0.8875 -0.8853,-1.185 -0.2828,-0.3263 -0.6133,-0.6224 -0.9872,-0.8652 -0.1844,-0.1257 -0.3815,-0.233 -0.5811,-0.3331 -0.1,-0.0493 -0.202,-0.0948 -0.3035,-0.1361 l -0.151,-0.0584 -0.0727,-0.0252 -0.0332,-0.0109 -0.0158,-0.005 -0.004,-0.001 -10e-4,-3e-4 -4e-4,-4e-4 h -3e-4 c 0.004,-0.0161 -0.008,0.0357 0.008,-0.0359 l -0.4528,-0.3404 c -0.5258,-0.9772 -1.2498,-1.8582 -2.1492,-2.3606 -0.2223,-0.124 -0.4552,-0.2205 -0.6796,-0.2767 -0.1113,-0.0284 -0.2219,-0.0465 -0.317,-0.0508 -0.0234,-0.002 -0.0468,-0.001 -0.0685,-7e-4 -0.002,0.053 -0.002,0.1167 0.004,0.1844 z m 9.0041,5.3652 -4e-4,0.001 c 0.0101,0.008 0.0169,0.014 4e-4,-0.001 z m -1.7228,14.1048 c 1.9392,-0.8499 3.7192,-2.1588 5.0872,-3.7497 1.4518,-1.681 2.398,-3.7329 2.7531,-5.8853 0.0933,-0.5377 0.1438,-1.0827 0.17,-1.6287 0.021,-0.5561 0.017,-1.1314 0.0271,-1.695 -0.0184,-1.131 -0.0512,-2.2601 -0.1723,-3.372 -0.1094,-1.1125 -0.2798,-2.2143 -0.5538,-3.2664 -0.1434,-0.5215 -0.2954,-1.0399 -0.4953,-1.5192 -0.094,-0.2435 -0.2032,-0.4747 -0.3166,-0.6905 -0.0566,-0.111 -0.1156,-0.2129 -0.1757,-0.3072 -0.0296,-0.0523 -0.0591,-0.0883 -0.0879,-0.1315 -0.008,-0.0115 -0.0134,-0.0177 -0.0198,-0.0262 -0.331,0.2726 -0.6483,0.5488 -0.9121,0.8474 -0.717,0.7845 -1.2851,1.7051 -1.7712,2.6639 -0.9506,1.9381 -1.5333,4.0549 -1.9818,6.1903 -0.2254,1.0697 -0.4149,2.1492 -0.6108,3.2322 -0.099,0.5418 -0.1992,1.0845 -0.3192,1.6281 -0.1209,0.5406 -0.2319,1.0632 -0.3208,1.602 -0.3221,2.0105 -0.4135,4.0751 -0.3001,6.1078 z m 2.7172,-21.7207 c -0.2651,-0.1613 -0.3199,-0.1009 -0.4517,0.0457 -0.1138,0.1264 -0.2855,0.3173 -0.6014,0.245 -0.4395,-0.1012 -0.5238,-0.4477 -0.5854,-0.7013 -0.0237,-0.0969 -0.0461,-0.1898 -0.0835,-0.2629 -0.1008,0.0209 -0.3321,0.166 -0.4751,0.2557 -0.3753,0.2348 -0.7628,0.4783 -0.9544,0.1729 -0.0707,-0.112 -0.1073,-0.282 -0.1542,-0.4967 -0.1217,-0.5583 -0.2456,-0.9829 -0.6325,-0.9455 -1.4306,0.1384 -2.0869,2.0365 -1.8761,5.367 0.0187,0.0292 0.0356,0.0591 0.054,0.0886 l 0.1996,0.0617 c 0.1401,0.0453 0.2766,0.0953 0.4105,0.1505 0.2683,0.1105 0.5313,0.2326 0.7831,0.3785 0.5074,0.2831 0.9789,0.6437 1.3981,1.0647 0.4409,0.4578 0.7103,0.8353 1.046,1.2109 0.1628,0.1876 0.327,0.3721 0.4916,0.5482 l 0.0893,0.0925 c 0.3859,-1.5692 0.8807,-3.1194 1.5888,-4.5947 0.2503,-0.5043 0.5237,-1.0009 0.8302,-1.4778 -0.2053,-0.3274 -0.6221,-0.926 -1.0769,-1.203 z m -10.6209,0.9264 c 0.2921,-0.1239 0.5086,-0.1282 0.7182,-0.1304 0.2064,0.004 0.3955,0.0324 0.5774,0.0727 0.3623,0.0821 0.6937,0.214 1.0023,0.3753 0.8745,0.465 1.565,1.1346 2.1233,1.8816 -0.0627,-1.7688 0.1325,-3.1098 0.5928,-3.981 0.3811,-0.7222 0.9311,-1.1223 1.6341,-1.1904 0.7355,-0.071 0.9131,0.742 1.019,1.2275 0.0295,0.1358 0.0602,0.2755 0.0915,0.3501 0.1023,-0.0217 0.3313,-0.1657 0.4736,-0.2551 0.3749,-0.2348 0.7632,-0.4783 0.9544,-0.1728 0.0793,0.1264 0.1132,0.2658 0.1459,0.4008 0.063,0.2593 0.1026,0.3858 0.3155,0.4347 0.0987,0.0228 0.1388,-0.007 0.2536,-0.1346 0.1445,-0.1606 0.3862,-0.4297 0.907,-0.1127 0.4613,0.2816 0.8701,0.8237 1.1118,1.1896 0.2449,-0.3551 0.5038,-0.7016 0.7945,-1.0251 0.7459,-0.8579 1.6698,-1.571 2.697,-2.0828 l 0.2803,0.2449 0.003,-0.003 c 0.006,0.008 0.0101,0.0126 0.0155,0.0191 l 7e-4,7e-4 v 3e-4 c 0.0537,0.066 0.077,0.102 0.1055,0.1417 0.0328,0.046 0.0602,0.0882 0.0829,0.1264 0.0482,0.0788 0.1012,0.1605 0.1397,0.2355 0.0861,0.1537 0.1629,0.3062 0.2294,0.456 0.1388,0.3014 0.2583,0.6004 0.3571,0.8997 0.2106,0.5982 0.3515,1.1961 0.4811,1.7933 0.2427,1.1954 0.3601,2.3869 0.4135,3.5718 0.0652,1.1858 0.0364,2.3636 -0.008,3.5367 -0.0411,0.587 -0.0699,1.164 -0.121,1.758 -0.0566,0.6026 -0.1401,1.2036 -0.2709,1.7965 -0.2586,1.185 -0.6663,2.3422 -1.2412,3.408 -0.5805,1.0621 -1.2966,2.0444 -2.1325,2.9012 -0.8281,0.864 -1.7681,1.6057 -2.7651,2.241 -0.9548,0.5976 -1.9475,1.0979 -3.0244,1.4703 l -0.6472,0.004 c 0.007,-0.0256 0.0176,-0.0508 0.0244,-0.0764 l -0.004,-0.002 -0.1977,-0.1184 -0.3901,-0.2443 c -0.2579,-0.1657 -0.5119,-0.3371 -0.7628,-0.5129 -0.5007,-0.3537 -0.9884,-0.7271 -1.4573,-1.1259 -0.9405,-0.7934 -1.8074,-1.6949 -2.5115,-2.7449 -0.348,-0.5262 -0.648,-1.0956 -0.8645,-1.7083 -0.2171,-0.6292 -0.3241,-1.2214 -0.4293,-1.8401 -0.1978,-1.2275 -0.2492,-2.4644 -0.2532,-3.684 -0.008,-1.2165 0.054,-2.4329 -0.017,-3.5808 -0.0198,-0.2849 -0.0514,-0.5633 -0.104,-0.8233 -0.0288,-0.1322 -0.057,-0.2439 -0.0994,-0.3779 l -0.1365,-0.4307 c -0.1816,-0.5771 -0.3674,-1.154 -0.5274,-1.7639 -0.0781,-0.3075 -0.1526,-0.6187 -0.1919,-0.9779 -0.0173,-0.1807 -0.0302,-0.3744 0.0104,-0.6219 0.0224,-0.1228 0.0605,-0.2676 0.1549,-0.4254 0.0242,-0.0389 0.053,-0.0789 0.0818,-0.1164 0.0378,-0.0443 0.0817,-0.0882 0.1268,-0.1278 0.0817,-0.0648 0.1653,-0.1145 0.2373,-0.1462 z"
     style="fill:#ffffff;fill-rule:evenodd"
     id="path20" />
  <path
     d="m 289.503,434.5916 c -1.307,2.9307 -2.8709,5.7329 -4.6747,8.3939 -0.4545,0.6627 -0.9232,1.3161 -1.4155,1.9536 -0.4873,0.639 -1.0128,1.2624 -1.5142,1.8744 -1.0124,1.2271 -1.9954,2.465 -2.8864,3.7591 -1.8027,2.5756 -3.1361,5.4286 -4.1935,8.3752 -1.0485,2.9556 -1.824,6.0091 -2.5223,9.0836 -0.1589,0.7733 -0.3192,1.5459 -0.4899,2.3163 -0.1628,0.7726 -0.2986,1.5524 -0.4491,2.3278 -0.0764,0.3908 -0.1412,0.7719 -0.2273,1.1702 l -0.2694,1.22 c -0.0768,0.4091 -0.2223,0.8032 -0.3314,1.2051 l -0.1768,0.5998 c -0.063,0.1983 -0.1419,0.3921 -0.2125,0.5887 -1.0881,3.1635 -3.0126,6.0093 -5.3678,8.3284 -2.3782,2.3124 -5.2019,4.0855 -8.1881,5.3652 -2.9927,1.2718 -6.1303,2.1499 -9.3485,2.4542 l -0.0457,-0.3572 c 3.0838,-0.6952 6.0744,-1.807 8.8564,-3.234 2.7758,-1.4379 5.3508,-3.2474 7.4521,-5.4866 1.0567,-1.1107 1.9917,-2.3271 2.7798,-3.6281 0.4019,-0.6464 0.7398,-1.3272 1.0834,-2.0043 l 0.4516,-1.0463 c 0.1532,-0.3469 0.2593,-0.7143 0.392,-1.0698 0.0611,-0.1797 0.1311,-0.3562 0.1854,-0.5384 l 0.1517,-0.5508 c 0.0929,-0.3687 0.2222,-0.7275 0.2848,-1.1047 l 0.2284,-1.1201 0.2252,-1.1785 c 0.1547,-0.7891 0.2945,-1.5807 0.462,-2.3681 0.1696,-0.7877 0.3497,-1.5725 0.5313,-2.3573 0.7549,-3.1343 1.7188,-6.2337 2.9707,-9.2296 1.2739,-2.9847 2.8799,-5.8532 4.8592,-8.4216 0.9854,-1.2851 2.0518,-2.4949 3.1309,-3.6746 1.0827,-1.1723 2.0851,-2.3745 3.0237,-3.6554 1.8676,-2.5539 3.5229,-5.2884 4.9154,-8.136 z"
     style="fill:#ffffff;fill-rule:evenodd"
     id="path22" />
  <path
     d="m 269.5157,473.5784 c 0.1452,-0.0664 0.3527,-0.1808 0.5281,-0.2835 0.1832,-0.1074 0.3633,-0.2229 0.5424,-0.3412 0.3565,-0.2402 0.6987,-0.5045 1.0301,-0.7811 0.6584,-0.559 1.252,-1.1929 1.763,-1.8855 0.2576,-0.3451 0.4888,-0.7085 0.7002,-1.0828 0.1005,-0.1923 0.2046,-0.3723 0.3033,-0.5748 l 0.2939,-0.6152 c 0.3865,-0.824 0.751,-1.6694 1.1385,-2.5201 0.7625,-1.7047 1.7047,-3.4112 2.9095,-4.8866 0.5983,-0.739 1.2293,-1.4485 1.9046,-2.1045 0.666,-0.6597 1.3316,-1.2905 1.995,-1.9348 2.6495,-2.5662 5.2485,-5.1811 7.6408,-7.9761 1.1893,-1.4014 2.3314,-2.8436 3.3543,-4.3653 1.001,-1.5268 1.9172,-3.144 2.3635,-4.9031 l 7e-4,-0.003 0.0313,-0.1052 0.0159,0.0177 c 0.4754,0.537 0.1303,0.1502 0.2356,0.2705 l -0.005,0.004 -0.0134,0.0111 -0.0277,0.0238 -0.0558,0.0479 -0.1124,0.0961 -0.2247,0.1924 -0.4499,0.3846 -0.9033,0.7657 -1.8182,1.5175 c -1.2188,1.0038 -2.4482,1.9954 -3.7055,2.9542 -1.2513,0.9735 -2.5839,1.8292 -3.8309,2.7802 -1.254,0.9472 -2.4711,1.9445 -3.628,3.0077 -0.2924,0.2626 -0.5694,0.5414 -0.8546,0.8112 -0.2864,0.269 -0.5663,0.5446 -0.8346,0.8313 l -0.8162,0.8492 -0.7794,0.8829 c -0.2651,0.2895 -0.5132,0.5936 -0.7557,0.9022 l -0.7358,0.9192 -0.6865,0.9555 c -0.2316,0.3169 -0.4595,0.6361 -0.662,0.9725 -1.7087,2.6274 -3.0381,5.5125 -3.7833,8.5582 l -0.3501,-0.0844 c 0.756,-3.0902 2.1038,-6.0135 3.8319,-8.6709 0.205,-0.3403 0.4356,-0.6627 0.6693,-0.9829 l 0.6937,-0.9663 0.7434,-0.9282 c 0.2449,-0.3116 0.4956,-0.6184 0.7632,-0.9109 l 0.7866,-0.8911 0.823,-0.8568 c 0.2712,-0.2892 0.5533,-0.5672 0.8417,-0.8385 0.2878,-0.2716 0.5669,-0.5532 0.8616,-0.8176 1.1666,-1.0719 2.3926,-2.0764 3.6554,-3.0306 1.2628,-0.9619 2.5893,-1.813 3.829,-2.7783 1.2516,-0.9544 2.4784,-1.9438 3.6947,-2.9459 l 1.8153,-1.5148 0.9015,-0.7643 0.4496,-0.384 0.2243,-0.1924 0.1124,-0.0965 0.057,-0.0483 0.0283,-0.0241 0.0148,-0.0126 0.009,-0.008 c 0.1103,0.1171 -0.2301,-0.2751 0.25,0.2598 l 0.0471,-0.0872 -0.001,0.003 c -0.4099,1.8513 -1.2992,3.5286 -2.2684,5.1142 -0.992,1.5782 -2.1027,3.073 -3.2607,4.5255 -2.3282,2.8962 -4.8652,5.6105 -7.4441,8.2671 -0.6422,0.6635 -1.298,1.3252 -1.9251,1.986 -0.6311,0.6516 -1.2087,1.3447 -1.7516,2.0585 -1.0916,1.4285 -1.9049,3.0114 -2.6008,4.6992 -0.353,0.842 -0.6941,1.7055 -1.0654,2.5666 l -0.2841,0.6447 c -0.0969,0.2157 -0.2155,0.4409 -0.3228,0.6613 -0.2294,0.4369 -0.4826,0.8626 -0.765,1.2674 -0.5615,0.8119 -1.2174,1.5557 -1.9478,2.2158 -0.3674,0.3279 -0.7485,0.6405 -1.1497,0.9297 -0.2025,0.1427 -0.4067,0.283 -0.6184,0.416 -0.2197,0.1358 -0.4118,0.2546 -0.6822,0.3904 z"
     style="fill:#ffffff;fill-rule:evenodd"
     id="path24" />
  <path
     d="m 270.4187,472.9695 -0.3602,-0.005 c 0.002,-0.1145 0.1373,-11.5429 -1.6017,-18.8685 -1.8108,-7.626 1.6543,-25.1342 5.1985,-30.37 l 0.1221,-0.1805 0.1545,0.1542 c 0.0969,0.0972 0.1099,0.1099 -0.3246,6.2645 -0.1339,1.8921 -0.2733,3.8668 -0.3662,5.3541 -0.197,3.1525 0.4945,9.9422 0.9991,14.9004 0.1257,1.234 0.2388,2.3444 0.3221,3.2409 0.4109,4.4377 -0.3894,7.8846 -0.3977,7.9184 l -0.3501,-0.0828 c 0.008,-0.0338 0.7942,-3.4267 0.389,-7.8025 -0.0832,-0.8957 -0.1959,-2.0051 -0.3216,-3.2376 -0.5061,-4.9701 -1.199,-11.7774 -1.0003,-14.9596 0.0934,-1.4875 0.2323,-3.4637 0.366,-5.3568 0.1541,-2.1813 0.3123,-4.4194 0.3663,-5.4708 -3.3864,5.7556 -6.5426,22.2326 -4.807,29.5446 1.7498,7.3695 1.6133,18.8422 1.6118,18.957 z"
     style="fill:#ffffff;fill-rule:evenodd"
     id="path26" />
  <path
     d="m 189.5086,397.4177 c 0,0 -10.2686,-10.9296 -10.8189,-20.1793 -0.5507,-9.2497 2.7529,-17.1786 12.9937,-21.8033 10.2409,-4.6245 21.2525,2.5329 24.2258,7.3779 2.9732,4.8451 5.0655,14.6458 1.3215,24.1159 -3.744,9.4702 -6.0013,14.8656 -13.4342,22.9594 -0.255,0.2777 -0.5065,0.5497 -0.7553,0.8188 z m 16.1046,51.5346 c 8.5895,10.5716 6.1118,18.3344 5.864,20.5647 -0.2478,2.2298 -2.8079,13.0488 -14.04,15.6918 -11.2321,2.6425 -17.5089,-2.3127 -20.9774,-7.1031 -3.4689,-4.7896 -4.625,-14.5353 -1.817,-25.6845 2.8079,-11.1492 12.3057,-23.0423 12.3057,-23.0423 0,0 10.0756,9.0019 18.6647,19.5734 z m 51.1223,19.4085 V 365.7863 l -48.8097,49.7179 -4.1049,-4.0314 c 1.8416,-1.8592 3.3778,-3.4321 4.1049,-4.2274 2.6427,-2.8904 6.3428,-7.4329 10.2741,-14.5907 3.931,-7.1575 6.1335,-17.5086 4.2065,-27.4743 -1.9273,-9.9657 -13.4346,-21.9681 -27.7497,-20.9774 -24.702,1.7106 -36.1715,27.873 -19.9311,46.5798 4.9077,5.6533 15.3874,16.5105 23.5907,24.9015 -3.0348,3.113 -5.2337,5.2039 -6.2594,6.1597 l -56.8707,-56.0577 v 102.5125 l -1.7548,1.0114 v 0.8259 h 19.1602 v -0.805 l -1.3214,-1.1565 v -75.0794 c 0,0 34.6871,35.4028 34.632,35.348 -45.7307,60.665 16.6899,81.3199 34.0813,54.2876 15.1965,-23.6201 -7.2677,-40.5231 -7.2677,-40.5231 l -19.9731,-19.688 c 1.1835,-1.1709 3.6136,-3.5776 6.2188,-6.1759 6.0271,6.1594 10.6713,10.8331 10.6713,10.8331 l 33.3105,-33.6408 v 75.0721 l -1.4868,0.702 v 0.8259 h 16.3112 v -1.0734 z"
     style="fill:#ffffff;fill-rule:evenodd"
     id="path28" />
</svg>
