<?xml version="1.0" encoding="UTF-8" standalone="no"?>
<svg
   version="1.1"
   width="850.39368pt"
   height="850.39368pt"
   id="svg28"
   viewBox="0 0 850.39368 850.39368"
   sodipodi:docname="LOGO SAMIE NỀN TRẮNG CHỮ ĐEN NGANG.cdr"
   xmlns:inkscape="http://www.inkscape.org/namespaces/inkscape"
   xmlns:sodipodi="http://sodipodi.sourceforge.net/DTD/sodipodi-0.dtd"
   xmlns="http://www.w3.org/2000/svg"
   xmlns:svg="http://www.w3.org/2000/svg">
  <defs
     id="defs32" />
  <sodipodi:namedview
     id="namedview30"
     pagecolor="#ffffff"
     bordercolor="#000000"
     borderopacity="0.25"
     inkscape:showpageshadow="2"
     inkscape:pageopacity="0.0"
     inkscape:pagecheckerboard="0"
     inkscape:deskcolor="#d1d1d1"
     inkscape:document-units="pt" />
  <path
     d="m 164.6238,298.4565 a 97.8985,97.8985 0 0 1 97.8986,97.8985 97.8985,97.8985 0 1 1 -97.8986,-97.8985 z"
     style="fill:none;stroke:#1b1918;stroke-width:2.0001;stroke-linecap:round;stroke-linejoin:miter;stroke-dasharray:none"
     id="path2" />
  <path
     d="m 305.9067,473.4122 -7.6393,-23.3884 -2.3899,-0.6267 v -1.567 h 9.3634 v 1.6061 l -3.4084,0.6658 5.2886,17.0028 0.4312,1.6061 h 0.2349 l 0.5094,-1.6846 5.0145,-13.8682 -1.097,-3.0952 -2.9381,-0.6267 v -1.6061 h 10.0293 v 1.6061 l -3.5652,0.7052 6.2683,16.9243 0.47,1.567 h 0.235 l 0.392,-1.567 4.6618,-16.9637 -3.4475,-0.6658 v -1.6061 h 8.462 v 1.6061 l -2.4287,0.6267 -6.8167,23.3493 h -2.3899 l -6.1898,-15.8664 -0.2744,-1.2537 h -0.235 l -0.2741,1.2537 -5.7982,15.8664 z m 28.6379,-0.1959 v -1.6846 l 3.2516,-0.6659 v -20.6852 l -3.2516,-0.6662 v -1.6843 h 17.943 v 6.4247 h -1.9196 l -0.8229,-4.2701 h -4.7404 l -3.8392,0.235 v 8.9714 h 6.19 l 0.5876,-2.3114 h 1.6452 v 6.6991 h -1.6452 l -0.5876,-2.3114 h -6.19 v 9.2849 c 0.4963,0.1307 1.1491,0.235 1.9587,0.3135 0.8099,0.0783 1.5934,0.1174 2.3508,0.1174 h 4.5836 l 0.8617,-4.1919 h 1.92 v 6.425 z m 22.409,0 v -1.6846 l 3.2516,-0.6659 v -20.6461 l -3.2516,-0.7053 v -1.6843 h 11.5571 c 3.7089,0 6.647,1.0185 8.8147,3.0557 2.1679,2.037 3.2519,5.0406 3.2519,9.0105 0,2.899 -0.5225,5.3411 -1.5673,7.3259 -1.0446,1.9851 -2.5855,3.4804 -4.6228,4.4858 -2.0372,1.0054 -4.5575,1.5083 -7.5611,1.5083 z m 10.421,-2.0372 c 1.5934,0 2.9775,-0.209 4.1528,-0.6268 1.1752,-0.4178 2.135,-1.0774 2.8794,-1.9783 0.7444,-0.9011 1.2994,-2.0568 1.6651,-3.4673 0.3656,-1.4103 0.5485,-3.1079 0.5485,-5.0927 0,-1.6977 -0.1894,-3.1669 -0.5681,-4.4076 -0.3787,-1.2405 -0.9468,-2.2723 -1.7042,-3.0949 -0.7574,-0.8226 -1.7172,-1.4298 -2.8794,-1.8215 -1.1622,-0.3921 -2.5401,-0.588 -4.1332,-0.588 -0.7574,0 -1.4496,0.0199 -2.0764,0.059 -0.6267,0.0391 -1.1883,0.1108 -1.6846,0.2154 v 20.4109 c 0.3917,0.1046 0.9468,0.1959 1.6651,0.2744 0.7183,0.0782 1.4298,0.1174 2.135,0.1174 z m 17.081,2.0372 v -1.6846 l 3.2516,-0.6659 v -20.6461 l -3.2516,-0.7053 v -1.6843 h 11.5572 c 3.7088,0 6.6469,1.0185 8.8146,3.0557 2.1679,2.037 3.2519,5.0406 3.2519,9.0105 0,2.899 -0.5224,5.3411 -1.5673,7.3259 -1.0446,1.9851 -2.5855,3.4804 -4.6227,4.4858 -2.0373,1.0054 -4.5576,1.5083 -7.5612,1.5083 z m 10.421,-2.0372 c 1.5934,0 2.9775,-0.209 4.1528,-0.6268 1.1752,-0.4178 2.135,-1.0774 2.8794,-1.9783 0.7444,-0.9011 1.2994,-2.0568 1.6651,-3.4673 0.3657,-1.4103 0.5485,-3.1079 0.5485,-5.0927 0,-1.6977 -0.1894,-3.1669 -0.5681,-4.4076 -0.3787,-1.2405 -0.9467,-2.2723 -1.7042,-3.0949 -0.7574,-0.8226 -1.7172,-1.4298 -2.8794,-1.8215 -1.1622,-0.3921 -2.5401,-0.588 -4.1332,-0.588 -0.7574,0 -1.4496,0.0199 -2.0764,0.059 -0.6267,0.0391 -1.1882,0.1108 -1.6846,0.2154 v 20.4109 c 0.3918,0.1046 0.9468,0.1959 1.6651,0.2744 0.7183,0.0782 1.4298,0.1174 2.135,0.1174 z m 17.081,2.0372 v -1.7237 l 3.2125,-0.5877 v -20.7635 l -3.2125,-0.5876 v -1.7237 h 9.8334 v 1.7237 l -3.2125,0.5876 v 20.7635 l 3.2125,0.5877 v 1.7237 z m 14.1821,0 v -1.6455 l 2.664,-0.6267 V 450.102 l -2.4682,-0.5482 v -1.7237 h 5.7198 l 12.7324,19.4706 0.5876,1.1752 h 0.1567 V 450.102 l -2.664,-0.6267 v -1.6452 h 7.757 v 1.6452 l -2.6248,0.6267 v 23.1143 h -3.2517 l -12.8106,-19.5882 -0.5094,-1.0579 h -0.1567 v 18.3739 l 2.7425,0.6267 v 1.6455 z m 39.6467,0.4309 c -3.7085,0 -6.5554,-1.012 -8.5405,-3.0362 -1.9848,-2.0239 -2.9775,-5.2821 -2.9775,-9.7744 0,-1.9066 0.294,-3.676 0.8816,-5.3085 0.5876,-1.6324 1.4235,-3.0557 2.5072,-4.2701 1.084,-1.2146 2.403,-2.1679 3.9569,-2.8599 1.554,-0.6922 3.2973,-1.0383 5.2302,-1.0383 2.0109,0 3.6499,0.1437 4.9164,0.4309 1.2668,0.2874 2.1354,0.5485 2.6053,0.7835 v 6.0724 h -1.8805 l -1.1361,-4.3093 c -0.5485,-0.1828 -1.2665,-0.3396 -2.1546,-0.4702 -0.8881,-0.1304 -1.7368,-0.1959 -2.5464,-0.1959 -3.0557,0 -5.2302,0.8555 -6.523,2.5662 -1.2929,1.7107 -1.9392,4.4464 -1.9392,8.2074 0,2.3766 0.2676,4.3878 0.803,6.0333 0.5355,1.6452 1.3975,2.8859 2.5858,3.7216 1.1883,0.8359 2.7881,1.2537 4.799,1.2537 0.8621,0 1.5801,-0.0391 2.1547,-0.1176 0.5745,-0.0782 1.0904,-0.2024 1.5477,-0.3722 0.4569,-0.1698 0.9204,-0.3852 1.3907,-0.6463 v -7.287 l -2.7817,-0.705 v -1.6846 h 7.7179 v 1.9587 l -1.6064,0.3135 v 10.3034 h -1.4102 l -0.862,-1.0579 h -0.5091 c -0.4964,0.3135 -1.2147,0.6401 -2.1549,0.9797 -0.94,0.3393 -2.2984,0.5091 -4.0743,0.5091 z m 22.017,-0.4309 v -1.6846 l 3.2516,-0.6659 v -20.6852 l -3.2516,-0.6662 v -1.6843 h 9.6375 c 1.9327,0 3.6238,0.2089 5.0735,0.6267 1.4493,0.4178 2.5724,1.1035 3.3689,2.0568 0.7969,0.9533 1.1951,2.2658 1.1951,3.9371 0,1.8805 -0.3917,3.4608 -1.1755,4.7404 -0.7835,1.2798 -1.8802,2.2396 -3.2907,2.8794 -1.4103,0.6401 -3.0428,0.9598 -4.8972,0.9598 -0.235,0 -0.4634,-0.007 -0.6854,-0.0196 -0.2219,-0.013 -0.4507,-0.0326 -0.6857,-0.0586 l -0.1959,-1.5279 c 1.567,-0.0261 2.8925,-0.2415 3.9765,-0.6463 1.0839,-0.4051 1.9131,-1.0514 2.4877,-1.9395 0.5745,-0.8878 0.862,-2.063 0.862,-3.5257 0,-1.8805 -0.542,-3.2256 -1.626,-4.0351 -1.0839,-0.8099 -2.5398,-1.2147 -4.3682,-1.2147 -0.5746,0 -1.1426,0.0196 -1.7042,0.059 -0.5615,0.0391 -1.0119,0.0847 -1.3515,0.1369 v 20.4894 l 4.3486,0.6661 v 1.802 z m 22.1346,0 v -1.6846 l 3.2516,-0.6659 v -20.6852 l -3.2516,-0.6662 v -1.6843 h 10.186 v 1.8411 l -3.5651,0.5876 v 20.4894 l 3.8392,0.3135 h 4.4272 l 0.8617,-4.1919 h 1.9196 v 6.3465 z m 17.9039,0 v -1.7237 l 2.3505,-0.4703 8.6187,-23.3884 h 2.1549 l 8.9714,23.3493 2.5073,0.5094 v 1.7237 h -9.3632 v -1.7237 l 3.2517,-0.5094 -1.9197,-5.093 h -9.6766 l -1.7237,5.093 3.1734,0.5094 v 1.7237 z m 7.6785,-9.559 h 8.0705 l -3.5651,-9.6766 -0.4703,-1.6064 h -0.1958 l -0.4309,1.6064 z m 18.7262,9.559 v -1.6455 l 2.664,-0.6267 V 450.102 l -2.4681,-0.5482 v -1.7237 h 5.7198 l 12.7323,19.4706 0.5877,1.1752 h 0.1567 V 450.102 l -2.664,-0.6267 v -1.6452 h 7.757 v 1.6452 l -2.6249,0.6267 v 23.1143 h -3.2516 l -12.8106,-19.5882 -0.5094,-1.0579 h -0.1567 v 18.3739 l 2.7425,0.6267 v 1.6455 z m 28.4814,0 v -1.6455 l 2.664,-0.6267 V 450.102 l -2.4681,-0.5482 v -1.7237 h 5.7198 l 12.7323,19.4706 0.5877,1.1752 h 0.1567 V 450.102 l -2.664,-0.6267 v -1.6452 h 7.757 v 1.6452 l -2.6249,0.6267 v 23.1143 h -3.2516 l -12.8106,-19.5882 -0.5094,-1.0579 h -0.1567 v 18.3739 l 2.7425,0.6267 v 1.6455 z m 28.4814,0 v -1.6846 l 3.2516,-0.6659 v -20.6852 l -3.2516,-0.6662 v -1.6843 h 17.943 v 6.4247 h -1.9196 l -0.8229,-4.2701 h -4.7404 l -3.8392,0.235 v 8.9714 h 6.19 l 0.5876,-2.3114 h 1.6453 v 6.6991 h -1.6453 l -0.5876,-2.3114 h -6.19 v 9.2849 c 0.4963,0.1307 1.1492,0.235 1.9587,0.3135 0.8099,0.0783 1.5934,0.1174 2.3508,0.1174 h 4.5836 l 0.8618,-4.1919 h 1.9199 v 6.425 z m 22.409,0 v -1.6846 l 3.2516,-0.6659 v -20.6852 l -3.2516,-0.6662 v -1.6843 h 11.0478 c 1.4366,0 2.749,0.2219 3.9373,0.6658 1.1883,0.4439 2.1416,1.1231 2.8599,2.0373 0.7183,0.9142 1.0774,2.1025 1.0774,3.5648 0,1.2277 -0.1567,2.2658 -0.4702,3.1148 -0.3133,0.8486 -0.7379,1.5539 -1.2731,2.1155 -0.5355,0.5615 -1.1296,1.038 -1.7827,1.4297 -0.6528,0.3921 -1.345,0.7444 -2.0764,1.0579 l 5.4457,8.9714 2.7422,0.7444 v 1.6846 h -3.6043 c -0.6006,0 -1.051,-0.0913 -1.3515,-0.2741 -0.3002,-0.1828 -0.5942,-0.4963 -0.8813,-0.9402 l -5.4456,-9.4808 h -3.6043 v 8.3446 l 3.2516,0.6659 v 1.6846 z m 6.6209,-12.85 h 2.4681 c 1.2277,0 2.2984,-0.235 3.2125,-0.705 0.9142,-0.4702 1.6325,-1.1231 2.1547,-1.959 0.5224,-0.8357 0.7834,-1.802 0.7834,-2.899 0,-1.0706 -0.176,-1.9261 -0.5286,-2.5659 -0.3526,-0.6401 -0.8034,-1.1166 -1.3516,-1.4301 -0.5485,-0.3132 -1.1361,-0.5159 -1.7631,-0.6072 -0.6268,-0.0915 -1.2274,-0.1372 -1.802,-0.1372 -0.4703,0 -0.9989,0.0196 -1.5868,0.059 -0.5877,0.0391 -1.1163,0.0847 -1.5866,0.1369 z m 33.7309,13.2418 c -1.097,0 -2.1807,-0.1044 -3.2516,-0.3135 -1.0707,-0.209 -2.0373,-0.5746 -2.899,-1.0968 -0.8621,-0.5224 -1.5475,-1.2342 -2.0569,-2.1353 -0.5093,-0.9009 -0.7639,-2.0565 -0.7639,-3.4671 0,-1.0445 0.1828,-1.9587 0.5485,-2.7422 0.3657,-0.7835 0.8161,-1.4562 1.3516,-2.0177 0.5354,-0.5615 1.0774,-1.025 1.6259,-1.3907 0.5482,-0.3657 1.0185,-0.64 1.4103,-0.8226 -0.9403,-1.0448 -1.6847,-2.0373 -2.2332,-2.9775 -0.5485,-0.9403 -0.8226,-1.9587 -0.8226,-3.0558 0,-1.1491 0.2741,-2.1875 0.8226,-3.1147 0.5485,-0.9269 1.3516,-1.6778 2.4095,-2.2524 1.0579,-0.5746 2.37,-0.862 3.9373,-0.862 0.8878,0 1.7042,0.0652 2.4486,0.1959 0.7441,0.1307 1.4037,0.2809 1.9783,0.4504 0.5745,0.1698 1.0054,0.32 1.2928,0.4507 v 5.798 h -1.9196 l -0.7835,-3.996 c 0,0 -0.2744,-0.1043 -0.8229,-0.3132 -0.5485,-0.2089 -1.3972,-0.3135 -2.5463,-0.3135 -1.4366,0 -2.429,0.3135 -2.9775,0.9402 -0.5486,0.6268 -0.8227,1.4888 -0.8227,2.5858 0,0.5746 0.0848,1.0771 0.2546,1.508 0.1698,0.4312 0.4768,0.9011 0.9207,1.4105 0.4439,0.5094 1.0579,1.1818 1.8414,2.0174 l 8.5405,8.8541 c 0.3656,-0.8618 0.5482,-1.8675 0.5482,-3.0167 0,-0.9141 -0.0522,-1.652 -0.1565,-2.2133 -0.1046,-0.5615 -0.1959,-0.9337 -0.2744,-1.1165 l -3.2516,-0.627 v -1.7629 h 5.328 c 0.2611,0.7835 0.4504,1.6064 0.5681,2.4681 0.1176,0.862 0.1763,1.9327 0.1763,3.2125 0,0.7835 -0.1046,1.5931 -0.3135,2.429 -0.2089,0.8357 -0.5352,1.6192 -0.9794,2.3505 l 2.1549,2.194 3.0163,0.6659 v 1.6846 h -3.3689 c -0.4179,0 -0.8686,-0.0847 -1.3516,-0.2545 -0.4833,-0.1698 -0.9337,-0.4507 -1.3518,-0.8425 l -1.0576,-1.0576 c -0.8621,0.7574 -1.8936,1.3711 -3.0949,1.8411 -1.2016,0.4703 -2.5597,0.7053 -4.0745,0.7053 z m 0.5094,-2.429 c 1.0184,0 1.9652,-0.1435 2.8403,-0.4309 0.8747,-0.2872 1.6387,-0.7053 2.2918,-1.2538 l -8.4623,-8.6578 c -0.3132,0.1828 -0.6789,0.4895 -1.0967,0.9207 -0.4181,0.4308 -0.7903,0.9924 -1.1166,1.6846 -0.3265,0.6919 -0.4898,1.5605 -0.4898,2.605 0,1.097 0.1763,2.0308 0.5289,2.8012 0.3527,0.7705 0.9599,1.3516 1.8219,1.7433 0.8617,0.3918 2.0894,0.5877 3.6825,0.5877 z m 22.7613,2.0372 v -1.6846 l 3.2516,-0.6659 v -20.6461 l -3.2516,-0.7053 v -1.6843 h 11.5571 c 3.7089,0 6.647,1.0185 8.8147,3.0557 2.1679,2.037 3.2519,5.0406 3.2519,9.0105 0,2.899 -0.5225,5.3411 -1.5673,7.3259 -1.0446,1.9851 -2.5855,3.4804 -4.6227,4.4858 -2.0373,1.0054 -4.5576,1.5083 -7.5612,1.5083 z m 10.421,-2.0372 c 1.5934,0 2.9775,-0.209 4.1528,-0.6268 1.1752,-0.4178 2.135,-1.0774 2.8794,-1.9783 0.7444,-0.9011 1.2994,-2.0568 1.6651,-3.4673 0.3657,-1.4103 0.5485,-3.1079 0.5485,-5.0927 0,-1.6977 -0.1894,-3.1669 -0.5681,-4.4076 -0.3787,-1.2405 -0.9467,-2.2723 -1.7042,-3.0949 -0.7574,-0.8226 -1.7172,-1.4298 -2.8794,-1.8215 -1.1622,-0.3921 -2.5401,-0.588 -4.1332,-0.588 -0.7574,0 -1.4496,0.0199 -2.0764,0.059 -0.6267,0.0391 -1.1883,0.1108 -1.6846,0.2154 v 20.4109 c 0.3917,0.1046 0.9468,0.1959 1.6651,0.2744 0.7183,0.0782 1.4298,0.1174 2.135,0.1174 z m 17.081,2.0372 v -1.6846 l 3.2517,-0.6659 v -20.6852 l -3.2517,-0.6662 v -1.6843 h 17.9431 v 6.4247 h -1.9197 l -0.8229,-4.2701 h -4.7403 l -3.8393,0.235 v 8.9714 h 6.19 l 0.5876,-2.3114 h 1.6453 v 6.6991 h -1.6453 l -0.5876,-2.3114 h -6.19 v 9.2849 c 0.4964,0.1307 1.1492,0.235 1.9588,0.3135 0.8098,0.0783 1.5933,0.1174 2.3507,0.1174 h 4.5836 l 0.8618,-4.1919 h 1.9199 v 6.425 z m 33.6135,0.4309 c -3.9435,0 -6.8558,-1.097 -8.7363,-3.2908 -1.8805,-2.194 -2.8208,-5.3671 -2.8208,-9.5198 0,-1.7759 0.2809,-3.4736 0.8425,-5.093 0.5615,-1.6192 1.3776,-3.0558 2.4485,-4.3096 1.0707,-1.2534 2.3766,-2.2458 3.9175,-2.9772 1.5409,-0.7313 3.291,-1.097 5.2498,-1.097 1.4366,0 2.8142,0.0981 4.1332,0.294 1.3189,0.1958 2.4222,0.4765 3.3103,0.8421 v 6.1507 h -1.9588 l -0.8229,-4.3093 c -0.6267,-0.1828 -1.4037,-0.333 -2.3309,-0.4507 -0.9272,-0.1173 -1.8476,-0.1763 -2.7618,-0.1763 -1.8023,0 -3.3041,0.4116 -4.5054,1.2342 -1.2013,0.8226 -2.1024,2.0568 -2.7031,3.7021 -0.6007,1.6455 -0.9011,3.7218 -0.9011,6.2291 0,1.8023 0.1828,3.3692 0.5485,4.7012 0.3656,1.332 0.8881,2.4356 1.567,3.3103 0.6791,0.8751 1.5213,1.5214 2.5268,1.9392 1.0057,0.4181 2.1614,0.627 3.4673,0.627 1.0446,0 1.9262,-0.085 2.6444,-0.2548 0.7181,-0.1698 1.2926,-0.3722 1.7238,-0.6072 0.4309,-0.235 0.7509,-0.4178 0.9598,-0.5485 l 0.7835,-4.0351 h 1.9196 v 5.9548 c -0.4963,0.2091 -1.11,0.4507 -1.8414,0.7248 -0.7313,0.2744 -1.6321,0.5028 -2.7031,0.6857 -1.0709,0.1828 -2.3899,0.2741 -3.9569,0.2741 z m 24.1719,0.0785 c -3.8392,0 -6.7513,-1.1296 -8.7364,-3.3888 -1.9848,-2.2592 -2.9775,-5.3867 -2.9775,-9.3827 0,-2.5336 0.4768,-4.8189 1.4301,-6.8562 0.9533,-2.0369 2.357,-3.6694 4.2114,-4.8968 1.8545,-1.2277 4.1658,-1.8414 6.9344,-1.8414 2.3505,0 4.3552,0.5094 6.0134,1.5279 1.6586,1.0185 2.9319,2.4616 3.8197,4.3291 0.8881,1.8674 1.332,4.1201 1.332,6.7578 0,1.8805 -0.2284,3.6501 -0.6854,5.3084 -0.4572,1.6585 -1.1687,3.1212 -2.1353,4.3877 -0.9664,1.2668 -2.2068,2.2593 -3.7216,2.9776 -1.5149,0.7183 -3.3432,1.0774 -5.4848,1.0774 z m 0.7835,-2.2331 c 1.7498,0 3.1538,-0.4113 4.2114,-1.2342 1.0579,-0.8227 1.8349,-2.037 2.3313,-3.6434 0.496,-1.6061 0.7443,-3.5714 0.7443,-5.8961 0,-2.2983 -0.1893,-4.1723 -0.568,-5.6216 -0.3787,-1.4497 -0.9207,-2.5662 -1.626,-3.3497 -0.7052,-0.7835 -1.5279,-1.319 -2.4681,-1.6062 -0.9403,-0.2874 -1.9718,-0.4311 -3.0949,-0.4311 -0.8359,0 -1.6455,0.059 -2.429,0.1763 -0.7835,0.1177 -1.5213,0.3722 -2.2136,0.764 -0.6919,0.3917 -1.2926,0.9926 -1.8019,1.8022 -0.5094,0.8096 -0.9142,1.8805 -1.2147,3.2125 -0.3002,1.332 -0.4504,3.0167 -0.4504,5.0536 0,2.6119 0.3331,4.7078 0.9989,6.2878 0.6662,1.5804 1.6325,2.723 2.8993,3.428 1.2665,0.7052 2.827,1.0579 4.6814,1.0579 z m 15.122,1.7237 v -1.6846 l 3.2516,-0.6659 v -20.6852 l -3.2516,-0.6662 v -1.6843 h 11.0477 c 1.4366,0 2.7491,0.2219 3.9374,0.6658 1.1882,0.4439 2.1415,1.1231 2.8598,2.0373 0.7183,0.9142 1.0775,2.1025 1.0775,3.5648 0,1.2277 -0.1568,2.2658 -0.4703,3.1148 -0.3132,0.8486 -0.7378,1.5539 -1.273,2.1155 -0.5355,0.5615 -1.1296,1.038 -1.7827,1.4297 -0.6528,0.3921 -1.3451,0.7444 -2.0764,1.0579 l 5.4456,8.9714 2.7423,0.7444 v 1.6846 h -3.6043 c -0.6006,0 -1.0511,-0.0913 -1.3515,-0.2741 -0.3002,-0.1828 -0.5942,-0.4963 -0.8813,-0.9402 l -5.4457,-9.4808 h -3.6042 v 8.3446 l 3.2516,0.6659 v 1.6846 z m 6.6209,-12.85 h 2.4681 c 1.2277,0 2.2983,-0.235 3.2125,-0.705 0.9142,-0.4702 1.6325,-1.1231 2.1546,-1.959 0.5224,-0.8357 0.7835,-1.802 0.7835,-2.899 0,-1.0706 -0.176,-1.9261 -0.5286,-2.5659 -0.3527,-0.6401 -0.8034,-1.1166 -1.3516,-1.4301 -0.5485,-0.3132 -1.1361,-0.5159 -1.7632,-0.6072 -0.6267,-0.0915 -1.2274,-0.1372 -1.8019,-0.1372 -0.4703,0 -0.999,0.0196 -1.5869,0.059 -0.5876,0.0391 -1.1163,0.0847 -1.5865,0.1369 z"
     style="fill:#1b1918;fill-rule:evenodd"
     id="path4" />
  <path
     d="m 351.1735,404.119 c 0,-9.4207 -5.6525,-13.6263 -18.2633,-18.5528 l -5.5086,-2.1738 c -14.7834,-5.799 -24.93,-14.2061 -24.93,-28.9898 0,-16.6703 14.0596,-26.8169 32.4681,-26.8169 9.712,0 17.3944,3.044 23.6268,7.682 l -0.8703,18.8445 h -8.6965 l -4.0595,-21.8872 9.2773,4.7832 v 7.2468 c -7.1012,-6.9574 -12.4656,-9.4229 -20.148,-9.4229 -11.306,0 -19.8573,5.6538 -19.8573,16.5252 0,9.1311 5.9419,14.4945 16.5241,18.5527 l 5.6535,2.1761 c 19.1326,7.3907 26.5256,15.7991 26.5256,29.4244 0,17.1037 -14.3504,27.5397 -34.209,27.5397 -10.8703,0 -21.4525,-3.4786 -28.1205,-7.6811 l 0.8703,-20.2932 h 8.6975 l 3.7681,22.3206 -9.4206,-4.056 v -6.9583 c 8.9847,6.5227 13.9147,9.4203 23.7706,9.4203 13.7705,0 22.9017,-6.3763 22.9017,-17.6835 z"
     style="fill:#000000;fill-rule:evenodd;stroke:#000000;stroke-width:0.216;stroke-linecap:butt;stroke-linejoin:miter;stroke-dasharray:none"
     id="path6" />
  <path
     d="m 428.2579,421.4409 18.2637,-2.1741 h 2.8988 l 17.9739,2.1741 v 5.7964 H 428.2579 Z M 399.7018,388.826 h 39.1361 l 2.3203,6.6692 h -43.7744 z m 16.9598,-59.4294 h 8.6965 l 33.3397,97.8407 h -13.4811 l -29.135,-86.8251 h 3.3345 l -29.5706,86.8251 h -6.8122 z m -43.195,92.0443 14.4956,-2.1741 h 2.8979 l 15.9452,2.1741 v 5.7964 h -33.3387 z"
     style="fill:#000000;fill-rule:evenodd;stroke:#000000;stroke-width:0.216;stroke-linecap:butt;stroke-linejoin:miter;stroke-dasharray:none"
     id="path8" />
  <path
     d="m 576.5691,329.7598 h 20.292 v 5.7977 l -18.8432,2.1738 h -1.4488 z m -6.2323,52.1816 v -52.1816 h 13.1893 c -0.4355,14.6394 -0.4355,29.7145 -0.4355,44.9338 v 7.2478 c 0,14.9301 0,30.0042 0.4355,44.9341 h -13.6249 c 0.4356,-14.6408 0.4356,-29.7136 0.4356,-44.9341 z m -12.6122,39.1364 17.3944,-2.1729 h 2.8989 l 18.8432,2.1729 v 5.7977 h -39.1365 z m -66.0963,-91.318 h 12.9003 l 35.5125,86.969 h -4.9287 l 33.6281,-86.969 h 7.6821 l -37.8302,97.1157 h -7.1039 z m -0.1452,0 h 6.0872 l 1.3049,43.1959 v 53.9198 h -7.3921 z m -13.0454,91.318 15.2205,-2.1729 h 2.8979 l 14.2049,2.1729 v 5.7977 h -32.3233 z m 0,-91.318 h 19.1326 v 7.9715 h -1.7382 l -17.3944,-2.1738 z"
     style="fill:#000000;fill-rule:evenodd;stroke:#000000;stroke-width:0.216;stroke-linecap:butt;stroke-linejoin:miter;stroke-dasharray:none"
     id="path10" />
  <path
     d="m 628.0196,375.0564 c 0,-14.9298 0,-30.0039 -0.4334,-44.9338 h 13.9147 c -0.4346,14.6395 -0.4346,29.7136 -0.4346,44.9338 v 7.2468 c 0,14.9312 0,30.0053 0.4346,44.9351 h -13.9147 c 0.4334,-14.6407 0.4334,-29.7135 0.4334,-44.9351 z m 7.9728,44.2104 18.8431,2.1738 v 5.7977 h -40.5852 v -5.7977 l 18.8423,-2.1738 z m -21.7421,-83.3465 v -5.7977 h 40.5852 v 5.7977 l -18.8431,2.1738 h -2.8998 z"
     style="fill:#000000;fill-rule:evenodd;stroke:#000000;stroke-width:0.216;stroke-linecap:butt;stroke-linejoin:miter;stroke-dasharray:none"
     id="path12" />
  <path
     d="m 720.338,375.7811 2.1738,-15.3635 h 6.5214 v 34.3519 h -6.5214 L 720.338,378.68 Z m 27.5397,25.6563 -1.0145,25.8006 h -54.6461 v -7.2468 h 49.5725 l -6.5218,7.2468 4.4919,-25.8006 z M 724.976,381.0012 h -32.7598 v -6.6701 h 32.7598 z m 7.392,-50.8792 6.5227,7.2478 h -46.6736 v -7.2478 h 51.7463 l 1.0142,25.8015 h -8.1158 z m -46.6746,44.9341 c 0,-14.9289 0,-30.0039 -0.4333,-44.9341 h 13.9157 c -0.4359,14.6398 -0.4359,29.7148 -0.4359,44.9341 v 5.5095 c 0,16.6694 0,31.7422 0.4359,46.6724 h -13.9157 c 0.4333,-14.6407 0.4333,-29.7139 0.4333,-44.9341 z m 6.5237,44.2113 v 7.9706 h -20.2929 v -5.7968 l 18.8432,-2.1738 z M 671.9242,335.921 v -5.799 h 20.2929 v 7.9715 h -1.4497 z"
     style="fill:#000000;fill-rule:evenodd;stroke:#000000;stroke-width:0.216;stroke-linecap:butt;stroke-linejoin:miter;stroke-dasharray:none"
     id="path14" />
  <path
     d="m 119.822,316.5931 c -0.5743,0.1953 -1.1828,0.3666 -1.7917,0.541 l -0.4583,0.1305 c -0.1631,0.0462 -0.3492,0.1095 -0.5119,0.1735 -0.3298,0.1347 -0.6331,0.2909 -0.9239,0.4554 -1.153,0.6653 -2.1664,1.4187 -3.2214,2.1041 -1.0487,0.6889 -2.1167,1.3301 -3.2397,1.8376 -0.555,0.2473 -1.1479,0.4945 -1.7008,0.6351 -0.569,0.1426 -1.1676,0.2055 -1.772,0.2066 -1.2125,-0.006 -2.4392,-0.2308 -3.637,-0.5596 -0.5998,-0.1645 -1.1927,-0.3613 -1.7776,-0.58 -0.2923,-0.1108 -0.5828,-0.2264 -0.8702,-0.3488 l -0.373,-0.1638 c 1.8805,-1.0293 3.6509,-2.2292 5.2778,-3.6275 0.4397,-0.3817 0.8705,-0.7924 1.2819,-1.1924 0.4102,-0.3973 0.8378,-0.7836 1.2669,-1.1691 0.7633,-0.6847 1.531,-1.3717 2.2843,-2.0769 0.2055,0.0633 0.6407,0.1979 0.6831,0.2081 l 0.1241,0.0255 0.2278,0.0402 0.4337,0.061 c 0.2847,0.0353 0.5638,0.0633 0.8417,0.0872 0.5478,0.0531 1.1442,0.066 1.5518,0.127 0.4492,0.0697 0.8981,0.199 1.3239,0.3966 0.2149,0.094 0.4212,0.21 0.6214,0.332 0.1005,0.0615 0.1978,0.1271 0.2915,0.1946 l 0.1365,0.1019 0.0633,0.0509 0.0284,0.0234 0.0133,0.0114 0.003,0.003 7e-4,3e-4 3e-4,4e-4 h 5e-4 c 0.0124,-0.0121 -0.027,0.0273 0.0276,-0.0273 l 0.5566,0.2139 c 1.1658,-0.0774 2.3559,0.0754 3.3071,0.5967 0.2347,0.1285 0.4507,0.2828 0.6267,0.4516 0.0875,0.0833 0.1652,0.172 0.2222,0.2543 0.0147,0.0197 0.0276,0.0405 0.039,0.0606 -0.0459,0.032 -0.1032,0.0665 -0.1668,0.099 -0.2263,0.1179 -0.5073,0.2241 -0.7913,0.3223 z M 99.678,314.029 c 0.6873,-2.2345 1.9885,-4.2253 3.7094,-5.746 0.4271,-0.3837 0.8852,-0.7332 1.3576,-1.0622 0.4841,-0.3291 0.9994,-0.6476 1.4967,-0.9718 1.0187,-0.6153 2.0443,-1.2177 3.1036,-1.7314 1.0532,-0.5243 2.131,-0.9884 3.2226,-1.3323 0.5452,-0.1638 1.0929,-0.3177 1.6317,-0.4075 0.2695,-0.0523 0.5372,-0.0843 0.7931,-0.1039 0.13,-0.0114 0.2541,-0.0159 0.3724,-0.0149 0.0629,-0.003 0.1117,0.004 0.166,0.005 0.0152,4e-4 0.0236,0.002 0.0348,0.003 -0.0579,0.4477 -0.1273,0.8852 -0.246,1.2874 -0.2987,1.0783 -0.8022,2.0993 -1.3857,3.0687 -1.1968,1.9317 -2.7589,3.6347 -4.4131,5.2286 -0.8279,0.7996 -1.6843,1.5714 -2.5408,2.352 -0.4277,0.3913 -0.8557,0.784 -1.2735,1.1951 -0.4148,0.4098 -0.8185,0.8011 -1.2493,1.1817 -1.6131,1.4111 -3.4033,2.6467 -5.2793,3.682 -0.3263,-2.2042 -0.1546,-4.5232 0.4998,-6.6332 z m 11.1163,-2.7888 -7e-4,10e-4 c -0.0134,-0.005 -0.0221,-0.008 7e-4,-10e-4 z m 6.2362,-5.1447 c 0.2923,0.1459 0.2688,0.2285 0.212,0.428 -0.0493,0.1722 -0.1236,0.4322 0.1178,0.6737 0.3356,0.3355 0.6916,0.2165 0.9524,0.1301 0.0998,-0.0335 0.1949,-0.0653 0.281,-0.0728 0.0379,0.102 0.0379,0.3889 0.0379,0.5668 0,0.4659 0,0.9478 0.3791,0.9478 0.1399,0 0.3117,-0.0618 0.5293,-0.1403 0.5664,-0.2036 1.0141,-0.3302 1.1969,0.0356 0.6767,1.3531 -0.6491,2.9997 -3.7374,4.6735 -0.0368,0 -0.0728,0.002 -0.1097,0.002 l -0.166,-0.1441 c -0.1191,-0.0993 -0.24,-0.1929 -0.3639,-0.2817 -0.2488,-0.1774 -0.5047,-0.3434 -0.7754,-0.4864 -0.536,-0.2949 -1.1214,-0.5132 -1.7314,-0.6517 -0.6548,-0.1372 -1.142,-0.1668 -1.6651,-0.2563 -0.2583,-0.0397 -0.5145,-0.0838 -0.7636,-0.1315 l -0.1323,-0.0281 c 1.184,-1.2216 2.2899,-2.5299 3.2093,-3.9858 0.3098,-0.5053 0.5997,-1.0266 0.8541,-1.5669 0.4069,5e-4 1.1738,0.0368 1.675,0.2882 z m -42.6748,51.742 c -0.0648,0.0564 -0.127,0.116 -0.1915,0.1728 0.543,-0.8462 1.0469,-1.7215 1.4514,-2.6804 0.2107,-0.5008 0.3961,-1.0672 0.4879,-1.6503 0.0853,-0.5558 0.1251,-1.0794 0.1737,-1.6105 l 0.2437,-3.1354 c 0.1722,-2.0776 0.4106,-4.1409 0.7678,-6.1771 0.1766,-1.0172 0.3992,-2.0294 0.6596,-3.0171 0.2821,-0.9399 0.6775,-1.8907 1.1075,-2.8283 1.7507,-3.7564 3.8613,-7.3891 5.9564,-11.009 1.8926,-3.2553 3.8492,-6.4771 5.8181,-9.6912 -0.3015,1.2253 -0.5559,2.4585 -0.7639,3.7032 -0.2749,1.6617 -0.4637,3.3549 -0.4384,5.045 -0.0052,3.3531 -0.1864,6.7079 -0.6482,10.0265 -0.4611,3.3139 -1.1848,6.6069 -2.4056,9.718 -0.615,1.5504 -1.3418,3.0627 -2.2709,4.4439 -0.565,0.8462 -1.1993,1.6468 -1.9036,2.3771 -0.2867,0.2346 -0.5767,0.4659 -0.8678,0.6961 -2.3768,1.8614 -4.8859,3.5955 -7.1762,5.6167 z m 47.7866,-41.7521 c -0.0527,-0.3298 -0.1698,-0.5254 -0.2851,-0.7131 -0.1187,-0.182 -0.2499,-0.3351 -0.3879,-0.4743 -0.2755,-0.2775 -0.5789,-0.4993 -0.8951,-0.6843 -0.9034,-0.5194 -1.8868,-0.7609 -2.865,-0.8416 1.6128,-0.9331 2.6994,-1.857 3.2191,-2.7548 0.4307,-0.7435 0.4804,-1.4574 0.1479,-2.1224 -0.348,-0.6956 -1.1719,-0.3999 -1.6644,-0.2224 -0.1375,0.0492 -0.2794,0.1 -0.3635,0.1141 -0.0376,-0.1036 -0.0376,-0.3886 -0.0376,-0.5653 0,-0.466 0,-0.9479 -0.3791,-0.9479 -0.157,0 -0.3003,0.0479 -0.439,0.0941 -0.2662,0.0887 -0.4015,0.124 -0.5642,-0.0383 -0.0755,-0.0754 -0.0713,-0.1278 -0.0216,-0.3014 0.0625,-0.2187 0.1672,-0.5847 -0.4068,-0.8716 -0.5088,-0.2544 -1.2207,-0.3162 -1.6825,-0.3268 0.18,-0.4171 0.3442,-0.8417 0.4705,-1.2819 0.3476,-1.1449 0.467,-2.3677 0.3495,-3.5695 l -0.3753,-0.1133 7e-4,-0.005 c -0.01,-10e-4 -0.0171,-0.002 -0.0258,-0.003 l -0.001,-3e-4 v 3e-4 c -0.0891,-0.011 -0.1342,-0.0117 -0.1854,-0.0148 -0.0595,-0.003 -0.1122,-0.005 -0.1589,-0.003 -0.0973,0.001 -0.2001,-4e-4 -0.2884,0.007 -0.1854,0.009 -0.3637,0.0258 -0.535,0.05 -0.3462,0.0452 -0.6797,0.1054 -1.0016,0.1847 -0.6514,0.1468 -1.2637,0.3552 -1.8688,0.5736 -1.2018,0.4512 -2.3301,1.0135 -3.4171,1.628 -1.0937,0.6054 -2.1276,1.2894 -3.1493,1.9839 -0.5008,0.3651 -0.9994,0.7132 -1.5002,1.0912 -0.5062,0.3874 -0.9956,0.798 -1.4509,1.2457 -0.9122,0.8933 -1.7163,1.9041 -2.3453,3.0126 -0.6233,1.1117 -1.0983,2.2994 -1.3956,3.524 -0.3075,1.2215 -0.4432,2.4749 -0.4527,3.7192 0.0012,1.1867 0.11,2.3525 0.3803,3.5228 -1.1135,1.0377 -1.9298,2.3101 -2.6554,3.5957 -0.7454,1.3478 -1.3686,2.7494 -1.9532,4.1586 -1.1746,2.8185 -2.1361,5.7017 -3.1692,8.5452 -1.0425,2.8358 -2.0658,5.6823 -3.4151,8.3376 -0.6821,1.3323 -1.4498,2.5634 -2.4856,3.6265 -0.2032,0.2172 -0.4166,0.4264 -0.6312,0.635 0.1236,-0.1725 0.2441,-0.3466 0.3616,-0.5228 0.9474,-1.4093 1.6852,-2.9447 2.3078,-4.5147 1.2363,-3.1509 1.9642,-6.4701 2.4282,-9.8057 0.4648,-3.3389 0.6469,-6.7113 0.6522,-10.0772 -0.0251,-1.6719 0.1607,-3.3325 0.433,-4.9835 0.2756,-1.6489 0.6357,-3.2905 1.0767,-4.8999 l 0.2904,-1.0608 -0.6309,0.9046 h -4e-4 c -1.2048,1.7204 -2.3759,3.4614 -3.5315,5.2141 -1.1556,1.7523 -2.3081,3.508 -3.4197,5.2903 -2.2224,3.5672 -4.4085,7.1538 -6.2768,10.9686 -0.455,0.9626 -0.8842,1.9434 -1.2179,3.0099 -0.2873,1.0353 -0.5281,2.0707 -0.7241,3.1171 -0.4041,2.0886 -0.6373,4.1981 -0.8261,6.298 l -0.2574,3.1354 c -0.0489,0.5126 -0.0921,1.035 -0.169,1.5157 -0.0767,0.452 -0.2116,0.8902 -0.3928,1.3611 -0.6874,1.7781 -1.6219,3.5407 -2.4352,5.3699 -1.3075,1.4274 -2.4651,3.0012 -3.3602,4.7475 -0.1725,0.3469 -0.3333,0.7007 -0.4959,1.0532 -0.1459,0.3594 -0.3074,0.7146 -0.4409,1.0806 -0.1232,0.3676 -0.2722,0.7328 -0.3738,1.1058 l -0.32,1.118 c -0.3735,1.5048 -0.6824,3.0381 -0.8239,4.5996 -0.1614,1.5601 -0.1694,3.1369 -0.0898,4.7235 0.0516,0.7924 0.1255,1.5863 0.237,2.3848 0.5787,4.551 3.3571,1.9044 2.2967,-1.642 -0.0906,-0.3496 -0.1812,-0.7011 -0.2631,-1.0547 -0.3256,-1.4184 -0.4902,-2.8799 -0.5395,-4.3502 -0.0167,-1.4687 0.0736,-2.9495 0.3253,-4.4111 0.2643,-1.4607 0.6142,-2.9007 1.2351,-4.2522 0.6055,-1.3517 1.373,-2.6396 2.2882,-3.8231 0.9182,-1.1799 1.9622,-2.2688 3.0875,-3.2682 2.2441,-2.015 4.7797,-3.6759 7.2497,-5.4525 1.2298,-0.8978 2.4575,-1.8206 3.5664,-2.9106 0.5539,-0.5432 1.0858,-1.1218 1.5461,-1.7668 0.461,-0.6368 0.8613,-1.3007 1.2321,-1.9786 0.7519,-1.3508 1.3721,-2.7558 1.9477,-4.1707 0.5822,-1.413 1.0971,-2.8466 1.6024,-4.2789 1.0067,-2.867 1.9742,-5.7354 3.0391,-8.553 0.5358,-1.4078 1.1299,-2.7873 1.7937,-4.1241 0.6358,-1.2588 1.3694,-2.4769 2.3135,-3.4835 l 0.0045,0.002 0.2164,0.1103 0.4357,0.2109 c 0.2919,0.1379 0.5869,0.268 0.8841,0.3934 0.5952,0.2491 1.2007,0.4751 1.8191,0.6703 1.2333,0.3955 2.5223,0.6642 3.8519,0.7056 0.6642,0.0159 1.3398,-0.0345 2.0066,-0.1843 0.6829,-0.1581 1.271,-0.3939 1.8817,-0.646 1.2053,-0.5104 2.3369,-1.1556 3.4265,-1.8338 1.09,-0.6726 2.1402,-1.4088 3.2037,-1.9867 0.265,-0.1418 0.5311,-0.2691 0.7924,-0.3678 0.1341,-0.0484 0.2494,-0.0856 0.3923,-0.1224 l 0.4606,-0.1194 c 0.6162,-0.1607 1.2349,-0.3178 1.8681,-0.5156 0.318,-0.1027 0.6368,-0.2097 0.9792,-0.3754 0.171,-0.086 0.3507,-0.1827 0.549,-0.3574 0.097,-0.0884 0.2047,-0.2037 0.2926,-0.3757 0.0213,-0.0432 0.0406,-0.0914 0.058,-0.1377 0.0186,-0.0588 0.0335,-0.1228 0.0432,-0.185 0.0122,-0.1096 0.01,-0.2111 -0.002,-0.2935 z"
     style="fill:#000000;fill-rule:evenodd;stroke:#000000;stroke-width:0.216;stroke-linecap:butt;stroke-linejoin:miter;stroke-dasharray:none"
     id="path16" />
  <path
     d="m 256.2703,392.9737 c 0.0204,0.2544 0.0792,0.5486 0.1474,0.8417 0.1392,0.5899 0.3177,1.1969 0.4933,1.805 l 0.1326,0.4576 c 0.0478,0.1631 0.093,0.3541 0.1244,0.5262 0.0618,0.3507 0.0902,0.6908 0.1058,1.0244 0.0481,1.3303 -0.0516,2.589 -0.072,3.8478 -0.0266,1.2537 -0.003,2.4995 0.1633,3.7204 0.0854,0.6016 0.1911,1.2355 0.3659,1.7785 0.1813,0.5576 0.4454,1.0983 0.7662,1.6112 0.6483,1.0244 1.4907,1.9442 2.4056,2.7839 0.4579,0.4209 0.9395,0.8189 1.4357,1.1984 0.2491,0.1893 0.5012,0.3735 0.7575,0.5521 l 0.337,0.229 c -0.1265,-2.1403 -0.0504,-4.2774 0.2703,-6.3986 0.0899,-0.5755 0.2086,-1.1582 0.3295,-1.7193 0.1187,-0.5588 0.2184,-1.1264 0.3177,-1.6951 0.1744,-1.01 0.3484,-2.0249 0.5464,-3.0379 -0.163,-0.1403 -0.508,-0.438 -0.5392,-0.4686 l -0.0876,-0.091 -0.1549,-0.1722 -0.2822,-0.3351 c -0.1808,-0.2221 -0.3529,-0.4443 -0.5209,-0.6668 -0.3359,-0.4357 -0.6638,-0.9342 -0.9319,-1.2474 -0.2976,-0.3435 -0.6456,-0.6551 -1.0391,-0.9107 -0.1941,-0.1323 -0.4015,-0.2452 -0.6116,-0.3507 -0.1054,-0.0519 -0.2127,-0.0997 -0.3195,-0.1432 l -0.159,-0.0615 -0.0765,-0.0265 -0.0349,-0.0114 -0.0167,-0.006 -0.004,-0.002 -10e-4,-3e-4 -4e-4,-5e-4 h -3e-4 c 0.004,-0.017 -0.008,0.0376 0.009,-0.0378 l -0.4766,-0.3583 c -0.5535,-1.0286 -1.3156,-1.9559 -2.2623,-2.4848 -0.2339,-0.1305 -0.4792,-0.232 -0.7154,-0.2912 -0.1171,-0.0299 -0.2335,-0.0489 -0.3336,-0.0534 -0.0247,-0.002 -0.0493,-0.002 -0.0721,-8e-4 -0.002,0.0558 -0.002,0.1228 0.005,0.1941 z m 9.4777,5.6475 -4e-4,0.001 c 0.0106,0.009 0.0178,0.0147 4e-4,-0.001 z m -1.8134,14.8469 c 2.0413,-0.8947 3.9149,-2.2724 5.3549,-3.947 1.5282,-1.7695 2.5242,-3.9293 2.898,-6.1949 0.0982,-0.5661 0.1513,-1.1397 0.1789,-1.7145 0.022,-0.5854 0.0178,-1.1909 0.0285,-1.7842 -0.0194,-1.1904 -0.0539,-2.3789 -0.1813,-3.5494 -0.1152,-1.171 -0.2946,-2.3307 -0.583,-3.4382 -0.1509,-0.549 -0.311,-1.0946 -0.5214,-1.5991 -0.099,-0.2564 -0.2138,-0.4998 -0.3332,-0.7269 -0.0596,-0.1168 -0.1217,-0.224 -0.185,-0.3233 -0.0312,-0.0551 -0.0622,-0.093 -0.0925,-0.1385 -0.008,-0.0121 -0.0141,-0.0185 -0.0209,-0.0276 -0.3484,0.287 -0.6824,0.5778 -0.96,0.892 -0.7547,0.8258 -1.3527,1.7949 -1.8645,2.8041 -1.0005,2.0401 -1.6139,4.2682 -2.0859,6.516 -0.2373,1.126 -0.4368,2.2623 -0.643,3.4023 -0.1043,0.5702 -0.2097,1.1415 -0.336,1.7137 -0.1273,0.569 -0.2441,1.1192 -0.3377,1.6863 -0.339,2.1163 -0.4353,4.2895 -0.3159,6.4292 z m 2.8602,-22.8636 c -0.2791,-0.1698 -0.3367,-0.1061 -0.4755,0.0482 -0.1198,0.133 -0.3006,0.334 -0.6331,0.2578 -0.4625,-0.1065 -0.5513,-0.4712 -0.6161,-0.7382 -0.025,-0.102 -0.0486,-0.1998 -0.0879,-0.2767 -0.1062,0.022 -0.3496,0.1747 -0.5001,0.2692 -0.3951,0.2472 -0.8029,0.5035 -1.0047,0.1819 -0.0743,-0.1179 -0.1129,-0.2968 -0.1622,-0.5228 -0.1281,-0.5877 -0.2586,-1.0346 -0.6658,-0.9952 -1.5059,0.1456 -2.1967,2.1436 -1.9749,5.6493 0.0197,0.0308 0.0375,0.0623 0.0569,0.0933 l 0.2101,0.0649 c 0.1474,0.0477 0.2911,0.1004 0.4321,0.1584 0.2825,0.1164 0.5593,0.245 0.8243,0.3985 0.5341,0.298 1.0304,0.6775 1.4717,1.1207 0.464,0.4819 0.7476,0.8792 1.101,1.2746 0.1714,0.1975 0.3442,0.3917 0.5175,0.5771 l 0.094,0.0974 c 0.4061,-1.6518 0.927,-3.2836 1.6723,-4.8366 0.2635,-0.5307 0.5513,-1.0535 0.874,-1.5555 -0.2162,-0.3446 -0.6548,-0.9747 -1.1336,-1.2663 z m -11.1797,0.9752 c 0.3075,-0.1305 0.5353,-0.135 0.756,-0.1372 0.2173,0.004 0.4163,0.034 0.6077,0.0765 0.3814,0.0864 0.7302,0.2252 1.0551,0.395 0.9205,0.4895 1.6473,1.1943 2.2349,1.9806 -0.0659,-1.8619 0.1395,-3.2734 0.6241,-4.1904 0.4011,-0.7603 0.98,-1.1814 1.7201,-1.2531 0.7742,-0.0747 0.961,0.7811 1.0726,1.2921 0.0311,0.1429 0.0633,0.29 0.0963,0.3685 0.1077,-0.0228 0.3487,-0.1744 0.4985,-0.2685 0.3947,-0.2471 0.8034,-0.5035 1.0047,-0.1819 0.0834,0.133 0.119,0.2798 0.1535,0.4219 0.0663,0.273 0.108,0.4061 0.3321,0.4576 0.1039,0.024 0.1461,-0.007 0.267,-0.1417 0.152,-0.1691 0.4064,-0.4524 0.9546,-0.1187 0.4857,0.2965 0.916,0.8671 1.1703,1.2522 0.2579,-0.3737 0.5304,-0.7385 0.8364,-1.0789 0.7851,-0.9031 1.7576,-1.6538 2.8389,-2.1925 l 0.295,0.2578 0.003,-0.003 c 0.007,0.008 0.0106,0.0132 0.0162,0.0201 l 8e-4,7e-4 v 4e-4 c 0.0565,0.0694 0.0811,0.1073 0.1111,0.149 0.0345,0.0485 0.0633,0.0929 0.0873,0.1331 0.0507,0.0829 0.1065,0.169 0.147,0.2479 0.0906,0.1618 0.1714,0.3223 0.2415,0.48 0.146,0.3173 0.2719,0.632 0.3758,0.9471 0.2217,0.6296 0.37,1.259 0.5065,1.8876 0.2554,1.2583 0.379,2.5125 0.4352,3.7598 0.0686,1.2481 0.0383,2.4879 -0.008,3.7227 -0.0432,0.6179 -0.0735,1.2252 -0.1274,1.8505 -0.0595,0.6343 -0.1474,1.2669 -0.2851,1.891 -0.2722,1.2474 -0.7013,2.4654 -1.3065,3.5873 -0.6111,1.118 -1.3648,2.152 -2.2447,3.0538 -0.8717,0.9096 -1.8611,1.6902 -2.9106,2.359 -1.005,0.629 -2.0499,1.1556 -3.1835,1.5476 l -0.6813,0.005 c 0.008,-0.027 0.0185,-0.0536 0.0257,-0.0804 l -0.004,-0.003 -0.2081,-0.1247 -0.4107,-0.257 c -0.2714,-0.1745 -0.5387,-0.3549 -0.8029,-0.54 -0.527,-0.3722 -1.0404,-0.7654 -1.534,-1.1851 -0.9899,-0.8352 -1.9024,-1.7841 -2.6436,-2.8893 -0.3663,-0.5539 -0.6821,-1.1533 -0.9099,-1.7982 -0.2286,-0.6623 -0.3412,-1.2857 -0.4519,-1.9369 -0.2082,-1.2921 -0.2624,-2.5941 -0.2666,-3.8778 -0.008,-1.2806 0.0569,-2.561 -0.0178,-3.7693 -0.0209,-0.2998 -0.0542,-0.5929 -0.1095,-0.8666 -0.0303,-0.1392 -0.06,-0.2567 -0.1047,-0.3977 l -0.1437,-0.4534 c -0.1911,-0.6075 -0.3866,-1.2148 -0.5551,-1.8567 -0.0822,-0.3237 -0.1606,-0.6512 -0.202,-1.0293 -0.0182,-0.1902 -0.0318,-0.3942 0.011,-0.6547 0.0235,-0.1293 0.0637,-0.2817 0.163,-0.4477 0.0255,-0.041 0.0558,-0.0831 0.0861,-0.1225 0.0399,-0.0467 0.0861,-0.0929 0.1335,-0.1346 0.086,-0.0682 0.1739,-0.1206 0.2498,-0.1539 z"
     style="fill:#000000;fill-rule:evenodd;stroke:#000000;stroke-width:0.216;stroke-linecap:butt;stroke-linejoin:miter;stroke-dasharray:none"
     id="path18" />
  <path
     d="m 263.9344,413.4679 c -1.3758,3.0849 -3.022,6.0345 -4.9207,8.8355 -0.4784,0.6976 -0.9717,1.3853 -1.4899,2.0564 -0.513,0.6726 -1.0661,1.3288 -1.5939,1.973 -1.0657,1.2916 -2.1004,2.5947 -3.0382,3.9569 -1.8976,2.7111 -3.3012,5.7142 -4.4142,8.8158 -1.1037,3.1112 -1.92,6.3253 -2.655,9.5616 -0.1673,0.8139 -0.336,1.6272 -0.5157,2.4381 -0.1714,0.8133 -0.3143,1.6341 -0.4727,2.4503 -0.0804,0.4114 -0.1487,0.8126 -0.2393,1.2318 l -0.2836,1.2841 c -0.0808,0.4307 -0.2339,0.8455 -0.3488,1.2686 l -0.1861,0.6313 c -0.0664,0.2088 -0.1494,0.4128 -0.2237,0.6197 -1.1454,3.33 -3.1711,6.3254 -5.6502,8.7666 -2.5033,2.4341 -5.4756,4.3005 -8.619,5.6475 -3.1501,1.3387 -6.4527,2.263 -9.8402,2.5833 l -0.0482,-0.376 c 3.2461,-0.7318 6.394,-1.9021 9.3224,-3.4042 2.9219,-1.5135 5.6323,-3.4183 7.8442,-5.7753 1.1123,-1.1691 2.0965,-2.4495 2.926,-3.8189 0.4231,-0.6805 0.7787,-1.3971 1.1405,-2.1098 l 0.4753,-1.1013 c 0.1612,-0.3652 0.273,-0.7519 0.4126,-1.1261 0.0643,-0.1891 0.138,-0.375 0.1951,-0.5668 l 0.1597,-0.5797 c 0.0978,-0.3881 0.2339,-0.7658 0.2999,-1.1628 l 0.2404,-1.179 0.2369,-1.2405 c 0.163,-0.8307 0.3101,-1.664 0.4865,-2.4928 0.1785,-0.8291 0.368,-1.6552 0.5591,-2.4813 0.7946,-3.2992 1.8092,-6.5616 3.127,-9.7152 1.341,-3.1417 3.0315,-6.1612 5.1149,-8.8647 1.0373,-1.3527 2.1598,-2.6262 3.2956,-3.8679 1.1397,-1.2339 2.1949,-2.4995 3.1828,-3.8477 1.9659,-2.6883 3.7083,-5.5667 5.174,-8.5641 z"
     style="fill:#000000;fill-rule:evenodd;stroke:#000000;stroke-width:0.216;stroke-linecap:butt;stroke-linejoin:miter;stroke-dasharray:none"
     id="path20" />
  <path
     d="m 243.0693,454.9324 c 0.1528,-0.0699 0.3712,-0.1904 0.5558,-0.2985 0.193,-0.1129 0.3825,-0.2346 0.571,-0.359 0.3753,-0.2529 0.7354,-0.5311 1.0843,-0.8223 0.693,-0.5884 1.3179,-1.2556 1.8558,-1.9847 0.2711,-0.3632 0.5145,-0.7457 0.737,-1.1397 0.1058,-0.2025 0.2153,-0.392 0.3193,-0.6051 l 0.3094,-0.6476 c 0.4067,-0.8673 0.7904,-1.7572 1.1984,-2.6526 0.8025,-1.7944 1.7944,-3.5908 3.0625,-5.1437 0.6298,-0.778 1.294,-1.5248 2.0048,-2.2152 0.701,-0.6945 1.4016,-1.3585 2.1,-2.0367 2.7889,-2.7012 5.5246,-5.4537 8.0428,-8.3957 1.2518,-1.4752 2.4541,-2.9932 3.5308,-4.595 1.0536,-1.6071 2.0181,-3.3094 2.4878,-5.1611 l 8e-4,-0.003 0.0329,-0.1107 0.0167,0.0186 c 0.5005,0.5653 0.1372,0.1581 0.248,0.2847 l -0.006,0.005 -0.014,0.0117 -0.0292,0.0251 -0.0587,0.0504 -0.1184,0.1012 -0.2365,0.2025 -0.4735,0.4048 -0.9509,0.806 -1.9138,1.5973 c -1.283,1.0567 -2.577,2.1004 -3.9005,3.1096 -1.3171,1.0247 -2.7198,1.9256 -4.0324,2.9265 -1.3201,0.9971 -2.6012,2.0469 -3.8189,3.166 -0.3078,0.2765 -0.5994,0.5698 -0.8996,0.8539 -0.3015,0.2832 -0.5961,0.5732 -0.8785,0.875 l -0.8591,0.8939 -0.8204,0.9293 c -0.2791,0.3048 -0.5403,0.6248 -0.7955,0.9497 l -0.7745,0.9676 -0.7227,1.0058 c -0.2437,0.3335 -0.4837,0.6695 -0.6968,1.0236 -1.7986,2.7657 -3.1979,5.8026 -3.9823,9.0085 l -0.3686,-0.0888 c 0.7959,-3.2529 2.2145,-6.3299 4.0336,-9.1271 0.2158,-0.3582 0.4584,-0.6976 0.7044,-1.0346 l 0.7303,-1.0172 0.7825,-0.977 c 0.2578,-0.328 0.5216,-0.651 0.8033,-0.9589 l 0.828,-0.9379 0.8663,-0.9019 c 0.2855,-0.3045 0.5824,-0.5971 0.886,-0.8827 0.303,-0.2858 0.5968,-0.5822 0.9069,-0.8606 1.228,-1.1283 2.5186,-2.1856 3.8477,-3.19 1.3293,-1.0125 2.7256,-1.9084 4.0306,-2.9245 1.3174,-1.0046 2.6088,-2.0461 3.889,-3.1009 l 1.9108,-1.5945 0.949,-0.8045 0.4732,-0.4042 0.2361,-0.2025 0.1183,-0.1016 0.06,-0.0508 0.0298,-0.0254 0.0156,-0.0133 0.01,-0.008 c 0.1161,0.1232 -0.2422,-0.2897 0.2631,0.2734 l 0.0496,-0.0918 -0.001,0.003 c -0.4314,1.9486 -1.3675,3.7142 -2.3877,5.3832 -1.0442,1.6612 -2.2133,3.2347 -3.4322,4.7637 -2.4507,3.0485 -5.1212,5.9056 -7.8358,8.702 -0.676,0.6984 -1.3664,1.3949 -2.0264,2.0905 -0.6643,0.6859 -1.2724,1.4154 -1.8438,2.1668 -1.149,1.5036 -2.0051,3.1698 -2.7376,4.9465 -0.3715,0.8863 -0.7306,1.7951 -1.1215,2.7015 l -0.299,0.6787 c -0.102,0.2271 -0.2268,0.464 -0.3398,0.6961 -0.2414,0.4598 -0.508,0.908 -0.8052,1.3341 -0.5911,0.8546 -1.2815,1.6375 -2.0503,2.3324 -0.3868,0.3451 -0.7879,0.6741 -1.2102,0.9786 -0.2131,0.1501 -0.4281,0.2979 -0.651,0.4378 -0.2312,0.1429 -0.4334,0.268 -0.7181,0.411 z"
     style="fill:#000000;fill-rule:evenodd;stroke:#000000;stroke-width:0.216;stroke-linecap:butt;stroke-linejoin:miter;stroke-dasharray:none"
     id="path22" />
  <path
     d="m 243.6445,452.2106 -0.3792,-0.005 c 0.002,-0.1205 0.1445,-12.1502 -1.6859,-19.8613 -1.9062,-8.0271 1.7413,-26.4565 5.472,-31.9679 l 0.1285,-0.1899 0.1626,0.1623 c 0.102,0.1023 0.1156,0.1157 -0.3416,6.5941 -0.141,1.9916 -0.2877,4.0703 -0.3855,5.6358 -0.2075,3.3184 0.5204,10.4653 1.0517,15.6844 0.1322,1.2989 0.2513,2.4677 0.3389,3.4114 0.4326,4.6711 -0.4099,8.2994 -0.4186,8.335 l -0.3685,-0.0871 c 0.008,-0.0357 0.836,-3.6071 0.4095,-8.2131 -0.0876,-0.9428 -0.2063,-2.1106 -0.3386,-3.4079 -0.5327,-5.2316 -1.2621,-12.3971 -1.0528,-15.7467 0.0982,-1.5657 0.2445,-3.646 0.3851,-5.6387 0.1623,-2.296 0.3288,-4.6519 0.3856,-5.7586 -3.5645,6.0585 -6.8868,23.4023 -5.0598,31.099 1.8418,7.7573 1.6981,19.8336 1.6966,19.9545 z"
     style="fill:#000000;fill-rule:evenodd;stroke:#000000;stroke-width:0.216;stroke-linecap:butt;stroke-linejoin:miter;stroke-dasharray:none"
     id="path24" />
  <path
     d="m 158.8528,374.7646 c 0,0 -10.8089,-11.5046 -11.3882,-21.241 -0.5797,-9.7364 2.8977,-18.0824 13.6774,-22.9504 10.7796,-4.8679 22.3707,2.6661 25.5004,7.766 3.1296,5.1001 5.3319,15.4164 1.391,25.3848 -3.941,9.9684 -6.3171,15.6477 -14.141,24.1674 -0.2685,0.2923 -0.5332,0.5786 -0.7951,0.8618 z m 16.9519,54.2461 c 9.0413,11.1277 6.4333,19.299 6.1725,21.6466 -0.2609,2.3471 -2.9556,13.7353 -14.7787,16.5174 -11.8231,2.7816 -18.4301,-2.4344 -22.0811,-7.4768 -3.6514,-5.0416 -4.8683,-15.3001 -1.9126,-27.0359 2.9556,-11.7358 12.9532,-24.2546 12.9532,-24.2546 0,0 10.6057,9.4755 19.6467,20.6033 z m 53.812,20.4296 V 341.4689 l -51.3777,52.3338 -4.3209,-4.2435 c 1.9385,-1.957 3.5555,-3.6127 4.3209,-4.4499 2.7817,-3.0424 6.6765,-7.8239 10.8146,-15.3583 4.1378,-7.534 6.4561,-18.4298 4.4278,-28.9198 -2.0287,-10.49 -14.1414,-23.1239 -29.2097,-22.0811 -15.0684,1.0434 -24.1095,9.2731 -27.0075,19.2415 -2.8977,9.9683 -3.1293,19.2414 6.0277,29.789 5.1659,5.9508 16.1971,17.3792 24.832,26.2117 -3.1945,3.2768 -5.5091,5.4777 -6.5888,6.4838 L 101.6723,341.4689 V 449.375 l -1.8472,1.0646 v 0.8693 h 20.1683 v -0.8472 l -1.3909,-1.2174 v -79.0296 c 0,0 36.5121,37.2655 36.454,37.2077 -2.8396,3.767 -16.8069,15.0685 -17.6763,40.8009 -0.8693,25.732 37.5551,41.206 53.5508,16.343 15.9961,-24.8628 -7.65,-42.6551 -7.65,-42.6551 l -21.024,-20.7239 c 1.2457,-1.2324 3.8037,-3.7658 6.546,-6.5008 6.3442,6.4834 11.2327,11.403 11.2327,11.403 l 35.0631,-35.4108 v 79.022 l -1.565,0.7389 v 0.8693 h 17.1694 v -1.1298 z"
     style="fill:#000000;fill-rule:evenodd;stroke:#000000;stroke-width:0.216;stroke-linecap:butt;stroke-linejoin:miter;stroke-dasharray:none"
     id="path26" />
</svg>
