<?xml version="1.0" encoding="UTF-8" standalone="no"?>
<svg
   version="1.1"
   width="850.39368pt"
   height="850.39368pt"
   id="svg30"
   viewBox="0 0 850.39368 850.39368"
   sodipodi:docname="LOGO SAMIE NỀN ĐEN CHỮ TRẮNG.cdr"
   xmlns:inkscape="http://www.inkscape.org/namespaces/inkscape"
   xmlns:sodipodi="http://sodipodi.sourceforge.net/DTD/sodipodi-0.dtd"
   xmlns="http://www.w3.org/2000/svg"
   xmlns:svg="http://www.w3.org/2000/svg">
  <defs
     id="defs34" />
  <sodipodi:namedview
     id="namedview32"
     pagecolor="#ffffff"
     bordercolor="#000000"
     borderopacity="0.25"
     inkscape:showpageshadow="2"
     inkscape:pageopacity="0.0"
     inkscape:pagecheckerboard="0"
     inkscape:deskcolor="#d1d1d1"
     inkscape:document-units="pt" />
  <path
     d="M -2.0707,4.8317 V 856.6061 H 862.128 V 4.8317 Z"
     style="fill:#1b1918;fill-rule:evenodd;stroke:#1b1918;stroke-width:0.5;stroke-linecap:butt;stroke-linejoin:miter;stroke-dasharray:none"
     id="path2" />
  <path
     d="m 421.8778,164.7711 c 114.4664,0 207.2596,92.7933 207.2596,207.2597 0,114.4664 -92.7932,207.2597 -207.2596,207.2597 -114.4664,0 -207.2597,-92.7933 -207.2597,-207.2597 0,-114.4664 92.7933,-207.2597 207.2597,-207.2597 z"
     style="fill:none;stroke:#ffffff;stroke-width:4;stroke-linecap:round;stroke-linejoin:miter;stroke-dasharray:none"
     id="path4" />
  <path
     d="m 210.0254,711.6361 -6.4066,-19.6143 -2.0041,-0.5259 v -1.3141 h 7.8523 v 1.347 l -2.8585,0.5587 4.4354,14.2589 0.3614,1.347 h 0.1973 l 0.4269,-1.4128 4.2055,-11.6306 -0.9199,-2.5954 -2.4641,-0.5258 v -1.347 h 8.4107 v 1.347 l -2.9897,0.5916 5.2568,14.1931 0.3943,1.3141 h 0.197 l 0.3286,-1.3141 3.9098,-14.226 -2.8914,-0.5587 v -1.347 h 7.0966 v 1.347 l -2.037,0.5258 -5.7166,19.5815 h -2.0041 l -5.1911,-13.3064 -0.2299,-1.0514 h -0.1973 l -0.2299,1.0514 -4.8625,13.3064 z m 24.0168,-0.1644 v -1.4128 l 2.727,-0.5584 V 692.153 l -2.727,-0.5584 v -1.4128 h 15.0475 v 5.3881 h -1.6101 l -0.69,-3.581 h -3.9753 l -3.2198,0.197 v 7.5237 h 5.191 l 0.493,-1.9383 h 1.3799 v 5.6182 h -1.3799 l -0.493,-1.9386 h -5.191 v 7.7868 c 0.4164,0.1094 0.9637,0.197 1.6429,0.2628 0.6789,0.0657 1.336,0.0983 1.9712,0.0983 h 3.8441 l 0.7228,-3.5152 h 1.6098 v 5.3881 z m 18.7929,0 v -1.4128 l 2.7269,-0.5584 v -17.3146 l -2.7269,-0.5913 v -1.4128 h 9.6919 c 3.1105,0 5.5744,0.8544 7.3925,2.5628 1.8179,1.7084 2.7269,4.2273 2.7269,7.5566 0,2.4313 -0.4382,4.479 -1.3141,6.1438 -0.8762,1.6645 -2.1685,2.9186 -3.877,3.7619 -1.7084,0.8433 -3.8219,1.2648 -6.3408,1.2648 z m 8.7392,-1.7085 c 1.3363,0 2.497,-0.1751 3.4826,-0.5255 0.9857,-0.3506 1.7907,-0.9037 2.4149,-1.6594 0.6242,-0.7554 1.0896,-1.7249 1.3963,-2.9075 0.3067,-1.1829 0.4601,-2.6065 0.4601,-4.2712 0,-1.4236 -0.159,-2.6558 -0.4765,-3.6961 -0.3175,-1.0404 -0.794,-1.9055 -1.4292,-2.5954 -0.6353,-0.69 -1.44,-1.1994 -2.4149,-1.5279 -0.9745,-0.3285 -2.1299,-0.4927 -3.4662,-0.4927 -0.6352,0 -1.2155,0.0165 -1.7413,0.0491 -0.5255,0.0328 -0.9964,0.0932 -1.4128,0.1808 v 17.1173 c 0.3288,0.0876 0.7943,0.1641 1.3964,0.2299 0.6023,0.0658 1.1993,0.0986 1.7906,0.0986 z m 14.3249,1.7085 v -1.4128 l 2.7269,-0.5584 v -17.3146 l -2.7269,-0.5913 v -1.4128 h 9.6919 c 3.1105,0 5.5743,0.8544 7.3925,2.5628 1.8178,1.7084 2.7269,4.2273 2.7269,7.5566 0,2.4313 -0.4382,4.479 -1.3141,6.1438 -0.8762,1.6645 -2.1685,2.9186 -3.877,3.7619 -1.7084,0.8433 -3.8219,1.2648 -6.3408,1.2648 z m 8.7392,-1.7085 c 1.3362,0 2.497,-0.1751 3.4826,-0.5255 0.9856,-0.3506 1.7907,-0.9037 2.4149,-1.6594 0.6242,-0.7554 1.0896,-1.7249 1.3963,-2.9075 0.3067,-1.1829 0.4601,-2.6065 0.4601,-4.2712 0,-1.4236 -0.159,-2.6558 -0.4765,-3.6961 -0.3175,-1.0404 -0.794,-1.9055 -1.4292,-2.5954 -0.6353,-0.69 -1.44,-1.1994 -2.4149,-1.5279 -0.9745,-0.3285 -2.1299,-0.4927 -3.4662,-0.4927 -0.6352,0 -1.2155,0.0165 -1.7413,0.0491 -0.5256,0.0328 -0.9964,0.0932 -1.4128,0.1808 v 17.1173 c 0.3288,0.0876 0.7943,0.1641 1.3963,0.2299 0.6024,0.0658 1.1994,0.0986 1.7907,0.0986 z m 14.3249,1.7085 v -1.4457 l 2.694,-0.4926 v -17.413 l -2.694,-0.4929 v -1.4457 h 8.2465 v 1.4457 l -2.6943,0.4929 v 17.413 l 2.6943,0.4926 v 1.4457 z m 11.8933,0 v -1.3799 l 2.234,-0.5256 v -17.4787 l -2.0699,-0.46 v -1.4457 h 4.7968 l 10.6778,16.3287 0.493,0.9859 h 0.1312 v -15.4089 l -2.234,-0.5258 v -1.3799 h 6.5053 v 1.3799 l -2.2014,0.5258 v 19.3842 h -2.7269 l -10.7434,-16.4274 -0.4271,-0.8869 h -0.1316 v 15.4088 l 2.2998,0.5256 v 1.3799 z m 33.2487,0.3614 c -3.1102,0 -5.4975,-0.8487 -7.1623,-2.5464 -1.6645,-1.6973 -2.4968,-4.4297 -2.4968,-8.1972 0,-1.5987 0.2464,-3.0827 0.739,-4.4518 0.493,-1.3688 1.194,-2.5625 2.1028,-3.581 0.909,-1.0185 2.0151,-1.8181 3.3185,-2.3984 1.3031,-0.5805 2.7652,-0.8708 4.386,-0.8708 1.6866,0 3.0609,0.1205 4.1233,0.3614 1.0622,0.241 1.7904,0.4601 2.1847,0.6571 v 5.0927 h -1.5769 l -0.9528,-3.6142 c -0.46,-0.1533 -1.0624,-0.2846 -1.8071,-0.3943 -0.7446,-0.1094 -1.4564,-0.1641 -2.1356,-0.1641 -2.5625,0 -4.386,0.7172 -5.4703,2.1518 -1.0842,1.4349 -1.6262,3.7292 -1.6262,6.8831 0,1.9933 0.2245,3.6799 0.6735,5.0598 0.449,1.3796 1.1718,2.4202 2.1685,3.121 0.9964,0.701 2.338,1.0513 4.0246,1.0513 0.7229,0 1.3252,-0.0328 1.8071,-0.0983 0.4819,-0.0658 0.9145,-0.1698 1.2977,-0.3121 0.3833,-0.1426 0.7722,-0.3232 1.1662,-0.5423 v -6.1109 l -2.3326,-0.5913 v -1.4128 h 6.4723 v 1.6427 l -1.347,0.2627 v 8.6409 h -1.1826 l -0.7229,-0.887 h -0.4271 c -0.4162,0.2628 -1.0185,0.5366 -1.8071,0.8212 -0.7883,0.2849 -1.9273,0.4272 -3.4169,0.4272 z m 18.4646,-0.3614 v -1.4128 l 2.7269,-0.5584 V 692.153 l -2.7269,-0.5584 v -1.4128 h 8.0821 c 1.6209,0 3.0391,0.1752 4.2548,0.5258 1.2155,0.3504 2.1575,0.9253 2.8253,1.7249 0.6682,0.7994 1.0021,1.9001 1.0021,3.3018 0,1.5769 -0.3286,2.9021 -0.9856,3.9753 -0.6571,1.0735 -1.5769,1.8782 -2.7598,2.4148 -1.1827,0.5366 -2.5515,0.8051 -4.1069,0.8051 -0.197,0 -0.3886,-0.005 -0.5748,-0.0165 -0.1863,-0.011 -0.3779,-0.0275 -0.5749,-0.0493 l -0.1644,-1.2812 c 1.3141,-0.0219 2.4259,-0.2027 3.3349,-0.5423 0.9088,-0.3393 1.6044,-0.8816 2.0861,-1.6262 0.4818,-0.7447 0.7228,-1.7303 0.7228,-2.9569 0,-1.5772 -0.4544,-2.7051 -1.3635,-3.384 -0.9088,-0.6791 -2.1299,-1.0185 -3.6632,-1.0185 -0.4819,0 -0.9584,0.0165 -1.4292,0.0494 -0.4708,0.0326 -0.8487,0.0711 -1.1336,0.1148 v 17.183 l 3.6471,0.5585 v 1.5114 z m 18.563,0 v -1.4128 l 2.7269,-0.5584 V 692.153 l -2.7269,-0.5584 v -1.4128 h 8.5422 v 1.5443 l -2.99,0.4927 v 17.183 l 3.2198,0.2628 h 3.7126 l 0.7228,-3.5152 h 1.6098 v 5.3223 z m 15.0145,0 v -1.4457 l 1.9712,-0.3943 7.2281,-19.614 h 1.8071 l 7.5237,19.5811 2.1027,0.4272 v 1.4457 h -7.8522 v -1.4457 l 2.7269,-0.4272 -1.6101,-4.2709 h -8.115 l -1.4457,4.2709 2.6615,0.4272 v 1.4457 z m 6.4395,-8.0167 h 6.768 l -2.9897,-8.115 -0.3943,-1.347 h -0.1642 l -0.3614,1.347 z m 15.7048,8.0167 v -1.3799 l 2.2339,-0.5256 v -17.4787 l -2.0698,-0.46 v -1.4457 h 4.7968 l 10.6778,16.3287 0.4929,0.9859 h 0.1313 v -15.4089 l -2.234,-0.5258 v -1.3799 h 6.5052 v 1.3799 l -2.2014,0.5258 v 19.3842 h -2.7269 l -10.7433,-16.4274 -0.4272,-0.8869 h -0.1315 v 15.4088 l 2.2997,0.5256 v 1.3799 z m 23.8852,0 v -1.3799 l 2.234,-0.5256 v -17.4787 l -2.0698,-0.46 v -1.4457 h 4.7968 l 10.6778,16.3287 0.4929,0.9859 h 0.1313 v -15.4089 l -2.234,-0.5258 v -1.3799 h 6.5052 v 1.3799 l -2.2014,0.5258 v 19.3842 h -2.7269 l -10.7433,-16.4274 -0.4272,-0.8869 h -0.1315 v 15.4088 l 2.2997,0.5256 v 1.3799 z m 23.8853,0 v -1.4128 l 2.727,-0.5584 V 692.153 l -2.727,-0.5584 v -1.4128 h 15.0475 v 5.3881 h -1.6101 l -0.69,-3.581 h -3.9753 l -3.2198,0.197 v 7.5237 h 5.191 l 0.493,-1.9383 h 1.3799 v 5.6182 h -1.3799 l -0.493,-1.9386 h -5.191 v 7.7868 c 0.4164,0.1094 0.9637,0.197 1.6429,0.2628 0.6789,0.0657 1.336,0.0983 1.9712,0.0983 h 3.8441 l 0.7228,-3.5152 h 1.6098 v 5.3881 z m 18.7929,0 v -1.4128 l 2.7269,-0.5584 V 692.153 l -2.7269,-0.5584 v -1.4128 h 9.265 c 1.2045,0 2.3052,0.1862 3.3018,0.5587 0.9967,0.3722 1.7961,0.9417 2.3984,1.7084 0.6024,0.7665 0.9034,1.7632 0.9034,2.9897 0,1.0296 -0.1312,1.9001 -0.394,2.6119 -0.2631,0.7118 -0.6188,1.3034 -1.0678,1.7742 -0.449,0.4708 -0.9473,0.8705 -1.495,1.1993 -0.5477,0.3286 -1.1279,0.6242 -1.7413,0.887 l 4.5669,7.5237 2.2997,0.6242 v 1.4128 h -3.0226 c -0.5037,0 -0.8815,-0.0766 -1.1335,-0.2299 -0.2518,-0.1534 -0.4984,-0.4161 -0.7393,-0.7886 l -4.5666,-7.9509 h -3.0229 v 6.9982 l 2.7272,0.5584 v 1.4128 z m 5.5522,-10.7765 h 2.0699 c 1.0295,0 1.9275,-0.197 2.6943,-0.5913 0.7665,-0.3943 1.3688,-0.9417 1.8068,-1.6427 0.4382,-0.701 0.6571,-1.5114 0.6571,-2.4312 0,-0.8981 -0.1477,-1.6152 -0.4434,-2.1521 -0.2956,-0.5366 -0.6735,-0.9363 -1.1335,-1.1991 -0.4601,-0.2627 -0.9528,-0.4325 -1.4786,-0.5094 -0.5255,-0.0765 -1.0293,-0.1148 -1.5111,-0.1148 -0.3943,0 -0.838,0.0165 -1.3306,0.0494 -0.493,0.0326 -0.9366,0.0711 -1.3309,0.1148 z m 28.2881,11.105 c -0.9202,0 -1.8289,-0.0876 -2.727,-0.2628 -0.898,-0.1751 -1.7084,-0.4818 -2.4312,-0.9201 -0.7229,-0.4379 -1.2977,-1.0346 -1.7249,-1.7903 -0.4272,-0.7558 -0.6406,-1.7249 -0.6406,-2.9078 0,-0.8762 0.1533,-1.6427 0.4597,-2.2998 0.3067,-0.657 0.6846,-1.2211 1.1336,-1.692 0.449,-0.4708 0.9034,-0.8597 1.3635,-1.1664 0.46,-0.3064 0.8543,-0.5366 1.1829,-0.69 -0.7886,-0.8759 -1.4128,-1.7084 -1.8729,-2.4967 -0.46,-0.7886 -0.6899,-1.643 -0.6899,-2.5628 0,-0.9638 0.2299,-1.8343 0.6899,-2.6119 0.4601,-0.7775 1.1336,-1.4074 2.0206,-1.8893 0.8872,-0.4819 1.9876,-0.7228 3.302,-0.7228 0.7447,0 1.429,0.055 2.0535,0.1644 0.6241,0.1094 1.1772,0.2356 1.6591,0.3779 0.4819,0.1423 0.8433,0.2681 1.0842,0.3778 v 4.8623 h -1.6101 l -0.657,-3.3511 c 0,0 -0.2299,-0.0876 -0.69,-0.2628 -0.4598,-0.1752 -1.1718,-0.2628 -2.1356,-0.2628 -1.2044,0 -2.037,0.2628 -2.4968,0.7883 -0.46,0.5259 -0.6899,1.2487 -0.6899,2.1685 0,0.4819 0.0711,0.9037 0.2134,1.2649 0.1423,0.3614 0.3997,0.7557 0.7722,1.1829 0.3722,0.4271 0.887,0.991 1.544,1.692 l 7.1623,7.425 c 0.3067,-0.7228 0.4601,-1.5658 0.4601,-2.5296 0,-0.7668 -0.0437,-1.3856 -0.1315,-1.8564 -0.0876,-0.4708 -0.1642,-0.7829 -0.2299,-0.9363 l -2.727,-0.5258 v -1.4783 h 4.4683 c 0.2191,0.6571 0.3779,1.347 0.4765,2.0699 0.0984,0.7228 0.1477,1.6208 0.1477,2.694 0,0.6571 -0.0876,1.336 -0.2628,2.037 -0.1752,0.701 -0.449,1.3581 -0.8215,1.9712 l 1.8071,1.84 2.5299,0.5584 v 1.4128 h -2.8255 c -0.3504,0 -0.7283,-0.0712 -1.1336,-0.2135 -0.4051,-0.1425 -0.7829,-0.3778 -1.1333,-0.7064 l -0.8872,-0.8872 c -0.7229,0.6352 -1.588,1.15 -2.5954,1.5443 -1.0078,0.3943 -2.1467,0.5913 -3.4169,0.5913 z m 0.4272,-2.037 c 0.854,0 1.648,-0.1204 2.3819,-0.3614 0.7336,-0.2409 1.3742,-0.5913 1.9219,-1.0513 l -7.0965,-7.261 c -0.2631,0.1534 -0.5695,0.4108 -0.9202,0.7722 -0.3503,0.3614 -0.6624,0.8322 -0.9363,1.4128 -0.2738,0.5805 -0.4107,1.3087 -0.4107,2.1849 0,0.9198 0.148,1.7028 0.4436,2.3491 0.2957,0.646 0.8051,1.1333 1.5279,1.4618 0.7226,0.3285 1.7521,0.4929 3.0884,0.4929 z m 19.0885,1.7085 v -1.4128 l 2.7269,-0.5584 v -17.3146 l -2.7269,-0.5913 v -1.4128 h 9.6919 c 3.1104,0 5.5743,0.8544 7.3925,2.5628 1.8178,1.7084 2.7269,4.2273 2.7269,7.5566 0,2.4313 -0.4382,4.479 -1.3141,6.1438 -0.8762,1.6645 -2.1686,2.9186 -3.877,3.7619 -1.7084,0.8433 -3.8219,1.2648 -6.3408,1.2648 z m 8.7392,-1.7085 c 1.3362,0 2.497,-0.1751 3.4826,-0.5255 0.9856,-0.3506 1.7907,-0.9037 2.4148,-1.6594 0.6242,-0.7554 1.0897,-1.7249 1.3964,-2.9075 0.3067,-1.1829 0.4601,-2.6065 0.4601,-4.2712 0,-1.4236 -0.1591,-2.6558 -0.4765,-3.6961 -0.3175,-1.0404 -0.794,-1.9055 -1.4293,-2.5954 -0.6352,-0.69 -1.44,-1.1994 -2.4148,-1.5279 -0.9746,-0.3285 -2.13,-0.4927 -3.4662,-0.4927 -0.6353,0 -1.2155,0.0165 -1.7413,0.0491 -0.5256,0.0328 -0.9964,0.0932 -1.4128,0.1808 v 17.1173 c 0.3288,0.0876 0.7942,0.1641 1.3963,0.2299 0.6024,0.0658 1.1994,0.0986 1.7907,0.0986 z m 14.3248,1.7085 v -1.4128 l 2.727,-0.5584 V 692.153 l -2.727,-0.5584 v -1.4128 h 15.0475 v 5.3881 h -1.6101 l -0.6899,-3.581 h -3.9754 l -3.2198,0.197 v 7.5237 h 5.1911 l 0.4929,-1.9383 h 1.3799 v 5.6182 h -1.3799 l -0.4929,-1.9386 h -5.1911 v 7.7868 c 0.4164,0.1094 0.9637,0.197 1.6429,0.2628 0.6789,0.0657 1.336,0.0983 1.9712,0.0983 h 3.8441 l 0.7228,-3.5152 h 1.6098 v 5.3881 z m 28.1892,0.3614 c -3.3072,0 -5.7495,-0.9198 -7.3264,-2.7598 -1.5772,-1.84 -2.3656,-4.5011 -2.3656,-7.9838 0,-1.4893 0.2353,-2.9129 0.7064,-4.2709 0.4709,-1.3581 1.1552,-2.5629 2.0535,-3.6142 0.898,-1.0514 1.993,-1.8836 3.2853,-2.4968 1.2923,-0.6134 2.7598,-0.9201 4.4025,-0.9201 1.2047,0 2.3601,0.0822 3.4662,0.2466 1.1061,0.1641 2.0316,0.3997 2.7763,0.7064 v 5.1582 h -1.6427 l -0.69,-3.6142 c -0.5258,-0.1533 -1.1775,-0.2792 -1.955,-0.3778 -0.7776,-0.0987 -1.5494,-0.1477 -2.3162,-0.1477 -1.5112,0 -2.7706,0.345 -3.7783,1.0349 -1.0074,0.69 -1.7632,1.7249 -2.2669,3.1048 -0.5037,1.3796 -0.7557,3.121 -0.7557,5.2237 0,1.5114 0.1534,2.8256 0.4601,3.9427 0.3064,1.1169 0.7446,2.0424 1.3141,2.7763 0.5695,0.7336 1.2759,1.2758 2.1192,1.6262 0.843,0.3504 1.8125,0.5255 2.9075,0.5255 0.8762,0 1.6154,-0.0711 2.2178,-0.2134 0.6024,-0.1423 1.084,-0.3121 1.4454,-0.5094 0.3614,-0.197 0.6299,-0.3504 0.805,-0.4598 l 0.6571,-3.384 h 1.6098 v 4.9938 c -0.4161,0.1752 -0.9309,0.3779 -1.544,0.6078 -0.6134,0.2301 -1.3689,0.4218 -2.2669,0.5751 -0.898,0.1534 -2.0044,0.2299 -3.3185,0.2299 z m 20.2714,0.0658 c -3.2199,0 -5.6619,-0.9474 -7.3267,-2.842 -1.6645,-1.8947 -2.4968,-4.5176 -2.4968,-7.8687 0,-2.1246 0.3997,-4.0411 1.1991,-5.7496 0.7993,-1.7084 1.9769,-3.0772 3.5319,-4.1068 1.5551,-1.0295 3.4935,-1.5443 5.8153,-1.5443 1.9712,0 3.6522,0.4272 5.0431,1.2815 1.391,0.8541 2.4588,2.0642 3.2035,3.6304 0.7446,1.5661 1.1168,3.4551 1.1168,5.6673 0,1.5772 -0.1916,3.0611 -0.5748,4.4518 -0.3833,1.3909 -0.9803,2.6175 -1.7907,3.6799 -0.8104,1.0622 -1.8507,1.8944 -3.1212,2.4968 -1.2702,0.6023 -2.8035,0.9037 -4.5995,0.9037 z m 0.6571,-1.8729 c 1.4675,0 2.6447,-0.345 3.5319,-1.0349 0.887,-0.69 1.5387,-1.7085 1.9548,-3.0555 0.4161,-1.347 0.6242,-2.9951 0.6242,-4.9445 0,-1.9275 -0.1588,-3.499 -0.4765,-4.7148 -0.3175,-1.2155 -0.7719,-2.1518 -1.3635,-2.8089 -0.5913,-0.657 -1.2812,-1.106 -2.0696,-1.347 -0.7886,-0.2409 -1.6537,-0.3614 -2.5956,-0.3614 -0.7011,0 -1.3799,0.049 -2.037,0.1477 -0.6571,0.0986 -1.2759,0.3121 -1.8564,0.6406 -0.5803,0.3285 -1.084,0.8325 -1.5112,1.5114 -0.4272,0.6789 -0.7668,1.577 -1.0185,2.6941 -0.252,1.1171 -0.3778,2.5299 -0.3778,4.2383 0,2.1904 0.2792,3.9479 0.8379,5.2731 0.5584,1.3252 1.3688,2.2835 2.431,2.8749 1.0624,0.5913 2.3712,0.8869 3.9263,0.8869 z m 12.6819,1.4457 v -1.4128 l 2.7269,-0.5584 V 692.153 l -2.7269,-0.5584 v -1.4128 h 9.265 c 1.2045,0 2.3052,0.1862 3.3018,0.5587 0.9967,0.3722 1.796,0.9417 2.3984,1.7084 0.6024,0.7665 0.9034,1.7632 0.9034,2.9897 0,1.0296 -0.1312,1.9001 -0.394,2.6119 -0.2631,0.7118 -0.6188,1.3034 -1.0678,1.7742 -0.449,0.4708 -0.9474,0.8705 -1.495,1.1993 -0.5477,0.3286 -1.1279,0.6242 -1.7413,0.887 l 4.5669,7.5237 2.2997,0.6242 v 1.4128 h -3.0226 c -0.5037,0 -0.8815,-0.0766 -1.1335,-0.2299 -0.2518,-0.1534 -0.4984,-0.4161 -0.7393,-0.7886 l -4.5666,-7.9509 h -3.0229 v 6.9982 l 2.7272,0.5584 v 1.4128 z m 5.5522,-10.7765 h 2.0699 c 1.0295,0 1.9275,-0.197 2.6943,-0.5913 0.7665,-0.3943 1.3688,-0.9417 1.8068,-1.6427 0.4382,-0.701 0.6571,-1.5114 0.6571,-2.4312 0,-0.8981 -0.1477,-1.6152 -0.4434,-2.1521 -0.2956,-0.5366 -0.6735,-0.9363 -1.1336,-1.1991 -0.46,-0.2627 -0.9527,-0.4325 -1.4785,-0.5094 -0.5255,-0.0765 -1.0293,-0.1148 -1.5112,-0.1148 -0.3943,0 -0.8379,0.0165 -1.3305,0.0494 -0.493,0.0326 -0.9366,0.0711 -1.3309,0.1148 z"
     style="fill:#ffffff;fill-rule:evenodd"
     id="path6" />
  <path
     d="m 297.7086,649.686 c 0,-6.7166 -4.03,-9.7151 -13.0212,-13.2276 l -3.9275,-1.5499 c -10.5401,-4.1345 -17.7744,-10.1285 -17.7744,-20.6689 0,-11.8854 10.0242,-19.1197 23.1489,-19.1197 6.9244,0 12.4017,2.1703 16.8452,5.4771 l -0.6204,13.4356 h -6.2004 l -2.8943,-15.605 6.6145,3.4103 v 5.1668 c -5.0631,-4.9604 -8.8877,-6.7182 -14.365,-6.7182 -8.0609,0 -14.1577,4.0309 -14.1577,11.7819 0,6.5103 4.2364,10.3342 11.7812,13.2276 l 4.0308,1.5515 c 13.641,5.2694 18.912,11.2643 18.912,20.9788 0,12.1944 -10.2314,19.635 -24.39,19.635 -7.7503,0 -15.2951,-2.4802 -20.0492,-5.4764 l 0.6205,-14.4685 h 6.201 l 2.6866,15.9139 -6.7166,-2.8918 v -4.9611 c 6.4058,4.6506 9.9208,6.7165 16.9478,6.7165 9.818,0 16.3282,-4.5461 16.3282,-12.6079 z"
     style="fill:#ffffff;fill-rule:evenodd"
     id="path8" />
  <path
     d="m 365.6891,660.486 h 2.0668 l 12.8149,1.5501 v 4.1327 H 352.6677 Z M 332.308,638.7825 h 27.9029 l 1.6543,4.755 h -31.21 z m 12.0918,-42.3714 h 6.2004 l 23.7702,69.7577 h -9.6116 l -20.7724,-61.9039 h 2.3773 l -21.083,61.9039 h -4.8568 z m -30.7968,65.625 10.3349,-1.5501 h 2.0661 l 11.3686,1.5501 v 4.1327 H 313.603 Z"
     style="fill:#ffffff;fill-rule:evenodd"
     id="path10" />
  <path
     d="m 458.4094,596.67 h 14.4675 v 4.1336 l -13.4346,1.5499 h -1.0329 z m -4.4435,37.204 V 596.67 h 9.4036 c -0.3105,10.4375 -0.3105,21.1856 -0.3105,32.0365 v 5.1675 c 0,10.6448 0,21.3922 0.3105,32.0368 h -9.7142 c 0.3106,-10.4385 0.3106,-21.185 0.3106,-32.0368 z m -8.9921,27.9032 12.4017,-1.5492 h 2.0668 l 13.4346,1.5492 v 4.1336 H 444.9738 Z M 397.849,596.67 h 9.1975 l 25.3194,62.0065 h -3.514 L 452.8278,596.67 h 5.4771 l -26.9719,69.2408 h -5.0648 z m -0.1035,0 h 4.3399 l 0.9304,30.7975 v 38.4433 h -5.2703 z m -9.3011,65.1072 10.8518,-1.5492 h 2.0662 l 10.1276,1.5492 v 4.1336 h -23.0456 z m 0,-65.1072 h 13.641 v 5.6835 h -1.2393 l -12.4017,-1.5499 z"
     style="fill:#ffffff;fill-rule:evenodd"
     id="path12" />
  <path
     d="m 495.0921,628.9652 c 0,-10.6445 0,-21.3919 -0.309,-32.0365 h 9.9208 c -0.3098,10.4375 -0.3098,21.1849 -0.3098,32.0365 v 5.1668 c 0,10.6455 0,21.3929 0.3098,32.0374 h -9.9208 c 0.309,-10.4384 0.309,-21.1849 0.309,-32.0374 z m 5.6844,31.5208 13.4346,1.5498 v 4.1336 H 485.275 v -4.1336 l 13.434,-1.5498 z M 485.275,601.0623 v -4.1336 h 28.9361 v 4.1336 l -13.4346,1.5499 h -2.0675 z"
     style="fill:#ffffff;fill-rule:evenodd"
     id="path14" />
  <path
     d="m 560.9125,629.4819 1.5499,-10.9537 h 4.6496 v 24.4919 h -4.6496 l -1.5499,-11.4714 z m 19.6351,18.2923 -0.7233,18.395 h -38.9612 v -5.1668 h 35.3438 l -4.6498,5.1668 3.2026,-18.395 z m -16.3283,-14.5705 h -23.3568 v -4.7556 h 23.3568 z m 5.2703,-36.2755 4.6505,5.1675 h -33.277 v -5.1675 h 36.8937 l 0.7231,18.3958 h -5.7864 z m -33.2777,32.0368 c 0,-10.6439 0,-21.392 -0.3089,-32.0368 h 9.9215 c -0.3108,10.4378 -0.3108,21.1859 -0.3108,32.0368 v 3.9282 c 0,11.8847 0,22.6312 0.3108,33.276 h -9.9215 c 0.3089,-10.4384 0.3089,-21.1851 0.3089,-32.0367 z m 4.6512,31.5214 v 5.6828 h -14.4682 v -4.1329 l 13.4346,-1.5499 z m -14.4682,-59.4236 v -4.1346 h 14.4682 v 5.6835 h -1.0336 z"
     style="fill:#ffffff;fill-rule:evenodd"
     id="path16" />
  <path
     d="m 326.5155,201.2274 c -1.2159,0.4134 -2.5041,0.776 -3.7932,1.1453 l -0.9704,0.2762 c -0.3451,0.0979 -0.7392,0.2319 -1.0837,0.3675 -0.6982,0.285 -1.3403,0.6156 -1.956,0.964 -2.4408,1.4086 -4.5863,3.0035 -6.8199,4.4546 -2.2202,1.4584 -4.4813,2.8158 -6.8586,3.8904 -1.1752,0.5235 -2.4304,1.0468 -3.6008,1.3444 -1.2047,0.3019 -2.472,0.435 -3.7516,0.4375 -2.5669,-0.012 -5.164,-0.4887 -7.6997,-1.1847 -1.2698,-0.3483 -2.5251,-0.7649 -3.7635,-1.2279 -0.6188,-0.2346 -1.2338,-0.4794 -1.8422,-0.7385 l -0.7897,-0.3468 c 3.9811,-2.1792 7.7293,-4.7194 11.1735,-7.6797 0.9311,-0.8082 1.843,-1.6775 2.7139,-2.5244 0.8685,-0.8411 1.7738,-1.659 2.6822,-2.4752 1.6159,-1.4495 3.2413,-2.904 4.836,-4.3968 0.435,0.134 1.3565,0.4189 1.4464,0.4405 l 0.2625,0.0539 0.4824,0.0851 0.9182,0.1292 c 0.6027,0.0746 1.1936,0.134 1.782,0.1845 1.1596,0.1124 2.4222,0.1397 3.2851,0.269 0.9511,0.1476 1.9014,0.4213 2.8029,0.8395 0.455,0.1991 0.8916,0.4446 1.3155,0.7031 0.2127,0.1301 0.4189,0.2689 0.6173,0.4118 l 0.2889,0.2159 0.134,0.1076 0.0601,0.0496 0.0282,0.0241 0.007,0.006 0.002,7e-4 7e-4,9e-4 h 9e-4 c 0.0264,-0.0257 -0.0571,0.0578 0.0584,-0.0578 l 1.1784,0.4528 c 2.4681,-0.1638 4.9877,0.1597 7.0015,1.2632 0.4969,0.2721 0.9542,0.5988 1.3267,0.956 0.1854,0.1766 0.3499,0.3643 0.4705,0.5386 0.0311,0.0416 0.0584,0.0857 0.0826,0.1283 -0.0972,0.0676 -0.2185,0.1406 -0.3532,0.2095 -0.4791,0.2496 -1.0741,0.4744 -1.6752,0.6824 z m -42.6467,-5.4285 c 1.4552,-4.7306 4.2098,-8.9454 7.8531,-12.1648 0.9044,-0.8123 1.8741,-1.5522 2.8742,-2.2488 1.0248,-0.6967 2.1158,-1.3711 3.1687,-2.0573 2.1567,-1.3028 4.3279,-2.578 6.5706,-3.6656 2.2297,-1.11 4.5115,-2.0925 6.8224,-2.8205 1.1543,-0.3468 2.3139,-0.6726 3.4545,-0.8628 0.5706,-0.1108 1.1374,-0.1784 1.6791,-0.22 0.2753,-0.0241 0.5379,-0.0337 0.7884,-0.0314 0.1331,-0.006 0.2366,0.007 0.3515,0.0105 0.0321,9e-4 0.0498,0.004 0.0737,0.006 -0.1226,0.9479 -0.2696,1.8741 -0.5208,2.7257 -0.6325,2.2828 -1.6984,4.4444 -2.9337,6.4967 -2.5339,4.0894 -5.8409,7.695 -9.3429,11.0693 -1.7528,1.6928 -3.5659,3.3268 -5.3792,4.9795 -0.9054,0.8285 -1.8116,1.6598 -2.6962,2.5301 -0.878,0.8675 -1.7328,1.6959 -2.6447,2.5018 -3.4151,2.9873 -7.2051,5.6032 -11.1767,7.7951 -0.691,-4.6665 -0.3274,-9.5761 1.058,-14.0431 z m 23.5343,-5.9041 -0.002,0.002 c -0.0282,-0.01 -0.0467,-0.0169 0.002,-0.002 z m 13.2026,-10.8919 c 0.6188,0.309 0.569,0.4839 0.4486,0.9062 -0.1042,0.3645 -0.2616,0.9151 0.2496,1.4263 0.7103,0.7104 1.4641,0.4583 2.0163,0.2753 0.2111,-0.0707 0.4125,-0.1381 0.5947,-0.154 0.0804,0.2159 0.0804,0.8234 0.0804,1.2 0,0.9863 0,2.0065 0.8027,2.0065 0.296,0 0.6598,-0.1309 1.1205,-0.2969 1.199,-0.4312 2.1469,-0.6992 2.5339,0.0753 1.4327,2.8647 -1.3742,6.3505 -7.9125,9.8942 -0.0778,0 -0.154,0.003 -0.2321,0.004 l -0.3515,-0.3051 c -0.2521,-0.2103 -0.508,-0.4084 -0.7704,-0.5964 -0.5267,-0.3756 -1.0684,-0.7271 -1.6415,-1.0297 -1.1349,-0.6244 -2.3742,-1.0867 -3.6656,-1.3797 -1.3863,-0.2906 -2.4177,-0.3531 -3.5252,-0.5427 -0.5468,-0.0841 -1.0892,-0.1774 -1.6166,-0.2784 l -0.2801,-0.0594 c 2.5066,-2.5863 4.8478,-5.3561 6.7943,-8.4383 0.6559,-1.0698 1.2698,-2.1735 1.8083,-3.3173 0.8614,9e-4 2.485,0.0778 3.5462,0.61 z m -90.3463,109.5424 c -0.1372,0.1195 -0.2689,0.2455 -0.4055,0.3659 1.1495,-1.7915 2.2163,-3.6447 3.0727,-5.6746 0.4462,-1.0603 0.8387,-2.2595 1.033,-3.4938 0.1806,-1.1768 0.2648,-2.2852 0.3676,-3.4097 l 0.5161,-6.6379 c 0.3644,-4.3984 0.8693,-8.7666 1.6254,-13.0774 0.374,-2.1535 0.8452,-4.2965 1.3965,-6.3874 0.5972,-1.9899 1.4343,-4.0028 2.3446,-5.9879 3.7065,-7.9526 8.1748,-15.6435 12.6103,-23.307 4.0067,-6.8917 8.1491,-13.7125 12.3173,-20.5172 -0.6382,2.5942 -1.1767,5.205 -1.6172,7.8401 -0.582,3.518 -0.9817,7.1026 -0.928,10.6808 -0.0112,7.0986 -0.3948,14.2012 -1.3725,21.2268 -0.976,7.0158 -2.5081,13.9875 -5.0928,20.574 -1.3019,3.2822 -2.8406,6.4839 -4.8077,9.408 -1.1961,1.7915 -2.5389,3.4865 -4.0301,5.0325 -0.6068,0.4967 -1.2209,0.9863 -1.8372,1.4737 -5.0319,3.9409 -10.3438,7.6121 -15.1925,11.8911 z m 101.1683,-88.3927 c -0.1115,-0.6983 -0.3595,-1.1124 -0.6036,-1.5099 -0.2512,-0.3852 -0.529,-0.7094 -0.8212,-1.004 -0.5833,-0.5875 -1.2256,-1.0571 -1.895,-1.4489 -1.9125,-1.0996 -3.9946,-1.6108 -6.0655,-1.7817 3.4145,-1.9753 5.7149,-3.9313 6.8152,-5.832 0.9119,-1.574 1.017,-3.0854 0.3131,-4.4933 -0.7367,-1.4728 -2.4809,-0.8466 -3.5236,-0.471 -0.2913,0.1042 -0.5916,0.2118 -0.7697,0.2416 -0.0794,-0.2193 -0.0794,-0.8227 -0.0794,-1.1967 0,-0.9866 0,-2.0068 -0.8027,-2.0068 -0.3325,0 -0.6357,0.1013 -0.9295,0.1991 -0.5635,0.1879 -0.85,0.2626 -1.1945,-0.081 -0.1597,-0.1597 -0.1508,-0.2705 -0.0457,-0.6382 0.1324,-0.463 0.354,-1.2377 -0.8611,-1.8452 -1.0771,-0.5385 -2.5845,-0.6693 -3.5621,-0.6919 0.3811,-0.883 0.7287,-1.7819 0.9961,-2.7138 0.736,-2.4238 0.9888,-5.0126 0.7399,-7.5569 l -0.7945,-0.2398 0.002,-0.01 c -0.021,-0.002 -0.0362,-0.004 -0.0546,-0.006 l -0.002,-7e-4 v 7e-4 c -0.1887,-0.0232 -0.284,-0.0248 -0.3925,-0.0314 -0.1258,-0.007 -0.2376,-0.01 -0.3363,-0.007 -0.2061,0.002 -0.4236,-9e-4 -0.6107,0.0152 -0.3924,0.0191 -0.7699,0.0546 -1.1326,0.1058 -0.7328,0.0956 -1.439,0.2232 -2.1205,0.3909 -1.379,0.3108 -2.6754,0.7522 -3.9563,1.2145 -2.5444,0.9551 -4.9331,2.1455 -7.2343,3.4465 -2.3155,1.2818 -4.5044,2.7298 -6.6675,4.2002 -1.0602,0.7729 -2.1157,1.5099 -3.1759,2.3101 -1.0717,0.8202 -2.1078,1.6895 -3.0718,2.6374 -1.9312,1.8911 -3.6335,4.031 -4.9652,6.3779 -1.3196,2.3534 -2.3252,4.868 -2.9546,7.4606 -0.6509,2.586 -0.9383,5.2396 -0.9583,7.8738 0.002,2.5123 0.2328,4.9804 0.805,7.4581 -2.3574,2.197 -4.0854,4.8906 -5.6216,7.6124 -1.5781,2.8534 -2.8975,5.8207 -4.1352,8.8042 -2.4866,5.9669 -4.5222,12.0709 -6.7094,18.0908 -2.2071,6.0036 -4.3736,12.03 -7.2301,17.6516 -1.4441,2.8205 -3.0693,5.4268 -5.2621,7.6774 -0.4303,0.4599 -0.8821,0.9028 -1.3365,1.3445 0.2617,-0.3652 0.517,-0.7338 0.7656,-1.1069 2.0059,-2.9835 3.5678,-6.2341 4.8858,-9.558 2.6174,-6.6706 4.1584,-13.6979 5.1408,-20.7594 0.9841,-7.0689 1.3695,-14.2085 1.3806,-21.3344 -0.053,-3.5396 0.3404,-7.0552 0.9167,-10.5506 0.5836,-3.4909 1.346,-6.9663 2.2796,-10.3734 l 0.6147,-2.2458 -1.3355,1.915 h -9e-4 c -2.5508,3.6424 -5.0301,7.3282 -7.4766,11.0389 -2.4465,3.7097 -4.8865,7.4267 -7.2397,11.1999 -4.7051,7.5521 -9.3331,15.1452 -13.2886,23.2215 -0.9633,2.0379 -1.8718,4.1142 -2.5783,6.3721 -0.6084,2.192 -1.118,4.3839 -1.533,6.5993 -0.8555,4.4216 -1.3492,8.8876 -1.749,13.3334 l -0.5449,6.6379 c -0.1035,1.0853 -0.195,2.1913 -0.3579,3.209 -0.1622,0.9567 -0.4479,1.8845 -0.8315,2.8815 -1.4553,3.7644 -3.4338,7.4959 -5.1554,11.3686 -2.7683,3.0219 -5.2189,6.3537 -7.1139,10.0507 -0.3652,0.7344 -0.7056,1.4834 -1.0498,2.2297 -0.309,0.7611 -0.651,1.513 -0.9335,2.2877 -0.2608,0.7784 -0.5763,1.5515 -0.7914,2.3412 l -0.6775,2.3669 c -0.7906,3.1858 -1.4448,6.4318 -1.7442,9.7377 -0.3417,3.3029 -0.3588,6.6411 -0.1902,10.0002 0.1092,1.6775 0.2658,3.3582 0.5017,5.0487 1.2252,9.6348 7.1073,4.0319 4.8623,-3.4763 -0.1918,-0.7401 -0.3836,-1.4841 -0.5569,-2.2329 -0.6894,-3.0028 -1.0378,-6.0969 -1.1422,-9.2096 -0.0353,-3.1095 0.1559,-6.2445 0.6887,-9.3388 0.5595,-3.0925 1.3003,-6.141 2.6149,-9.0023 1.2819,-2.8616 2.9066,-5.5882 4.8442,-8.0939 1.9439,-2.4979 4.1543,-4.8031 6.5366,-6.9189 4.7509,-4.266 10.119,-7.7823 15.3481,-11.5435 2.6038,-1.9007 5.2028,-3.8544 7.5505,-6.1619 1.1727,-1.1501 2.2987,-2.3751 3.2732,-3.7405 0.976,-1.3482 1.8235,-2.7536 2.6085,-4.1888 1.5917,-2.8597 2.9048,-5.8344 4.1234,-8.8299 1.2327,-2.9914 2.3227,-6.0263 3.3925,-9.0587 2.1312,-6.0696 4.1796,-12.1424 6.4341,-18.1075 1.1342,-2.9803 2.3919,-5.901 3.7973,-8.7311 1.346,-2.665 2.8991,-5.2437 4.8978,-7.3749 l 0.01,0.005 0.4582,0.2335 0.9224,0.4463 c 0.6179,0.2922 1.2425,0.5675 1.8716,0.833 1.2602,0.5274 2.5421,1.0059 3.8512,1.419 2.6111,0.8373 5.3399,1.4064 8.1548,1.494 1.4063,0.0336 2.8365,-0.0731 4.2483,-0.3902 1.4457,-0.3347 2.6907,-0.8339 3.9837,-1.3677 2.5516,-1.0805 4.9474,-2.4465 7.2542,-3.8824 2.3076,-1.4238 4.5309,-2.9826 6.7824,-4.2059 0.5611,-0.3001 1.1244,-0.5698 1.6775,-0.7786 0.284,-0.1026 0.5281,-0.1814 0.8307,-0.2592 l 0.9752,-0.2527 c 1.3044,-0.3404 2.6142,-0.6728 3.9547,-1.0917 0.6733,-0.2175 1.3483,-0.4439 2.0732,-0.7947 0.362,-0.182 0.7424,-0.3868 1.1622,-0.7567 0.2054,-0.1871 0.4334,-0.4312 0.6195,-0.7955 0.0451,-0.0914 0.086,-0.1934 0.1229,-0.2914 0.0394,-0.1245 0.0708,-0.2601 0.0915,-0.3916 0.0257,-0.2321 0.0202,-0.4471 -0.005,-0.6213 z"
     style="fill:#ffffff;fill-rule:evenodd"
     id="path18" />
  <path
     d="m 615.3883,362.9317 c 0.0432,0.5385 0.1677,1.1615 0.3121,1.7819 0.2947,1.2489 0.6726,2.5339 1.0444,3.8215 l 0.2807,0.9688 c 0.1013,0.3451 0.1968,0.7496 0.2635,1.1139 0.1308,0.7424 0.1909,1.4625 0.2239,2.1687 0.1019,2.8165 -0.1092,5.4812 -0.1525,8.1462 -0.0562,2.6542 -0.007,5.2917 0.3459,7.8763 0.1806,1.2737 0.4045,2.6158 0.7744,3.7652 0.3839,1.1806 0.9431,2.3253 1.6223,3.4113 1.3724,2.1687 3.1559,4.1158 5.0928,5.8937 0.9695,0.8909 1.989,1.7337 3.0395,2.537 0.5273,0.4007 1.0611,0.7907 1.6037,1.1688 l 0.7136,0.4849 c -0.2681,-4.5311 -0.1068,-9.0556 0.5722,-13.5464 0.1902,-1.2184 0.4416,-2.452 0.6975,-3.6399 0.2512,-1.1831 0.4624,-2.3846 0.6726,-3.5887 0.3693,-2.1382 0.7376,-4.2869 1.1567,-6.4315 -0.3451,-0.2969 -1.0755,-0.9272 -1.1415,-0.992 l -0.1854,-0.1927 -0.3281,-0.3645 -0.5972,-0.7094 c -0.3829,-0.4703 -0.7472,-0.9408 -1.1028,-1.4118 -0.7112,-0.9224 -1.4054,-1.9778 -1.9731,-2.6408 -0.63,-0.7272 -1.3667,-1.387 -2.1999,-1.928 -0.4109,-0.2801 -0.85,-0.5192 -1.2948,-0.7424 -0.223,-0.1099 -0.4503,-0.2112 -0.6764,-0.3033 l -0.3365,-0.1302 -0.162,-0.0562 -0.074,-0.0241 -0.0352,-0.0118 -0.009,-0.003 -0.002,-7e-4 -9e-4,-9e-4 h -7e-4 c 0.009,-0.036 -0.0177,0.0796 0.0185,-0.0801 l -1.0091,-0.7586 c -1.1717,-2.1776 -2.7851,-4.1408 -4.7893,-5.2605 -0.4953,-0.2762 -1.0145,-0.4912 -1.5146,-0.6165 -0.248,-0.0633 -0.4944,-0.1036 -0.7062,-0.1131 -0.0524,-0.004 -0.1045,-0.003 -0.1527,-0.002 -0.005,0.1181 -0.004,0.26 0.01,0.4109 z m 20.0653,11.9562 -9e-4,0.002 c 0.0225,0.0184 0.0377,0.0312 9e-4,-0.002 z m -3.8392,31.4322 c 4.3215,-1.8941 8.2881,-4.8109 11.3367,-8.3561 3.2353,-3.7462 5.344,-8.3186 6.1353,-13.1152 0.208,-1.1984 0.3204,-2.4129 0.3788,-3.6297 0.0467,-1.2393 0.0378,-2.5211 0.0603,-3.7773 -0.0409,-2.5202 -0.114,-5.0364 -0.3838,-7.5143 -0.2439,-2.4793 -0.6236,-4.9345 -1.2343,-7.2791 -0.3195,-1.1622 -0.6582,-2.3173 -1.1037,-3.3855 -0.2096,-0.5426 -0.4528,-1.058 -0.7056,-1.5387 -0.126,-0.2473 -0.2575,-0.4744 -0.3915,-0.6846 -0.066,-0.1165 -0.1318,-0.1968 -0.1959,-0.2931 -0.0178,-0.0257 -0.0298,-0.0393 -0.0442,-0.0584 -0.7376,0.6074 -1.4447,1.2231 -2.0324,1.8884 -1.5979,1.7482 -2.8638,3.7998 -3.9473,5.9365 -2.1182,4.319 -3.4169,9.0362 -4.4161,13.795 -0.5024,2.3837 -0.9247,4.7893 -1.3613,7.2029 -0.2207,1.2072 -0.4439,2.4167 -0.7112,3.628 -0.2696,1.2047 -0.517,2.3694 -0.7151,3.57 -0.7176,4.4804 -0.9215,9.0813 -0.6687,13.6112 z m 6.0552,-48.4041 c -0.5908,-0.3595 -0.7128,-0.2248 -1.0065,0.1019 -0.2537,0.2817 -0.6364,0.7071 -1.3403,0.5458 -0.9793,-0.2254 -1.1672,-0.9976 -1.3044,-1.5628 -0.053,-0.2159 -0.1029,-0.423 -0.1861,-0.5859 -0.2248,0.0467 -0.7402,0.37 -1.0589,0.57 -0.8364,0.5233 -1.6998,1.0659 -2.1269,0.3852 -0.1574,-0.2496 -0.2391,-0.6285 -0.3435,-1.1069 -0.2712,-1.2441 -0.5475,-2.1904 -1.4095,-2.1069 -3.1881,0.3083 -4.6506,4.5382 -4.181,11.9601 0.0417,0.0651 0.0795,0.1318 0.1204,0.1975 l 0.4448,0.1374 c 0.3122,0.101 0.6164,0.2125 0.9149,0.3354 0.5979,0.2464 1.184,0.5185 1.7451,0.8436 1.1307,0.631 2.1814,1.4343 3.1156,2.3726 0.9825,1.0202 1.5829,1.8614 2.331,2.6984 0.3629,0.4182 0.7287,0.8293 1.0955,1.2218 l 0.1991,0.2061 c 0.8598,-3.4969 1.9626,-6.9516 3.5404,-10.2393 0.5579,-1.1237 1.1672,-2.2304 1.8502,-3.2931 -0.4575,-0.7297 -1.3863,-2.0637 -2.3999,-2.6809 z m -23.6683,2.0645 c 0.651,-0.2762 1.1333,-0.2858 1.6004,-0.2905 0.46,0.008 0.8814,0.0721 1.2866,0.162 0.8075,0.1829 1.546,0.4768 2.2338,0.8363 1.9487,1.0362 3.4875,2.5285 4.7316,4.193 -0.1397,-3.9418 0.2953,-6.93 1.3212,-8.8715 0.8491,-1.6095 2.0747,-2.5011 3.6414,-2.6529 1.6391,-0.1581 2.0348,1.6536 2.2709,2.7355 0.0658,0.3026 0.134,0.6141 0.2039,0.7802 0.228,-0.0483 0.7383,-0.3693 1.0555,-0.5684 0.8354,-0.5233 1.7007,-1.0659 2.1268,-0.3852 0.1766,0.2817 0.2521,0.5925 0.3251,0.8933 0.1404,0.5779 0.2287,0.8598 0.7031,0.9688 0.22,0.0507 0.3092,-0.016 0.5651,-0.3001 0.322,-0.3579 0.8605,-0.9577 2.0211,-0.2512 1.0282,0.6277 1.9392,1.8356 2.4777,2.6511 0.5458,-0.7914 1.1228,-1.5636 1.7706,-2.2844 1.6623,-1.9118 3.7211,-3.501 6.0102,-4.6416 l 0.6245,0.5458 0.007,-0.006 c 0.0137,0.0169 0.0225,0.028 0.0344,0.0426 l 10e-4,0.002 v 7e-4 c 0.1197,0.1469 0.1718,0.2273 0.2353,0.3155 0.073,0.1026 0.134,0.1966 0.1848,0.2817 0.1073,0.1757 0.2254,0.3579 0.3112,0.5249 0.1918,0.3426 0.3629,0.6823 0.5112,1.0161 0.3092,0.6719 0.5757,1.3381 0.7957,2.0051 0.4694,1.3331 0.7833,2.6655 1.0723,3.9962 0.5408,2.6641 0.8025,5.3192 0.9214,7.9598 0.1452,2.6425 0.081,5.2672 -0.017,7.8814 -0.0915,1.3082 -0.1556,2.5939 -0.2696,3.9176 -0.1261,1.3429 -0.3122,2.6823 -0.6036,4.0035 -0.5764,2.6408 -1.4848,5.2196 -2.766,7.5947 -1.2937,2.3669 -2.8895,4.5558 -4.7522,6.4652 -1.8455,1.9255 -3.9402,3.5782 -6.162,4.9941 -2.1278,1.3316 -4.34,2.4465 -6.7398,3.2765 l -1.4423,0.01 c 0.0159,-0.0572 0.0391,-0.1134 0.0544,-0.1702 l -0.009,-0.006 -0.4407,-0.2639 -0.8693,-0.5443 c -0.5747,-0.3692 -1.1406,-0.7513 -1.6998,-1.143 -1.1158,-0.7882 -2.2027,-1.6204 -3.2477,-2.5091 -2.0957,-1.7681 -4.0275,-3.7771 -5.5968,-6.1169 -0.7753,-1.1727 -1.444,-2.4416 -1.9264,-3.8069 -0.4839,-1.4022 -0.7224,-2.7219 -0.9567,-4.1006 -0.4407,-2.7355 -0.5554,-5.4919 -0.5643,-8.2097 -0.0175,-2.7111 0.1204,-5.4218 -0.0377,-7.9798 -0.0442,-0.6348 -0.1147,-1.2552 -0.2319,-1.8347 -0.0641,-0.2947 -0.1269,-0.5436 -0.2216,-0.8421 l -0.3042,-0.9599 c -0.4045,-1.2859 -0.8186,-2.5717 -1.1751,-3.9306 -0.1741,-0.6853 -0.3402,-1.3788 -0.4277,-2.1792 -0.0385,-0.4028 -0.0674,-0.8346 0.0232,-1.3861 0.0498,-0.2737 0.1349,-0.5963 0.3451,-0.9479 0.0539,-0.0866 0.1181,-0.1758 0.1823,-0.2593 0.0844,-0.0988 0.1822,-0.1966 0.2825,-0.2849 0.1823,-0.1445 0.3684,-0.2553 0.529,-0.3258 z"
     style="fill:#ffffff;fill-rule:evenodd"
     id="path20" />
  <path
     d="m 631.7356,407.7714 c -2.9127,6.5309 -6.3979,12.7755 -10.4175,18.7056 -1.0129,1.4768 -2.0572,2.9327 -3.1543,4.3534 -1.086,1.424 -2.257,2.8133 -3.3744,4.177 -2.2561,2.7346 -4.4467,5.4933 -6.4322,8.3771 -4.0174,5.7397 -6.9888,12.0975 -9.3452,18.664 -2.3367,6.5865 -4.0647,13.3912 -5.6209,20.2425 -0.3541,1.7233 -0.7113,3.4452 -1.0917,5.1618 -0.3629,1.7219 -0.6655,3.4595 -1.0008,5.1875 -0.1702,0.8709 -0.3147,1.7203 -0.5065,2.6078 l -0.6004,2.7187 c -0.1711,0.9116 -0.4953,1.7899 -0.7386,2.6856 l -0.394,1.3365 c -0.1404,0.4421 -0.3163,0.8739 -0.4735,1.3121 -2.4249,7.0497 -6.7135,13.3914 -11.9619,18.5596 -5.2999,5.1531 -11.5924,9.1044 -18.2472,11.9562 -6.6691,2.8342 -13.661,4.7909 -20.8327,5.4691 l -0.1019,-0.7961 c 6.8722,-1.5492 13.5365,-4.0269 19.7363,-7.2069 6.1858,-3.2042 11.9241,-7.2368 16.6067,-12.2268 2.3549,-2.4752 4.4385,-5.1859 6.1947,-8.0849 0.8958,-1.4407 1.6486,-2.9578 2.4145,-4.4667 l 1.0063,-2.3316 c 0.3413,-0.7732 0.5779,-1.5918 0.8734,-2.384 0.1363,-0.4004 0.2922,-0.7938 0.4132,-1.2 l 0.3381,-1.2272 c 0.2071,-0.8218 0.4951,-1.6213 0.6348,-2.4618 l 0.509,-2.4961 0.5017,-2.6263 c 0.3449,-1.7585 0.6564,-3.5227 1.0297,-5.2773 0.3779,-1.7554 0.7793,-3.5043 1.1838,-5.2533 1.6823,-6.9846 3.8303,-13.8915 6.6202,-20.5678 2.839,-6.6514 6.4179,-13.0438 10.8286,-18.7673 2.196,-2.8638 4.5725,-5.56 6.9772,-8.1887 2.4128,-2.6124 4.6466,-5.2917 6.7382,-8.146 4.1618,-5.6914 7.8506,-11.7851 10.9538,-18.1309 z"
     style="fill:#ffffff;fill-rule:evenodd"
     id="path22" />
  <path
     d="m 587.4408,494.1036 c 0.3235,-0.1479 0.7858,-0.4029 1.1767,-0.6318 0.4084,-0.2391 0.8097,-0.4967 1.2088,-0.7602 0.7945,-0.5353 1.5569,-1.1244 2.2955,-1.7407 1.4673,-1.2457 2.7901,-2.6584 3.9288,-4.2019 0.574,-0.769 1.0894,-1.5788 1.5603,-2.4128 0.2242,-0.4287 0.456,-0.8298 0.676,-1.281 l 0.655,-1.371 c 0.8612,-1.8363 1.6735,-3.7202 2.5371,-5.6159 1.6992,-3.7989 3.7989,-7.602 6.4837,-10.8896 1.3333,-1.6471 2.7396,-3.2281 4.2444,-4.6899 1.4841,-1.4703 2.9673,-2.8759 4.4457,-4.3118 5.9044,-5.7187 11.6962,-11.546 17.0275,-17.7743 2.6501,-3.1232 5.1954,-6.337 7.475,-9.7282 2.2306,-3.4023 4.2723,-7.0062 5.2668,-10.9264 l 0.002,-0.006 0.0699,-0.2343 0.0352,0.0393 c 1.0596,1.1968 0.2906,0.3347 0.5252,0.6027 l -0.0121,0.01 -0.0298,0.0248 -0.0617,0.053 -0.1244,0.1067 -0.2505,0.2144 -0.5008,0.4286 -1.0024,0.8571 -2.0132,1.7064 -4.0516,3.3816 c -2.7162,2.237 -5.4558,4.4467 -8.2577,6.5833 -2.7885,2.1695 -5.7581,4.0765 -8.537,6.1957 -2.7947,2.1109 -5.5069,4.3333 -8.085,6.7027 -0.6516,0.5852 -1.2689,1.2063 -1.9046,1.8077 -0.6382,0.5995 -1.2618,1.2136 -1.8597,1.8525 l -1.8188,1.8925 -1.7369,1.9673 c -0.5909,0.6453 -1.1438,1.3229 -1.6841,2.0106 l -1.6398,2.0484 -1.5298,2.1294 c -0.516,0.7062 -1.0241,1.4174 -1.4753,2.1671 -3.8077,5.8553 -6.7703,12.2846 -8.431,19.0717 l -0.7801,-0.1879 c 1.6848,-6.8866 4.6883,-13.401 8.5393,-19.3229 0.4568,-0.7583 0.9706,-1.4768 1.4914,-2.1903 l 1.546,-2.1535 1.6566,-2.0684 c 0.5458,-0.6944 1.1043,-1.3781 1.7007,-2.03 l 1.753,-1.9858 1.8341,-1.9093 c 0.6043,-0.6446 1.2329,-1.2641 1.8757,-1.8686 0.6413,-0.6052 1.2634,-1.2328 1.92,-1.822 2.5997,-2.3888 5.332,-4.6271 8.1459,-6.7535 2.8142,-2.1437 5.7702,-4.0403 8.533,-6.1916 2.7892,-2.1268 5.523,-4.3317 8.2335,-6.5648 l 4.0453,-3.3758 2.009,-1.7032 1.0018,-0.8557 0.4999,-0.4286 0.2505,-0.2151 0.1269,-0.1076 0.0633,-0.0537 0.033,-0.0282 0.02,-0.0168 c 0.2457,0.261 -0.5128,-0.6132 0.557,0.5788 l 0.1051,-0.1943 -0.002,0.006 c -0.9135,4.1254 -2.8952,7.8633 -5.0551,11.3967 -2.2106,3.517 -4.6858,6.8482 -7.2663,10.0851 -5.1884,6.4541 -10.842,12.5027 -16.589,18.4231 -1.4311,1.4784 -2.8927,2.953 -4.2901,4.4257 -1.4063,1.452 -2.6937,2.9965 -3.9034,4.5873 -2.4326,3.1832 -4.2451,6.7107 -5.7958,10.4721 -0.7866,1.8763 -1.5467,3.8005 -2.3742,5.7194 l -0.6332,1.4368 c -0.2159,0.4807 -0.4801,0.9824 -0.7192,1.4736 -0.5112,0.9736 -1.0755,1.9224 -1.7048,2.8245 -1.2514,1.8092 -2.713,3.4667 -4.3407,4.9379 -0.8188,0.7305 -1.6679,1.4272 -2.5621,2.0718 -0.4512,0.3178 -0.9062,0.6307 -1.3781,0.9269 -0.4896,0.3026 -0.9176,0.5674 -1.5203,0.87 z"
     style="fill:#ffffff;fill-rule:evenodd"
     id="path24" />
  <path
     d="m 588.6585,488.3414 -0.8027,-0.0111 c 0.004,-0.2553 0.3057,-25.7231 -3.5694,-42.0482 -4.0355,-16.9942 3.6865,-56.0108 11.5847,-67.6788 l 0.2721,-0.402 0.3442,0.3435 c 0.216,0.2166 0.2449,0.2449 -0.7232,13.9603 -0.2986,4.2164 -0.6091,8.6171 -0.8162,11.9314 -0.4391,7.0254 1.1019,22.156 2.2266,33.2053 0.28,2.7498 0.5321,5.2243 0.7176,7.2222 0.9157,9.8892 -0.8678,17.5705 -0.8862,17.6461 l -0.7802,-0.1846 c 0.0175,-0.0755 1.7699,-7.6365 0.8668,-17.3878 -0.1854,-1.996 -0.4366,-4.4683 -0.7166,-7.2149 -1.1279,-11.0757 -2.672,-26.2457 -2.2291,-33.337 0.208,-3.3148 0.5176,-7.7189 0.8155,-11.9376 0.3435,-4.861 0.696,-9.8485 0.8163,-12.1915 -7.5464,12.8263 -14.58,49.5447 -10.7121,65.8393 3.8992,16.4229 3.595,41.9895 3.5919,42.2454 z"
     style="fill:#ffffff;fill-rule:evenodd"
     id="path26" />
  <path
     d="m 409.147,324.3815 c 0,0 -22.8834,-24.3564 -24.1097,-44.9691 -1.2273,-20.6127 6.1346,-38.282 28.9561,-48.588 22.8215,-10.3058 47.3608,5.6444 53.9866,16.4414 6.6257,10.7972 11.2882,32.6378 2.9448,53.7418 -8.3434,21.1039 -13.3737,33.1274 -29.9376,51.1644 -0.5684,0.6188 -1.1288,1.225 -1.6832,1.8245 z m 35.8887,114.8436 c 19.1413,23.5584 13.6198,40.8578 13.0676,45.8277 -0.5522,4.9691 -6.2572,29.079 -31.2877,34.9688 -25.0305,5.889 -39.018,-5.1538 -46.7476,-15.829 -7.7302,-10.6735 -10.3067,-32.3915 -4.0492,-57.2372 6.2573,-24.8458 27.4231,-51.3492 27.4231,-51.3492 0,0 22.4531,20.0605 41.5938,43.6189 z m 113.9247,43.2513 V 253.8916 l -108.7711,110.7952 -9.1478,-8.9839 c 4.1041,-4.1432 7.5273,-7.6484 9.1478,-9.4207 5.8891,-6.4412 14.1347,-16.564 22.8954,-32.515 8.7602,-15.9502 13.6683,-39.0174 9.3741,-61.2257 -4.2949,-22.2083 -29.9386,-48.9554 -61.8395,-46.7476 -55.0478,3.8119 -80.6073,62.1141 -44.416,103.8019 10.9367,12.5983 34.2906,36.7933 52.5715,55.4923 -6.7631,6.9374 -11.6632,11.5968 -13.9491,13.7268 L 288.0909,253.8916 v 228.4467 l -3.9107,2.2538 v 1.8404 h 42.6982 v -1.7938 l -2.9448,-2.5773 V 314.7489 c 0,0 77.2993,78.8942 77.1764,78.7721 -101.9095,135.1903 37.1931,181.2194 75.9495,120.9785 33.8651,-52.6367 -16.1959,-90.3046 -16.1959,-90.3046 l -44.5097,-43.8743 c 2.6375,-2.6092 8.0529,-7.9725 13.8586,-13.7627 13.4312,13.7259 23.7807,24.1411 23.7807,24.1411 l 74.2316,-74.9677 v 167.2964 l -3.3134,1.5644 v 1.8404 h 36.3492 v -2.3919 z"
     style="fill:#ffffff;fill-rule:evenodd"
     id="path28" />
</svg>
